<svg viewBox="0 0 32 32" xmlns="http://www.w3.org/2000/svg">
  <defs>
    
    <linearGradient id="brass" x1="0" y1="0" x2="0" y2="1">
      <stop offset="0%" stop-color="#F0D080"/>
      <stop offset="55%" stop-color="#C9932F"/>
      <stop offset="100%" stop-color="#7A5518"/>
    </linearGradient>
    <linearGradient id="brassH" x1="0" y1="0" x2="0" y2="1">
      <stop offset="0%" stop-color="#F5DA96"/>
      <stop offset="50%" stop-color="#D9A845"/>
      <stop offset="100%" stop-color="#8A5F1E"/>
    </linearGradient>
    <radialGradient id="rivetGrad" cx="35%" cy="30%" r="75%">
      <stop offset="0%" stop-color="#F0D080"/>
      <stop offset="60%" stop-color="#5C3F14"/>
      <stop offset="100%" stop-color="#4A3410"/>
    </radialGradient>
    <linearGradient id="tubGrad" x1="0" y1="0" x2="0" y2="1">
      <stop offset="0%" stop-color="#FCFCFD"/>
      <stop offset="100%" stop-color="#CDD2D5"/>
    </linearGradient>
    <radialGradient id="patinaGrad" cx="30%" cy="70%" r="60%">
      <stop offset="0%" stop-color="#3B5240" stop-opacity="0.22"/>
      <stop offset="100%" stop-color="#3B5240" stop-opacity="0"/>
    </radialGradient>
    <radialGradient id="groundShadow" cx="50%" cy="50%" r="50%">
      <stop offset="0%" stop-color="#000000" stop-opacity="0.35"/>
      <stop offset="100%" stop-color="#000000" stop-opacity="0"/>
    </radialGradient>
    <filter id="dropshadow" x="-50%" y="-50%" width="200%" height="200%">
      <feDropShadow dx="0" dy="0.5" stdDeviation="0.5" flood-color="#000000" flood-opacity="0.4"/>
    </filter>
    
  </defs>
  <ellipse cx="16" cy="25.6" rx="14.5" ry="1.7" fill="url(#groundShadow)"/><g filter="url(#dropshadow)"><path d="M 1.60,13.20 L 30.40,13.20 C 30.40,16.70 25.40,18.70 25.40,21.60 L 25.40,23.20 L 6.60,23.20 L 6.60,21.60 C 6.60,18.70 1.60,16.70 1.60,13.20 Z" fill="url(#tubGrad)" stroke="#9AA0A4" stroke-width="0.3"/><ellipse cx="16" cy="17.70" rx="9" ry="1.6" fill="#FFFFFF" opacity="0.35"/><rect x="1.60" y="11.60" width="28.80" height="1.60" rx="0.7" fill="url(#brassH)" stroke="#4A3410" stroke-width="0.22"/><circle cx="4.50" cy="12.40" r="0.42" fill="url(#rivetGrad)" stroke="#4A3410" stroke-width="0.1"/><circle cx="10.50" cy="12.40" r="0.42" fill="url(#rivetGrad)" stroke="#4A3410" stroke-width="0.1"/><circle cx="16.00" cy="12.40" r="0.42" fill="url(#rivetGrad)" stroke="#4A3410" stroke-width="0.1"/><circle cx="21.50" cy="12.40" r="0.42" fill="url(#rivetGrad)" stroke="#4A3410" stroke-width="0.1"/><circle cx="27.50" cy="12.40" r="0.42" fill="url(#rivetGrad)" stroke="#4A3410" stroke-width="0.1"/><rect x="1.2" y="7.0" width="3.6" height="2.6" rx="0.6" fill="url(#brass)" stroke="#4A3410" stroke-width="0.22"/><rect x="2.0" y="9.2" width="2.0" height="2.6" rx="0.4" fill="url(#brass)" stroke="#4A3410" stroke-width="0.2"/><circle cx="3.0" cy="8.2" r="0.55" fill="url(#rivetGrad)" stroke="#4A3410" stroke-width="0.12"/><ellipse cx="2.6" cy="8.6" rx="1.6" ry="1.3" fill="url(#patinaGrad)"/></g>
</svg>