<svg viewBox="0 0 32 32" xmlns="http://www.w3.org/2000/svg">
<defs>
    <linearGradient id="brassGrad" x1="0" y1="0" x2="0" y2="1">
      <stop offset="0%" stop-color="#F0D080"/>
      <stop offset="55%" stop-color="#C9932F"/>
      <stop offset="100%" stop-color="#7A5518"/>
    </linearGradient>
    <linearGradient id="brassGradDark" x1="0" y1="0" x2="0" y2="1">
      <stop offset="0%" stop-color="#C9932F"/>
      <stop offset="55%" stop-color="#8A6420"/>
      <stop offset="100%" stop-color="#5C3F14"/>
    </linearGradient>
    <radialGradient id="brassRing" cx="35%" cy="30%" r="75%">
      <stop offset="0%" stop-color="#F0D080"/>
      <stop offset="55%" stop-color="#C9932F"/>
      <stop offset="100%" stop-color="#7A5518"/>
    </radialGradient>
    <radialGradient id="patina" cx="30%" cy="20%" r="70%">
      <stop offset="0%" stop-color="#3B5240" stop-opacity="0.26"/>
      <stop offset="100%" stop-color="#3B5240" stop-opacity="0"/>
    </radialGradient>
    <radialGradient id="groundShadow" cx="50%" cy="50%" r="50%">
      <stop offset="0%" stop-color="#000000" stop-opacity="0.35"/>
      <stop offset="100%" stop-color="#000000" stop-opacity="0"/>
    </radialGradient>
    <filter id="dropshadow" x="-50%" y="-50%" width="200%" height="200%">
      <feDropShadow dx="0" dy="0.5" stdDeviation="0.6" flood-color="#3a2408" flood-opacity="0.45"/>
    </filter>
    <radialGradient id="glowAmber" cx="50%" cy="50%" r="50%">
      <stop offset="0%" stop-color="#F0A623" stop-opacity="0.5"/>
      <stop offset="100%" stop-color="#F0A623" stop-opacity="0"/>
    </radialGradient>
    <radialGradient id="glowGreen" cx="50%" cy="50%" r="50%">
      <stop offset="0%" stop-color="#5FCB6E" stop-opacity="0.45"/>
      <stop offset="100%" stop-color="#5FCB6E" stop-opacity="0"/>
    </radialGradient>

    <linearGradient id="blanket" x1="0" y1="0" x2="0" y2="1">
      <stop offset="0%" stop-color="#F0A623"/>
      <stop offset="100%" stop-color="#B4701A"/>
    </linearGradient>
    </defs>


<g filter="url(#dropshadow)">
<g transform="translate(16 17) scale(1.35) translate(-16 -17)"><rect x="4.4" y="18.6" width="23.2" height="2.6" rx="0.4" fill="url(#brassGradDark)" stroke="#5C3F14" stroke-width="0.3"/><circle cx="7.00" cy="19.90" r="0.4" fill="#5C3F14" stroke="#4A3410" stroke-width="0.2"/><circle cx="6.88" cy="19.78" r="0.11" fill="#F0D080"/><circle cx="16.00" cy="19.90" r="0.4" fill="#5C3F14" stroke="#4A3410" stroke-width="0.2"/><circle cx="15.88" cy="19.78" r="0.11" fill="#F0D080"/><circle cx="25.00" cy="19.90" r="0.4" fill="#5C3F14" stroke="#4A3410" stroke-width="0.2"/><circle cx="24.88" cy="19.78" r="0.11" fill="#F0D080"/><rect x="4.6" y="7.4" width="2.6" height="18.0" rx="0.7" fill="url(#brassGrad)" stroke="#5C3F14" stroke-width="0.3"/><circle cx="5.9" cy="6.6" r="1.3" fill="url(#brassRing)" stroke="#5C3F14" stroke-width="0.25"/><circle cx="5.5" cy="6.2" r="0.35" fill="#F6E3AE"/><rect x="24.8" y="12.4" width="2.4" height="13.0" rx="0.6" fill="url(#brassGrad)" stroke="#5C3F14" stroke-width="0.3"/><circle cx="26.0" cy="11.7" r="1.0" fill="url(#brassRing)" stroke="#5C3F14" stroke-width="0.22"/><circle cx="25.7" cy="11.4" r="0.28" fill="#F6E3AE"/><g transform="rotate(-18 8.6 12.0)"><rect x="4.6" y="8.6" width="8.0" height="5.0" rx="1.6" fill="#F3ECDD" stroke="#B9AD91" stroke-width="0.3"/><line x1="8.6" y1="9.1" x2="8.6" y2="13.1" stroke="#B9AD91" stroke-width="0.3" stroke-opacity="0.7"/></g><path d="M7.2,18.6 C7.0,15.2 8.6,12.6 11.6,12.2 C13.6,11.9 14.6,13.2 16.6,13.0 C19.0,12.8 19.8,11.4 22.2,11.9 C24.6,12.4 24.9,15.0 24.9,18.6 Z" fill="url(#blanket)" stroke="#5C3F14" stroke-width="0.3"/><path d="M9.6,13.6 L15.4,14.7" fill="none" stroke="#000000" stroke-opacity="0.15" stroke-width="0.4"/><path d="M18.0,12.4 C17.7,15.4 18.3,15.4 18.6,18.5" fill="none" stroke="#000000" stroke-opacity="0.10" stroke-width="0.35"/><path d="M21.4,12.2 C21.099999999999998,15.3 21.5,15.3 21.8,18.5" fill="none" stroke="#000000" stroke-opacity="0.10" stroke-width="0.35"/></g></g>
</svg>
