<svg viewBox="0 0 32 32" xmlns="http://www.w3.org/2000/svg">
<defs>
  <linearGradient id="brass" x1="0" y1="0" x2="0" y2="1">
    <stop offset="0%" stop-color="#F0D080"/>
    <stop offset="55%" stop-color="#C9932F"/>
    <stop offset="100%" stop-color="#7A5518"/>
  </linearGradient>
  <linearGradient id="brassDark" x1="0" y1="0" x2="0" y2="1">
    <stop offset="0%" stop-color="#C9932F"/>
    <stop offset="60%" stop-color="#8A6420"/>
    <stop offset="100%" stop-color="#5C3F14"/>
  </linearGradient>
  <linearGradient id="rivet" x1="0" y1="0" x2="0" y2="1">
    <stop offset="0%" stop-color="#6B4A18"/>
    <stop offset="100%" stop-color="#4A3410"/>
  </linearGradient>
  <filter id="dropshadow" x="-50%" y="-50%" width="200%" height="200%">
    <feDropShadow dx="0" dy="0.4" stdDeviation="0.5" flood-color="#000000" flood-opacity="0.35"/>
  </filter>
</defs>

<g filter="url(#dropshadow)" transform="translate(0,7)">

  <!-- mounting hooks at each end -->
  <circle cx="3" cy="8" r="0.9" fill="url(#brass)" stroke="#4A3410" stroke-width="0.3"/>
  <circle cx="2.75" cy="7.75" r="0.22" fill="#F0D080"/>
  <circle cx="29" cy="8" r="0.9" fill="url(#brass)" stroke="#4A3410" stroke-width="0.3"/>
  <circle cx="28.75" cy="7.75" r="0.22" fill="#F0D080"/>

  <!-- draped wire -->
  <path d="M3,8 Q6.5,13.5 10,8 Q13,13.5 16,8 Q19,13.5 22,8 Q25.5,13.5 29,8"
        fill="none" stroke="url(#brassDark)" stroke-width="0.55" stroke-linecap="round"/>

  
    <line x1="6.5" y1="11.9" x2="6.5" y2="13.1" stroke="url(#brassDark)" stroke-width="0.4"/>
    <rect x="5.6" y="13.0" width="1.8" height="1.3" rx="0.25" fill="url(#brass)" stroke="#4A3410" stroke-width="0.2"/>
    <line x1="5.8" y1="13.4" x2="7.2" y2="13.4" stroke="#4A3410" stroke-width="0.15" opacity="0.6"/>
    <line x1="5.8" y1="13.8" x2="7.2" y2="13.8" stroke="#4A3410" stroke-width="0.15" opacity="0.6"/>
    <circle cx="6.5" cy="15.4" r="2.5" fill="#FF9E95" opacity="0.28"/>
    <ellipse cx="6.5" cy="15.5" rx="1.5" ry="1.9" fill="#FF9E95" stroke="#7A1810" stroke-width="0.22"/>
    <path d="M5.9,14.6 C6.3,15.1 7.0,15.2 6.8,15.9 C6.65,16.4 6.2,16.3 6.4,16.7"
          fill="none" stroke="#7A1810" stroke-width="0.2" opacity="0.75"/>
    <ellipse cx="6.05" cy="14.8" rx="0.35" ry="0.5" fill="#FFFFFF" opacity="0.55"/>
    

    <line x1="13" y1="11.9" x2="13" y2="13.1" stroke="url(#brassDark)" stroke-width="0.4"/>
    <rect x="12.1" y="13.0" width="1.8" height="1.3" rx="0.25" fill="url(#brass)" stroke="#4A3410" stroke-width="0.2"/>
    <line x1="12.3" y1="13.4" x2="13.7" y2="13.4" stroke="#4A3410" stroke-width="0.15" opacity="0.6"/>
    <line x1="12.3" y1="13.8" x2="13.7" y2="13.8" stroke="#4A3410" stroke-width="0.15" opacity="0.6"/>
    <circle cx="13" cy="15.4" r="2.5" fill="#FFEB8A" opacity="0.28"/>
    <ellipse cx="13" cy="15.5" rx="1.5" ry="1.9" fill="#FFEB8A" stroke="#8A5A12" stroke-width="0.22"/>
    <path d="M12.4,14.6 C12.8,15.1 13.5,15.2 13.3,15.9 C13.15,16.4 12.7,16.3 12.9,16.7"
          fill="none" stroke="#8A5A12" stroke-width="0.2" opacity="0.75"/>
    <ellipse cx="12.55" cy="14.8" rx="0.35" ry="0.5" fill="#FFFFFF" opacity="0.55"/>
    

    <line x1="19" y1="11.9" x2="19" y2="13.1" stroke="url(#brassDark)" stroke-width="0.4"/>
    <rect x="18.1" y="13.0" width="1.8" height="1.3" rx="0.25" fill="url(#brass)" stroke="#4A3410" stroke-width="0.2"/>
    <line x1="18.3" y1="13.4" x2="19.7" y2="13.4" stroke="#4A3410" stroke-width="0.15" opacity="0.6"/>
    <line x1="18.3" y1="13.8" x2="19.7" y2="13.8" stroke="#4A3410" stroke-width="0.15" opacity="0.6"/>
    <circle cx="19" cy="15.4" r="2.5" fill="#B9F6CA" opacity="0.28"/>
    <ellipse cx="19" cy="15.5" rx="1.5" ry="1.9" fill="#B9F6CA" stroke="#1F5527" stroke-width="0.22"/>
    <path d="M18.4,14.6 C18.8,15.1 19.5,15.2 19.3,15.9 C19.15,16.4 18.7,16.3 18.9,16.7"
          fill="none" stroke="#1F5527" stroke-width="0.2" opacity="0.75"/>
    <ellipse cx="18.55" cy="14.8" rx="0.35" ry="0.5" fill="#FFFFFF" opacity="0.55"/>
    

    <line x1="25.5" y1="11.9" x2="25.5" y2="13.1" stroke="url(#brassDark)" stroke-width="0.4"/>
    <rect x="24.6" y="13.0" width="1.8" height="1.3" rx="0.25" fill="url(#brass)" stroke="#4A3410" stroke-width="0.2"/>
    <line x1="24.8" y1="13.4" x2="26.2" y2="13.4" stroke="#4A3410" stroke-width="0.15" opacity="0.6"/>
    <line x1="24.8" y1="13.8" x2="26.2" y2="13.8" stroke="#4A3410" stroke-width="0.15" opacity="0.6"/>
    <circle cx="25.5" cy="15.4" r="2.5" fill="#BFE6FF" opacity="0.28"/>
    <ellipse cx="25.5" cy="15.5" rx="1.5" ry="1.9" fill="#BFE6FF" stroke="#164C82" stroke-width="0.22"/>
    <path d="M24.9,14.6 C25.3,15.1 26.0,15.2 25.8,15.9 C25.65,16.4 25.2,16.3 25.4,16.7"
          fill="none" stroke="#164C82" stroke-width="0.2" opacity="0.75"/>
    <ellipse cx="25.05" cy="14.8" rx="0.35" ry="0.5" fill="#FFFFFF" opacity="0.55"/>
    
</g>
</svg>