<svg viewBox="0 0 32 32" xmlns="http://www.w3.org/2000/svg">
  <defs>
    <linearGradient id="brassGrad" x1="0" y1="0" x2="0" y2="1">
      <stop offset="0%" stop-color="#F0D080"/>
      <stop offset="55%" stop-color="#C9932F"/>
      <stop offset="100%" stop-color="#7A5518"/>
    </linearGradient>
    <radialGradient id="faceGrad" cx="35%" cy="30%" r="75%">
      <stop offset="0%" stop-color="#E9E9EA"/>
      <stop offset="100%" stop-color="#C6C8CA"/>
    </radialGradient>
    <radialGradient id="patinaGrad" cx="50%" cy="50%" r="50%">
      <stop offset="0%" stop-color="#3B5240" stop-opacity="0.30"/>
      <stop offset="100%" stop-color="#3B5240" stop-opacity="0"/>
    </radialGradient>
    <radialGradient id="rivetGrad" cx="35%" cy="30%" r="75%">
      <stop offset="0%" stop-color="#F0D080"/>
      <stop offset="60%" stop-color="#5C3F14"/>
      <stop offset="100%" stop-color="#4A3410"/>
    </radialGradient>
    <linearGradient id="sheenGrad" x1="0" y1="0" x2="1" y2="1">
      <stop offset="0%" stop-color="#FFFFFF" stop-opacity="0.35"/>
      <stop offset="40%" stop-color="#FFFFFF" stop-opacity="0.08"/>
      <stop offset="100%" stop-color="#FFFFFF" stop-opacity="0"/>
    </linearGradient>
    <radialGradient id="needleDim" cx="50%" cy="20%" r="90%">
      <stop offset="0%" stop-color="#DDE7EF"/>
      <stop offset="100%" stop-color="#8B9BA8"/>
    </radialGradient>
    <radialGradient id="hubDim" cx="35%" cy="30%" r="75%">
      <stop offset="0%" stop-color="#DDE7EF"/>
      <stop offset="100%" stop-color="#8B9BA8"/>
    </radialGradient>
    <filter id="dropShadow" x="-50%" y="-50%" width="200%" height="200%">
      <feDropShadow dx="0" dy="0.4" stdDeviation="0.5" flood-color="#3A2A0F" flood-opacity="0.45"/>
    </filter>
    <radialGradient id="groundShadow" cx="50%" cy="50%" r="50%">
      <stop offset="0%" stop-color="#000000" stop-opacity="0.35"/>
      <stop offset="100%" stop-color="#000000" stop-opacity="0"/>
    </radialGradient>
    

    <radialGradient id="g_off_face" cx="35%" cy="30%" r="75%">
      <stop offset="0%" stop-color="#EDEEEF"/>
      <stop offset="100%" stop-color="#C7CBCD"/>
    </radialGradient>

    <radialGradient id="g_off_needle" cx="50%" cy="20%" r="90%">
      <stop offset="0%" stop-color="#F2F3F4"/>
      <stop offset="55%" stop-color="#9AA3AA"/>
      <stop offset="100%" stop-color="#5B6268"/>
    </radialGradient>
    <radialGradient id="g_off_hub" cx="35%" cy="30%" r="75%">
      <stop offset="0%" stop-color="#F2F3F4"/>
      <stop offset="100%" stop-color="#5B6268"/>
    </radialGradient>
    <radialGradient id="g_off_glyph" cx="35%" cy="25%" r="80%">
      <stop offset="0%" stop-color="#F2F3F4"/>
      <stop offset="60%" stop-color="#9AA3AA"/>
      <stop offset="100%" stop-color="#5B6268"/>
    </radialGradient>
    <radialGradient id="g_off_glow" cx="50%" cy="50%" r="50%">
      <stop offset="0%" stop-color="#C9CDD0" stop-opacity="0.55"/>
      <stop offset="100%" stop-color="#C9CDD0" stop-opacity="0"/>
    </radialGradient>

    <radialGradient id="g_heat_face" cx="35%" cy="30%" r="75%">
      <stop offset="0%" stop-color="#FFEBD2"/>
      <stop offset="100%" stop-color="#FFC08A"/>
    </radialGradient>

    <radialGradient id="g_heat_needle" cx="50%" cy="20%" r="90%">
      <stop offset="0%" stop-color="#FFD9A0"/>
      <stop offset="55%" stop-color="#FF8C42"/>
      <stop offset="100%" stop-color="#B5450F"/>
    </radialGradient>
    <radialGradient id="g_heat_hub" cx="35%" cy="30%" r="75%">
      <stop offset="0%" stop-color="#FFD9A0"/>
      <stop offset="100%" stop-color="#B5450F"/>
    </radialGradient>
    <radialGradient id="g_heat_glyph" cx="35%" cy="25%" r="80%">
      <stop offset="0%" stop-color="#FFD9A0"/>
      <stop offset="60%" stop-color="#FF8C42"/>
      <stop offset="100%" stop-color="#B5450F"/>
    </radialGradient>
    <radialGradient id="g_heat_glow" cx="50%" cy="50%" r="50%">
      <stop offset="0%" stop-color="#FF8C42" stop-opacity="0.55"/>
      <stop offset="100%" stop-color="#FF8C42" stop-opacity="0"/>
    </radialGradient>

    <radialGradient id="g_cool_face" cx="35%" cy="30%" r="75%">
      <stop offset="0%" stop-color="#E3F4FF"/>
      <stop offset="100%" stop-color="#8FC6F2"/>
    </radialGradient>

    <radialGradient id="g_cool_needle" cx="50%" cy="20%" r="90%">
      <stop offset="0%" stop-color="#BFE6FF"/>
      <stop offset="55%" stop-color="#3E86D6"/>
      <stop offset="100%" stop-color="#123A66"/>
    </radialGradient>
    <radialGradient id="g_cool_hub" cx="35%" cy="30%" r="75%">
      <stop offset="0%" stop-color="#BFE6FF"/>
      <stop offset="100%" stop-color="#123A66"/>
    </radialGradient>
    <radialGradient id="g_cool_glyph" cx="35%" cy="25%" r="80%">
      <stop offset="0%" stop-color="#BFE6FF"/>
      <stop offset="60%" stop-color="#3E86D6"/>
      <stop offset="100%" stop-color="#123A66"/>
    </radialGradient>
    <radialGradient id="g_cool_glow" cx="50%" cy="50%" r="50%">
      <stop offset="0%" stop-color="#3E86D6" stop-opacity="0.55"/>
      <stop offset="100%" stop-color="#3E86D6" stop-opacity="0"/>
    </radialGradient>

    <radialGradient id="g_dry_face" cx="35%" cy="30%" r="75%">
      <stop offset="0%" stop-color="#DFF7F2"/>
      <stop offset="100%" stop-color="#7FD4C7"/>
    </radialGradient>

    <radialGradient id="g_dry_needle" cx="50%" cy="20%" r="90%">
      <stop offset="0%" stop-color="#BFF3EA"/>
      <stop offset="55%" stop-color="#2FA6A0"/>
      <stop offset="100%" stop-color="#0E5F59"/>
    </radialGradient>
    <radialGradient id="g_dry_hub" cx="35%" cy="30%" r="75%">
      <stop offset="0%" stop-color="#BFF3EA"/>
      <stop offset="100%" stop-color="#0E5F59"/>
    </radialGradient>
    <radialGradient id="g_dry_glyph" cx="35%" cy="25%" r="80%">
      <stop offset="0%" stop-color="#BFF3EA"/>
      <stop offset="60%" stop-color="#2FA6A0"/>
      <stop offset="100%" stop-color="#0E5F59"/>
    </radialGradient>
    <radialGradient id="g_dry_glow" cx="50%" cy="50%" r="50%">
      <stop offset="0%" stop-color="#2FA6A0" stop-opacity="0.55"/>
      <stop offset="100%" stop-color="#2FA6A0" stop-opacity="0"/>
    </radialGradient>

    <radialGradient id="g_auto_face" cx="35%" cy="30%" r="75%">
      <stop offset="0%" stop-color="#EEFFF0"/>
      <stop offset="100%" stop-color="#A6E6AE"/>
    </radialGradient>

    <radialGradient id="g_auto_needle" cx="50%" cy="20%" r="90%">
      <stop offset="0%" stop-color="#E7FFEA"/>
      <stop offset="55%" stop-color="#5FCB6E"/>
      <stop offset="100%" stop-color="#276B31"/>
    </radialGradient>
    <radialGradient id="g_auto_hub" cx="35%" cy="30%" r="75%">
      <stop offset="0%" stop-color="#E7FFEA"/>
      <stop offset="100%" stop-color="#276B31"/>
    </radialGradient>
    <radialGradient id="g_auto_glyph" cx="35%" cy="25%" r="80%">
      <stop offset="0%" stop-color="#E7FFEA"/>
      <stop offset="60%" stop-color="#5FCB6E"/>
      <stop offset="100%" stop-color="#276B31"/>
    </radialGradient>
    <radialGradient id="g_auto_glow" cx="50%" cy="50%" r="50%">
      <stop offset="0%" stop-color="#5FCB6E" stop-opacity="0.55"/>
      <stop offset="100%" stop-color="#5FCB6E" stop-opacity="0"/>
    </radialGradient>

    <radialGradient id="g_fan_only_face" cx="35%" cy="30%" r="75%">
      <stop offset="0%" stop-color="#F7F8F9"/>
      <stop offset="100%" stop-color="#C7CDD2"/>
    </radialGradient>

    <radialGradient id="g_fan_only_needle" cx="50%" cy="20%" r="90%">
      <stop offset="0%" stop-color="#F2F4F6"/>
      <stop offset="55%" stop-color="#AEB6BD"/>
      <stop offset="100%" stop-color="#5B636A"/>
    </radialGradient>
    <radialGradient id="g_fan_only_hub" cx="35%" cy="30%" r="75%">
      <stop offset="0%" stop-color="#F2F4F6"/>
      <stop offset="100%" stop-color="#5B636A"/>
    </radialGradient>
    <radialGradient id="g_fan_only_glyph" cx="35%" cy="25%" r="80%">
      <stop offset="0%" stop-color="#F2F4F6"/>
      <stop offset="60%" stop-color="#AEB6BD"/>
      <stop offset="100%" stop-color="#5B636A"/>
    </radialGradient>
    <radialGradient id="g_fan_only_glow" cx="50%" cy="50%" r="50%">
      <stop offset="0%" stop-color="#C7CDD2" stop-opacity="0.55"/>
      <stop offset="100%" stop-color="#C7CDD2" stop-opacity="0"/>
    </radialGradient></defs>
  <ellipse cx="16" cy="29.3" rx="8.2" ry="1.6" fill="url(#groundShadow)"/>
<g filter="url(#dropShadow)">
<circle cx="16" cy="16" r="13.6" fill="url(#brassGrad)"/>
<circle cx="16" cy="16" r="11.5" fill="#00000022"/>
<circle cx="24.84" cy="24.84" r="1.15" fill="url(#rivetGrad)" stroke="#4A3410" stroke-width="0.18"/>
<circle cx="24.49" cy="24.49" r="0.28" fill="#F0D080"/>
<circle cx="7.16" cy="24.84" r="1.15" fill="url(#rivetGrad)" stroke="#4A3410" stroke-width="0.18"/>
<circle cx="6.81" cy="24.49" r="0.28" fill="#F0D080"/>
<circle cx="7.16" cy="7.16" r="1.15" fill="url(#rivetGrad)" stroke="#4A3410" stroke-width="0.18"/>
<circle cx="6.81" cy="6.81" r="0.28" fill="#F0D080"/>
<circle cx="24.84" cy="7.16" r="1.15" fill="url(#rivetGrad)" stroke="#4A3410" stroke-width="0.18"/>
<circle cx="24.49" cy="6.81" r="0.28" fill="#F0D080"/>
<circle cx="16" cy="16" r="11.5" fill="url(#g_heat_face)"/>
<circle cx="16" cy="16" r="11.5" fill="url(#patinaGrad)"/>
<circle cx="16" cy="16" r="11.5" fill="url(#g_heat_glow)"/>
<path d="M 17.09,7.24 L 17.27,7.61 L 17.33,8.02 L 17.26,8.42 L 17.07,8.79 L 16.77,9.08 L 16.41,9.26 L 16.00,9.33 L 15.59,9.26 L 15.23,9.08 L 14.93,8.79 L 14.74,8.42 L 14.67,8.02 L 14.73,7.61 L 14.91,7.24" fill="none" stroke="#9C8B6A" stroke-width="0.66" stroke-linecap="round"/>
<line x1="16.00" y1="6.17" x2="16.00" y2="7.73" stroke="#9C8B6A" stroke-width="0.66" stroke-linecap="round"/>
<circle cx="22.93" cy="12.00" r="3.64" fill="url(#g_heat_glow)"/>
<path d="M 22.93,9.27
    C 24.26,10.67 24.54,11.79 23.91,12.77
    C 24.82,12.35 25.10,11.51 24.82,10.67
    C 25.66,11.79 25.38,13.47 24.19,14.31
    C 23.35,14.87 21.88,14.87 21.32,13.82
    C 20.76,12.84 21.18,11.72 21.95,11.16
    C 21.60,12.07 22.09,12.63 22.51,12.42
    C 22.16,11.44 22.30,10.18 22.93,9.27 Z" fill="#FFFFFF" stroke="#231708" stroke-width="0.77" stroke-linejoin="round"/>
<line x1="22.93" y1="18.71" x2="22.93" y2="21.29" stroke="#9C8B6A" stroke-width="0.53" stroke-linecap="round"/>
<line x1="22.93" y1="19.20" x2="22.72" y2="18.87" stroke="#9C8B6A" stroke-width="0.45" stroke-linecap="round"/>
<line x1="22.93" y1="19.20" x2="23.13" y2="18.87" stroke="#9C8B6A" stroke-width="0.45" stroke-linecap="round"/>
<line x1="22.93" y1="20.80" x2="23.13" y2="21.13" stroke="#9C8B6A" stroke-width="0.45" stroke-linecap="round"/>
<line x1="22.93" y1="20.80" x2="22.72" y2="21.13" stroke="#9C8B6A" stroke-width="0.45" stroke-linecap="round"/>
<line x1="24.04" y1="19.36" x2="21.81" y2="20.64" stroke="#9C8B6A" stroke-width="0.53" stroke-linecap="round"/>
<line x1="23.62" y1="19.60" x2="23.80" y2="19.26" stroke="#9C8B6A" stroke-width="0.45" stroke-linecap="round"/>
<line x1="23.62" y1="19.60" x2="24.01" y2="19.61" stroke="#9C8B6A" stroke-width="0.45" stroke-linecap="round"/>
<line x1="22.24" y1="20.40" x2="22.05" y2="20.74" stroke="#9C8B6A" stroke-width="0.45" stroke-linecap="round"/>
<line x1="22.24" y1="20.40" x2="21.85" y2="20.39" stroke="#9C8B6A" stroke-width="0.45" stroke-linecap="round"/>
<line x1="24.04" y1="20.64" x2="21.81" y2="19.36" stroke="#9C8B6A" stroke-width="0.53" stroke-linecap="round"/>
<line x1="23.62" y1="20.40" x2="24.01" y2="20.39" stroke="#9C8B6A" stroke-width="0.45" stroke-linecap="round"/>
<line x1="23.62" y1="20.40" x2="23.80" y2="20.74" stroke="#9C8B6A" stroke-width="0.45" stroke-linecap="round"/>
<line x1="22.24" y1="19.60" x2="21.85" y2="19.61" stroke="#9C8B6A" stroke-width="0.45" stroke-linecap="round"/>
<line x1="22.24" y1="19.60" x2="22.05" y2="19.26" stroke="#9C8B6A" stroke-width="0.45" stroke-linecap="round"/>
<path d="M 16.00,22.56
    C 16.74,23.57 17.09,24.27 17.09,24.59
    A 1.09,1.05 0 1 1 14.91,24.59
    C 14.91,24.27 15.26,23.57 16.00,22.56 Z" fill="#9C8B6A" stroke="none" stroke-width="0.00" stroke-linejoin="round"/>
<path d="M 7.94,19.59 L 8.15,19.22 L 8.47,18.95 L 8.86,18.81 L 9.28,18.81 L 9.68,18.95 L 10.00,19.22 L 10.21,19.59 L 10.28,20.00 L 10.21,20.41 L 10.00,20.78 L 9.68,21.05 L 9.28,21.19 L 8.86,21.19 L 8.47,21.05" fill="none" stroke="#9C8B6A" stroke-width="0.58" stroke-linecap="round"/>
<path d="M 8.47,21.05 L 8.91,21.25 L 8.01,21.21 Z" fill="#9C8B6A"/>
<path d="M 9.07,12.00 C 9.46,11.49 9.40,10.79 9.07,10.44 C 8.74,10.79 8.68,11.49 9.07,12.00 Z" fill="#9C8B6A" stroke="none" stroke-width="0.00" stroke-linejoin="round"/>
<path d="M 9.07,12.00 C 9.32,12.59 9.96,12.89 10.42,12.78 C 10.28,12.32 9.71,11.92 9.07,12.00 Z" fill="#9C8B6A" stroke="none" stroke-width="0.00" stroke-linejoin="round"/>
<path d="M 9.07,12.00 C 8.44,11.92 7.86,12.32 7.72,12.78 C 8.19,12.89 8.83,12.59 9.07,12.00 Z" fill="#9C8B6A" stroke="none" stroke-width="0.00" stroke-linejoin="round"/>
<circle cx="9.07" cy="12.00" r="0.33" fill="#9C8B6A" stroke="none" stroke-width="0.00"/>
<path d="M 22.58,12.20 L 16.27,16.48 L 14.35,16.95 L 15.72,15.52 Z" fill="url(#g_heat_needle)" stroke="#00000030" stroke-width="0.15"/>
<circle cx="16" cy="16" r="2.1" fill="url(#g_heat_hub)" stroke="#4A3410" stroke-width="0.25"/>
<circle cx="15.50" cy="15.50" r="0.55" fill="#FFFFFF" fill-opacity="0.55"/>
<path d="M 7.38,7.95 A 11.50,11.50 0 0 1 22.32,6.22 L 17.73,14.28 A 6.33,6.33 0 0 0 9.10,14.28 Z" fill="url(#sheenGrad)"/>
</g>
</svg>