<svg viewBox="0 0 32 32" xmlns="http://www.w3.org/2000/svg">
  <defs>
    
    <linearGradient id="brass" x1="0" y1="0" x2="0" y2="1">
      <stop offset="0%" stop-color="#F0D080"/>
      <stop offset="55%" stop-color="#C9932F"/>
      <stop offset="100%" stop-color="#7A5518"/>
    </linearGradient>
    <radialGradient id="rivetGrad" cx="35%" cy="30%" r="75%">
      <stop offset="0%" stop-color="#F0D080"/>
      <stop offset="60%" stop-color="#5C3F14"/>
      <stop offset="100%" stop-color="#4A3410"/>
    </radialGradient>
    <radialGradient id="faceGrad" cx="40%" cy="35%" r="70%">
      <stop offset="0%" stop-color="#E9E9EA"/>
      <stop offset="100%" stop-color="#C6C8CA"/>
    </radialGradient>
    <radialGradient id="patinaGrad" cx="70%" cy="75%" r="60%">
      <stop offset="0%" stop-color="#3B5240" stop-opacity="0.26"/>
      <stop offset="100%" stop-color="#3B5240" stop-opacity="0"/>
    </radialGradient>
    <linearGradient id="iceGrad" x1="0" y1="0" x2="0.3" y2="1">
      <stop offset="0%" stop-color="#EAF7FF"/>
      <stop offset="45%" stop-color="#8FC6F2"/>
      <stop offset="100%" stop-color="#2C6FA8"/>
    </linearGradient>
    <radialGradient id="glowBlue" cx="50%" cy="50%" r="50%">
      <stop offset="0%" stop-color="#3E86D6" stop-opacity="0.45"/>
      <stop offset="100%" stop-color="#3E86D6" stop-opacity="0"/>
    </radialGradient>
    <radialGradient id="groundShadow" cx="50%" cy="50%" r="50%">
      <stop offset="0%" stop-color="#000000" stop-opacity="0.35"/>
      <stop offset="100%" stop-color="#000000" stop-opacity="0"/>
    </radialGradient>
    <filter id="dropshadow" x="-50%" y="-50%" width="200%" height="200%">
      <feDropShadow dx="0" dy="0.5" stdDeviation="0.6" flood-color="#000000" flood-opacity="0.4"/>
    </filter>
    
  </defs>
  <ellipse cx="16" cy="29.3" rx="8.2" ry="1.6" fill="url(#groundShadow)"/><circle cx="16.0" cy="16.0" r="13.5" fill="url(#glowBlue)"/><g filter="url(#dropshadow)"><line x1="16.0" y1="16.0" x2="16.00" y2="2.70" stroke="url(#iceGrad)" stroke-width="1.9" stroke-linecap="round"/><line x1="16.00" y1="8.50" x2="13.67" y2="4.77" stroke="url(#iceGrad)" stroke-width="1.4" stroke-linecap="round"/><line x1="16.00" y1="8.50" x2="18.33" y2="4.77" stroke="url(#iceGrad)" stroke-width="1.4" stroke-linecap="round"/><circle cx="16.00" cy="2.70" r="0.7" fill="url(#rivetGrad)" stroke="#4A3410" stroke-width="0.18"/><line x1="16.0" y1="16.0" x2="27.52" y2="9.35" stroke="url(#iceGrad)" stroke-width="1.9" stroke-linecap="round"/><line x1="22.50" y1="12.25" x2="24.56" y2="8.37" stroke="url(#iceGrad)" stroke-width="1.4" stroke-linecap="round"/><line x1="22.50" y1="12.25" x2="26.89" y2="12.40" stroke="url(#iceGrad)" stroke-width="1.4" stroke-linecap="round"/><circle cx="27.52" cy="9.35" r="0.7" fill="url(#rivetGrad)" stroke="#4A3410" stroke-width="0.18"/><line x1="16.0" y1="16.0" x2="27.52" y2="22.65" stroke="url(#iceGrad)" stroke-width="1.9" stroke-linecap="round"/><line x1="22.50" y1="19.75" x2="26.89" y2="19.60" stroke="url(#iceGrad)" stroke-width="1.4" stroke-linecap="round"/><line x1="22.50" y1="19.75" x2="24.56" y2="23.63" stroke="url(#iceGrad)" stroke-width="1.4" stroke-linecap="round"/><circle cx="27.52" cy="22.65" r="0.7" fill="url(#rivetGrad)" stroke="#4A3410" stroke-width="0.18"/><line x1="16.0" y1="16.0" x2="16.00" y2="29.30" stroke="url(#iceGrad)" stroke-width="1.9" stroke-linecap="round"/><line x1="16.00" y1="23.50" x2="18.33" y2="27.23" stroke="url(#iceGrad)" stroke-width="1.4" stroke-linecap="round"/><line x1="16.00" y1="23.50" x2="13.67" y2="27.23" stroke="url(#iceGrad)" stroke-width="1.4" stroke-linecap="round"/><circle cx="16.00" cy="29.30" r="0.7" fill="url(#rivetGrad)" stroke="#4A3410" stroke-width="0.18"/><line x1="16.0" y1="16.0" x2="4.48" y2="22.65" stroke="url(#iceGrad)" stroke-width="1.9" stroke-linecap="round"/><line x1="9.50" y1="19.75" x2="7.44" y2="23.63" stroke="url(#iceGrad)" stroke-width="1.4" stroke-linecap="round"/><line x1="9.50" y1="19.75" x2="5.11" y2="19.60" stroke="url(#iceGrad)" stroke-width="1.4" stroke-linecap="round"/><circle cx="4.48" cy="22.65" r="0.7" fill="url(#rivetGrad)" stroke="#4A3410" stroke-width="0.18"/><line x1="16.0" y1="16.0" x2="4.48" y2="9.35" stroke="url(#iceGrad)" stroke-width="1.9" stroke-linecap="round"/><line x1="9.50" y1="12.25" x2="5.11" y2="12.40" stroke="url(#iceGrad)" stroke-width="1.4" stroke-linecap="round"/><line x1="9.50" y1="12.25" x2="7.44" y2="8.37" stroke="url(#iceGrad)" stroke-width="1.4" stroke-linecap="round"/><circle cx="4.48" cy="9.35" r="0.7" fill="url(#rivetGrad)" stroke="#4A3410" stroke-width="0.18"/><circle cx="16.0" cy="16.0" r="2.0" fill="url(#iceGrad)" stroke="#164C82" stroke-width="0.22"/><circle cx="15.50" cy="15.50" r="0.55" fill="#FFFFFF" opacity="0.65"/></g>
</svg>