<svg viewBox="0 0 32 32" xmlns="http://www.w3.org/2000/svg">
<defs>
    <linearGradient id="brassGrad" x1="0" y1="0" x2="0" y2="1">
      <stop offset="0%" stop-color="#F0D080"/>
      <stop offset="55%" stop-color="#C9932F"/>
      <stop offset="100%" stop-color="#7A5518"/>
    </linearGradient>
    <linearGradient id="brassGradDark" x1="0" y1="0" x2="0" y2="1">
      <stop offset="0%" stop-color="#C9932F"/>
      <stop offset="55%" stop-color="#8A6420"/>
      <stop offset="100%" stop-color="#5C3F14"/>
    </linearGradient>
    <radialGradient id="brassRing" cx="35%" cy="30%" r="75%">
      <stop offset="0%" stop-color="#F0D080"/>
      <stop offset="55%" stop-color="#C9932F"/>
      <stop offset="100%" stop-color="#7A5518"/>
    </radialGradient>
    <radialGradient id="patina" cx="30%" cy="20%" r="70%">
      <stop offset="0%" stop-color="#3B5240" stop-opacity="0.26"/>
      <stop offset="100%" stop-color="#3B5240" stop-opacity="0"/>
    </radialGradient>
    <radialGradient id="groundShadow" cx="50%" cy="50%" r="50%">
      <stop offset="0%" stop-color="#000000" stop-opacity="0.35"/>
      <stop offset="100%" stop-color="#000000" stop-opacity="0"/>
    </radialGradient>
    <filter id="dropshadow" x="-50%" y="-50%" width="200%" height="200%">
      <feDropShadow dx="0" dy="0.5" stdDeviation="0.6" flood-color="#3a2408" flood-opacity="0.45"/>
    </filter>
    <radialGradient id="glowAmber" cx="50%" cy="50%" r="50%">
      <stop offset="0%" stop-color="#F0A623" stop-opacity="0.5"/>
      <stop offset="100%" stop-color="#F0A623" stop-opacity="0"/>
    </radialGradient>
    <radialGradient id="glowGreen" cx="50%" cy="50%" r="50%">
      <stop offset="0%" stop-color="#5FCB6E" stop-opacity="0.45"/>
      <stop offset="100%" stop-color="#5FCB6E" stop-opacity="0"/>
    </radialGradient>
</defs>
<ellipse cx="16" cy="29.2" rx="9.5" ry="1.5" fill="url(#groundShadow)"/>
<ellipse cx="16" cy="13" rx="6" ry="8" fill="url(#glowAmber)"/>
<g filter="url(#dropshadow)">
<line x1="6" y1="27" x2="16" y2="13.5" stroke="#5C3F14" stroke-opacity="0.35" stroke-width="0.4"/><line x1="26" y1="27" x2="16" y2="13.5" stroke="#5C3F14" stroke-opacity="0.35" stroke-width="0.4"/><line x1="24" y1="8" x2="16" y2="13.5" stroke="#5C3F14" stroke-opacity="0.35" stroke-width="0.4"/><line x1="8" y1="8" x2="16" y2="13.5" stroke="#5C3F14" stroke-opacity="0.35" stroke-width="0.4"/><path d="M13.5,13.5 L13.5,10.2 A2.5,2.5 0 0 1 18.5,10.2 L18.5,13.5 Z" fill="#12181D" stroke="#5C3F14" stroke-width="0.3"/><path d="M6,27.5 L6,12 A10,10 0 0 1 26,12 L26,27.5" fill="none" stroke="url(#brassGrad)" stroke-width="2.2"/><circle cx="6.60" cy="8.58" r="0.5" fill="#5C3F14" stroke="#4A3410" stroke-width="0.2"/><circle cx="6.45" cy="8.43" r="0.14" fill="#F0D080"/><circle cx="10.26" cy="3.81" r="0.5" fill="#5C3F14" stroke="#4A3410" stroke-width="0.2"/><circle cx="10.11" cy="3.66" r="0.14" fill="#F0D080"/><circle cx="16.00" cy="2.00" r="0.5" fill="#5C3F14" stroke="#4A3410" stroke-width="0.2"/><circle cx="15.85" cy="1.85" r="0.14" fill="#F0D080"/><circle cx="21.74" cy="3.81" r="0.5" fill="#5C3F14" stroke="#4A3410" stroke-width="0.2"/><circle cx="21.59" cy="3.66" r="0.14" fill="#F0D080"/><circle cx="25.40" cy="8.58" r="0.5" fill="#5C3F14" stroke="#4A3410" stroke-width="0.2"/><circle cx="25.25" cy="8.43" r="0.14" fill="#F0D080"/><line x1="16" y1="8" x2="16" y2="10.6" stroke="url(#brassGradDark)" stroke-width="0.5"/><rect x="14.6" y="10.6" width="2.8" height="2.6" rx="0.5" fill="url(#brassGrad)" stroke="#5C3F14" stroke-width="0.25"/><ellipse cx="16" cy="11.9" rx="0.9" ry="0.9" fill="#FFE9B0" fill-opacity="0.9"/></g>
</svg>
