<svg viewBox="0 0 32 32" xmlns="http://www.w3.org/2000/svg">
  <defs>
    
    <linearGradient id="brass" x1="0" y1="0" x2="0" y2="1">
      <stop offset="0%" stop-color="#F0D080"/>
      <stop offset="55%" stop-color="#C9932F"/>
      <stop offset="100%" stop-color="#7A5518"/>
    </linearGradient>
    <radialGradient id="rivetGrad" cx="35%" cy="30%" r="75%">
      <stop offset="0%" stop-color="#F0D080"/>
      <stop offset="60%" stop-color="#5C3F14"/>
      <stop offset="100%" stop-color="#4A3410"/>
    </radialGradient>
    <radialGradient id="patinaGrad" cx="30%" cy="70%" r="60%">
      <stop offset="0%" stop-color="#3B5240" stop-opacity="0.28"/>
      <stop offset="100%" stop-color="#3B5240" stop-opacity="0"/>
    </radialGradient>
    <linearGradient id="sheen" x1="0" y1="0" x2="1" y2="1">
      <stop offset="0%" stop-color="#FFFFFF" stop-opacity="0.5"/>
      <stop offset="40%" stop-color="#FFFFFF" stop-opacity="0.08"/>
      <stop offset="100%" stop-color="#FFFFFF" stop-opacity="0"/>
    </linearGradient>
    <radialGradient id="hubGrad" cx="35%" cy="30%" r="75%">
      <stop offset="0%" stop-color="#F0D080"/>
      <stop offset="100%" stop-color="#7A5518"/>
    </radialGradient>
    <filter id="dropShadow" x="-50%" y="-50%" width="200%" height="200%">
      <feDropShadow dx="0" dy="0.6" stdDeviation="0.55" flood-color="#000000" flood-opacity="0.38"/>
    </filter>
    <filter id="blur1" x="-50%" y="-50%" width="200%" height="200%">
      <feGaussianBlur stdDeviation="1.1"/>
    </filter>
    <radialGradient id="groundShadow" cx="50%" cy="50%" r="50%">
      <stop offset="0%" stop-color="#000000" stop-opacity="0.35"/>
      <stop offset="100%" stop-color="#000000" stop-opacity="0"/>
    </radialGradient>
    

    <radialGradient id="wedge0" cx="30%" cy="25%" r="90%">
      <stop offset="0%" stop-color="#fe7264"/>
      <stop offset="55%" stop-color="#fe2712"/>
      <stop offset="100%" stop-color="#d01f0e"/>
    </radialGradient>

    <radialGradient id="wedge1" cx="30%" cy="25%" r="90%">
      <stop offset="0%" stop-color="#fd8f5e"/>
      <stop offset="55%" stop-color="#fd5308"/>
      <stop offset="100%" stop-color="#cf4406"/>
    </radialGradient>

    <radialGradient id="wedge2" cx="30%" cy="25%" r="90%">
      <stop offset="0%" stop-color="#fcbc5a"/>
      <stop offset="55%" stop-color="#fb9902"/>
      <stop offset="100%" stop-color="#cd7d01"/>
    </radialGradient>

    <radialGradient id="wedge3" cx="30%" cy="25%" r="90%">
      <stop offset="0%" stop-color="#fbd35a"/>
      <stop offset="55%" stop-color="#fabc02"/>
      <stop offset="100%" stop-color="#cd9a01"/>
    </radialGradient>

    <radialGradient id="wedge4" cx="30%" cy="25%" r="90%">
      <stop offset="0%" stop-color="#fefe7a"/>
      <stop offset="55%" stop-color="#fefe33"/>
      <stop offset="100%" stop-color="#d0d029"/>
    </radialGradient>

    <radialGradient id="wedge5" cx="30%" cy="25%" r="90%">
      <stop offset="0%" stop-color="#e0f175"/>
      <stop offset="55%" stop-color="#d0ea2b"/>
      <stop offset="100%" stop-color="#aabf23"/>
    </radialGradient>

    <radialGradient id="wedge6" cx="30%" cy="25%" r="90%">
      <stop offset="0%" stop-color="#9bcb79"/>
      <stop offset="55%" stop-color="#66b032"/>
      <stop offset="100%" stop-color="#539029"/>
    </radialGradient>

    <radialGradient id="wedge7" cx="30%" cy="25%" r="90%">
      <stop offset="0%" stop-color="#5bb7df"/>
      <stop offset="55%" stop-color="#0391ce"/>
      <stop offset="100%" stop-color="#0276a8"/>
    </radialGradient>

    <radialGradient id="wedge8" cx="30%" cy="25%" r="90%">
      <stop offset="0%" stop-color="#5a87fe"/>
      <stop offset="55%" stop-color="#0247fe"/>
      <stop offset="100%" stop-color="#013ad0"/>
    </radialGradient>

    <radialGradient id="wedge9" cx="30%" cy="25%" r="90%">
      <stop offset="0%" stop-color="#8059c3"/>
      <stop offset="55%" stop-color="#3d01a4"/>
      <stop offset="100%" stop-color="#320086"/>
    </radialGradient>

    <radialGradient id="wedge10" cx="30%" cy="25%" r="90%">
      <stop offset="0%" stop-color="#b059cb"/>
      <stop offset="55%" stop-color="#8601af"/>
      <stop offset="100%" stop-color="#6d008f"/>
    </radialGradient>

    <radialGradient id="wedge11" cx="30%" cy="25%" r="90%">
      <stop offset="0%" stop-color="#c5698a"/>
      <stop offset="55%" stop-color="#a7194b"/>
      <stop offset="100%" stop-color="#88143d"/>
    </radialGradient>
  </defs>
  <ellipse cx="16" cy="29.3" rx="8.2" ry="1.6" fill="url(#groundShadow)"/><g filter="url(#dropShadow)"><circle cx="16.0" cy="16.0" r="13.6" fill="url(#brass)"/><circle cx="16.0" cy="16.0" r="11.5" fill="#00000022"/><circle cx="24.84" cy="24.84" r="1.15" fill="url(#rivetGrad)" stroke="#4A3410" stroke-width="0.18"/><circle cx="24.49" cy="24.49" r="0.28" fill="#F0D080"/><circle cx="7.16" cy="24.84" r="1.15" fill="url(#rivetGrad)" stroke="#4A3410" stroke-width="0.18"/><circle cx="6.81" cy="24.49" r="0.28" fill="#F0D080"/><circle cx="7.16" cy="7.16" r="1.15" fill="url(#rivetGrad)" stroke="#4A3410" stroke-width="0.18"/><circle cx="6.81" cy="6.81" r="0.28" fill="#F0D080"/><circle cx="24.84" cy="7.16" r="1.15" fill="url(#rivetGrad)" stroke="#4A3410" stroke-width="0.18"/><circle cx="24.49" cy="6.81" r="0.28" fill="#F0D080"/><path d="M 16.00,14.40 L 16.00,5.10 A 10.90,10.90 0 0 1 21.45,6.56 L 16.80,14.61 A 1.60,1.60 0 0 0 16.00,14.40 Z" fill="url(#wedge0)" stroke="#2a1d08" stroke-width="0.28" stroke-linejoin="round"/><path d="M 16.80,14.61 L 21.45,6.56 A 10.90,10.90 0 0 1 25.44,10.55 L 17.39,15.20 A 1.60,1.60 0 0 0 16.80,14.61 Z" fill="url(#wedge1)" stroke="#2a1d08" stroke-width="0.28" stroke-linejoin="round"/><path d="M 17.39,15.20 L 25.44,10.55 A 10.90,10.90 0 0 1 26.90,16.00 L 17.60,16.00 A 1.60,1.60 0 0 0 17.39,15.20 Z" fill="url(#wedge2)" stroke="#2a1d08" stroke-width="0.28" stroke-linejoin="round"/><path d="M 17.60,16.00 L 26.90,16.00 A 10.90,10.90 0 0 1 25.44,21.45 L 17.39,16.80 A 1.60,1.60 0 0 0 17.60,16.00 Z" fill="url(#wedge3)" stroke="#2a1d08" stroke-width="0.28" stroke-linejoin="round"/><path d="M 17.39,16.80 L 25.44,21.45 A 10.90,10.90 0 0 1 21.45,25.44 L 16.80,17.39 A 1.60,1.60 0 0 0 17.39,16.80 Z" fill="url(#wedge4)" stroke="#2a1d08" stroke-width="0.28" stroke-linejoin="round"/><path d="M 16.80,17.39 L 21.45,25.44 A 10.90,10.90 0 0 1 16.00,26.90 L 16.00,17.60 A 1.60,1.60 0 0 0 16.80,17.39 Z" fill="url(#wedge5)" stroke="#2a1d08" stroke-width="0.28" stroke-linejoin="round"/><path d="M 16.00,17.60 L 16.00,26.90 A 10.90,10.90 0 0 1 10.55,25.44 L 15.20,17.39 A 1.60,1.60 0 0 0 16.00,17.60 Z" fill="url(#wedge6)" stroke="#2a1d08" stroke-width="0.28" stroke-linejoin="round"/><path d="M 15.20,17.39 L 10.55,25.44 A 10.90,10.90 0 0 1 6.56,21.45 L 14.61,16.80 A 1.60,1.60 0 0 0 15.20,17.39 Z" fill="url(#wedge7)" stroke="#2a1d08" stroke-width="0.28" stroke-linejoin="round"/><path d="M 14.61,16.80 L 6.56,21.45 A 10.90,10.90 0 0 1 5.10,16.00 L 14.40,16.00 A 1.60,1.60 0 0 0 14.61,16.80 Z" fill="url(#wedge8)" stroke="#2a1d08" stroke-width="0.28" stroke-linejoin="round"/><path d="M 14.40,16.00 L 5.10,16.00 A 10.90,10.90 0 0 1 6.56,10.55 L 14.61,15.20 A 1.60,1.60 0 0 0 14.40,16.00 Z" fill="url(#wedge9)" stroke="#2a1d08" stroke-width="0.28" stroke-linejoin="round"/><path d="M 14.61,15.20 L 6.56,10.55 A 10.90,10.90 0 0 1 10.55,6.56 L 15.20,14.61 A 1.60,1.60 0 0 0 14.61,15.20 Z" fill="url(#wedge10)" stroke="#2a1d08" stroke-width="0.28" stroke-linejoin="round"/><path d="M 15.20,14.61 L 10.55,6.56 A 10.90,10.90 0 0 1 16.00,5.10 L 16.00,14.40 A 1.60,1.60 0 0 0 15.20,14.61 Z" fill="url(#wedge11)" stroke="#2a1d08" stroke-width="0.28" stroke-linejoin="round"/><circle cx="16.0" cy="16.0" r="11.05" fill="none" stroke="url(#brass)" stroke-width="0.7"/><path d="M 2.40,16.00 A 13.60,13.60 0 1 0 29.60,16.00 A 13.60,13.60 0 1 0 2.40,16.00 Z M 4.50,16.00 A 11.50,11.50 0 1 1 27.50,16.00 A 11.50,11.50 0 1 1 4.50,16.00 Z" fill="url(#patinaGrad)" fill-rule="evenodd"/><ellipse cx="12.80" cy="12.00" rx="8" ry="5.5" fill="url(#sheen)" transform="rotate(-25 12.80 12.00)"/><circle cx="16.0" cy="16.0" r="1.9" fill="url(#hubGrad)" stroke="#4A3410" stroke-width="0.22"/><circle cx="15.50" cy="15.50" r="0.55" fill="#FFFFFF" opacity="0.55"/></g>
</svg>