<svg viewBox="0 0 32 32" xmlns="http://www.w3.org/2000/svg">
  <defs>
    <linearGradient id="brassGrad" x1="0" y1="0" x2="0" y2="1">
      <stop offset="0%" stop-color="#F0D080"/>
      <stop offset="55%" stop-color="#C9932F"/>
      <stop offset="100%" stop-color="#7A5518"/>
    </linearGradient>
    <linearGradient id="brassGradDark" x1="0" y1="0" x2="0" y2="1">
      <stop offset="0%" stop-color="#C9932F"/>
      <stop offset="55%" stop-color="#8A6420"/>
      <stop offset="100%" stop-color="#5C3F14"/>
    </linearGradient>
    <linearGradient id="doorwayGrad" x1="0" y1="0" x2="0" y2="1">
      <stop offset="0%" stop-color="#33404A"/>
      <stop offset="100%" stop-color="#12181D"/>
    </linearGradient>
    <radialGradient id="patina" cx="35%" cy="30%" r="70%">
      <stop offset="0%" stop-color="#3B5240" stop-opacity="0.30"/>
      <stop offset="100%" stop-color="#3B5240" stop-opacity="0"/>
    </radialGradient>
    <radialGradient id="glowGreen" cx="50%" cy="50%" r="50%">
      <stop offset="0%" stop-color="#5FCB6E" stop-opacity="0.55"/>
      <stop offset="100%" stop-color="#5FCB6E" stop-opacity="0"/>
    </radialGradient>
    <radialGradient id="glowRed" cx="50%" cy="50%" r="50%">
      <stop offset="0%" stop-color="#E5695E" stop-opacity="0.55"/>
      <stop offset="100%" stop-color="#E5695E" stop-opacity="0"/>
    </radialGradient>
    <radialGradient id="glassGeneric" cx="35%" cy="30%" r="75%">
      <stop offset="0%" stop-color="#DDE7EF"/>
      <stop offset="100%" stop-color="#8B9BA8"/>
    </radialGradient>
    <radialGradient id="glassGreen" cx="35%" cy="30%" r="75%">
      <stop offset="0%" stop-color="#E7FFEA"/>
      <stop offset="60%" stop-color="#5FCB6E"/>
      <stop offset="100%" stop-color="#276B31"/>
    </radialGradient>
    <radialGradient id="glassRed" cx="35%" cy="30%" r="75%">
      <stop offset="0%" stop-color="#FFE3E0"/>
      <stop offset="60%" stop-color="#E5695E"/>
      <stop offset="100%" stop-color="#8C2A22"/>
    </radialGradient>
    <radialGradient id="groundShadow" cx="50%" cy="50%" r="50%">
      <stop offset="0%" stop-color="#000000" stop-opacity="0.35"/>
      <stop offset="100%" stop-color="#000000" stop-opacity="0"/>
    </radialGradient>
    <filter id="dropshadow" x="-50%" y="-50%" width="200%" height="200%">
      <feDropShadow dx="0" dy="0.5" stdDeviation="0.6" flood-color="#3a2408" flood-opacity="0.45"/>
    </filter>
</defs>
  <circle cx="16" cy="16" r="13" fill="url(#glowGreen)"/>
  <g filter="url(#dropshadow)">
<ellipse cx="16" cy="29.3" rx="9.5" ry="1.6" fill="url(#groundShadow)"/><path d="M6.0,3.2 H26.0 V29.3 H6.0 Z M8.3,5.3 V27.2 H23.7 V5.3 Z" fill="url(#brassGrad)" stroke="#5C3F14" stroke-width="0.3" fill-rule="evenodd"/><circle cx="7.0" cy="4.3" r="1.0" fill="#5C3F14" stroke="#4A3410" stroke-width="0.25"/><circle cx="6.7" cy="4.0" r="0.28" fill="#F0D080"/><circle cx="25.0" cy="4.3" r="1.0" fill="#5C3F14" stroke="#4A3410" stroke-width="0.25"/><circle cx="24.7" cy="4.0" r="0.28" fill="#F0D080"/><circle cx="7.0" cy="28.2" r="1.0" fill="#5C3F14" stroke="#4A3410" stroke-width="0.25"/><circle cx="6.7" cy="27.9" r="0.28" fill="#F0D080"/><circle cx="25.0" cy="28.2" r="1.0" fill="#5C3F14" stroke="#4A3410" stroke-width="0.25"/><circle cx="24.7" cy="27.9" r="0.28" fill="#F0D080"/><ellipse cx="9.8" cy="8" rx="4.5" ry="7" fill="url(#patina)"/>
    <rect x="8.30" y="5.30" width="15.40" height="21.90" rx="0.4"
          fill="url(#brassGrad)" stroke="#5C3F14" stroke-width="0.3"/>
    <rect x="10.30" y="7.05" width="11.40" height="8.32" rx="0.3"
          fill="url(#brassGradDark)" stroke="#5C3F14" stroke-width="0.2"/>
    <rect x="10.30" y="17.13" width="11.40" height="8.32" rx="0.3"
          fill="url(#brassGradDark)" stroke="#5C3F14" stroke-width="0.2"/>
    <circle cx="16.00" cy="10.34" r="2.46" fill="url(#glassGreen)" stroke="#5C3F14" stroke-width="0.3"/>
    <circle cx="16.00" cy="10.34" r="2.46" fill="none" stroke="#F0D080" stroke-width="0.16" stroke-opacity="0.6"/>
    <circle cx="11.07" cy="18.44" r="0.85" fill="url(#brassGrad)" stroke="#7A5518" stroke-width="0.3"/><circle cx="10.82" cy="18.14" r="0.255" fill="#F6E3AE"/>
  </g>
</svg>
