<svg viewBox="0 0 32 32" xmlns="http://www.w3.org/2000/svg">
  <defs>
    <linearGradient id="brassGrad" x1="0" y1="0" x2="0" y2="1">
      <stop offset="0%" stop-color="#F0D080"/>
      <stop offset="55%" stop-color="#C9932F"/>
      <stop offset="100%" stop-color="#7A5518"/>
    </linearGradient>
    <linearGradient id="brassGradDark" x1="0" y1="0" x2="0" y2="1">
      <stop offset="0%" stop-color="#C9932F"/>
      <stop offset="55%" stop-color="#8A6420"/>
      <stop offset="100%" stop-color="#5C3F14"/>
    </linearGradient>
    <linearGradient id="doorwayGrad" x1="0" y1="0" x2="0" y2="1">
      <stop offset="0%" stop-color="#33404A"/>
      <stop offset="100%" stop-color="#12181D"/>
    </linearGradient>
    <radialGradient id="patina" cx="35%" cy="30%" r="70%">
      <stop offset="0%" stop-color="#3B5240" stop-opacity="0.30"/>
      <stop offset="100%" stop-color="#3B5240" stop-opacity="0"/>
    </radialGradient>
    <radialGradient id="glowGreen" cx="50%" cy="50%" r="50%">
      <stop offset="0%" stop-color="#5FCB6E" stop-opacity="0.55"/>
      <stop offset="100%" stop-color="#5FCB6E" stop-opacity="0"/>
    </radialGradient>
    <radialGradient id="glowRed" cx="50%" cy="50%" r="50%">
      <stop offset="0%" stop-color="#E5695E" stop-opacity="0.55"/>
      <stop offset="100%" stop-color="#E5695E" stop-opacity="0"/>
    </radialGradient>
    <radialGradient id="glassGeneric" cx="35%" cy="30%" r="75%">
      <stop offset="0%" stop-color="#DDE7EF"/>
      <stop offset="100%" stop-color="#8B9BA8"/>
    </radialGradient>
    <radialGradient id="glassGreen" cx="35%" cy="30%" r="75%">
      <stop offset="0%" stop-color="#E7FFEA"/>
      <stop offset="60%" stop-color="#5FCB6E"/>
      <stop offset="100%" stop-color="#276B31"/>
    </radialGradient>
    <radialGradient id="glassRed" cx="35%" cy="30%" r="75%">
      <stop offset="0%" stop-color="#FFE3E0"/>
      <stop offset="60%" stop-color="#E5695E"/>
      <stop offset="100%" stop-color="#8C2A22"/>
    </radialGradient>
    <radialGradient id="groundShadow" cx="50%" cy="50%" r="50%">
      <stop offset="0%" stop-color="#000000" stop-opacity="0.35"/>
      <stop offset="100%" stop-color="#000000" stop-opacity="0"/>
    </radialGradient>
    <filter id="dropshadow" x="-50%" y="-50%" width="200%" height="200%">
      <feDropShadow dx="0" dy="0.5" stdDeviation="0.6" flood-color="#3a2408" flood-opacity="0.45"/>
    </filter>
</defs>
  <circle cx="18" cy="16" r="16" fill="url(#glowRed)"/>
  <g filter="url(#dropshadow)">
<ellipse cx="18" cy="29.3" rx="13.5" ry="1.6" fill="url(#groundShadow)"/><path d="M4.4,3.2 H20.4 V29.3 H4.4 Z M6.6,5.3 V27.2 H18.1 V5.3 Z" fill="url(#brassGrad)" stroke="#5C3F14" stroke-width="0.3" fill-rule="evenodd"/><circle cx="5.4" cy="4.3" r="1.0" fill="#5C3F14" stroke="#4A3410" stroke-width="0.25"/><circle cx="5.1000000000000005" cy="4.0" r="0.28" fill="#F0D080"/><circle cx="19.4" cy="4.3" r="1.0" fill="#5C3F14" stroke="#4A3410" stroke-width="0.25"/><circle cx="19.099999999999998" cy="4.0" r="0.28" fill="#F0D080"/><circle cx="5.4" cy="28.2" r="1.0" fill="#5C3F14" stroke="#4A3410" stroke-width="0.25"/><circle cx="5.1000000000000005" cy="27.9" r="0.28" fill="#F0D080"/><circle cx="19.4" cy="28.2" r="1.0" fill="#5C3F14" stroke="#4A3410" stroke-width="0.25"/><circle cx="19.099999999999998" cy="27.9" r="0.28" fill="#F0D080"/><ellipse cx="8.1" cy="8" rx="4.5" ry="7" fill="url(#patina)"/><rect x="6.6" y="5.3" width="11.500000000000002" height="21.9" fill="url(#doorwayGrad)"/><rect x="20.10" y="6.69" width="1.60" height="1.6" rx="0.5" fill="url(#brassGradDark)" stroke="#4A3410" stroke-width="0.2"/><circle cx="20.099999999999998" cy="7.49" r="0.5" fill="#5C3F14" stroke="#4A3410" stroke-width="0.25"/><circle cx="19.95" cy="7.34" r="0.14" fill="#F0D080"/><circle cx="21.7" cy="7.49" r="0.5" fill="#5C3F14" stroke="#4A3410" stroke-width="0.25"/><circle cx="21.55" cy="7.34" r="0.14" fill="#F0D080"/><rect x="20.10" y="15.45" width="1.60" height="1.6" rx="0.5" fill="url(#brassGradDark)" stroke="#4A3410" stroke-width="0.2"/><circle cx="20.099999999999998" cy="16.25" r="0.5" fill="#5C3F14" stroke="#4A3410" stroke-width="0.25"/><circle cx="19.95" cy="16.1" r="0.14" fill="#F0D080"/><circle cx="21.7" cy="16.25" r="0.5" fill="#5C3F14" stroke="#4A3410" stroke-width="0.25"/><circle cx="21.55" cy="16.1" r="0.14" fill="#F0D080"/><rect x="20.10" y="24.21" width="1.60" height="1.6" rx="0.5" fill="url(#brassGradDark)" stroke="#4A3410" stroke-width="0.2"/><circle cx="20.099999999999998" cy="25.01" r="0.5" fill="#5C3F14" stroke="#4A3410" stroke-width="0.25"/><circle cx="19.95" cy="24.860000000000003" r="0.14" fill="#F0D080"/><circle cx="21.7" cy="25.01" r="0.5" fill="#5C3F14" stroke="#4A3410" stroke-width="0.25"/><circle cx="21.55" cy="24.860000000000003" r="0.14" fill="#F0D080"/>
    <rect x="21.40" y="5.30" width="9.00" height="21.90" rx="0.4"
          fill="url(#brassGrad)" stroke="#5C3F14" stroke-width="0.3"/>
    <rect x="22.57" y="7.05" width="6.66" height="8.32" rx="0.3"
          fill="url(#brassGradDark)" stroke="#5C3F14" stroke-width="0.2"/>
    <rect x="22.57" y="17.13" width="6.66" height="8.32" rx="0.3"
          fill="url(#brassGradDark)" stroke="#5C3F14" stroke-width="0.2"/>
    <circle cx="25.90" cy="10.34" r="1.44" fill="url(#glassRed)" stroke="#5C3F14" stroke-width="0.3"/>
    <circle cx="25.90" cy="10.34" r="1.44" fill="none" stroke="#F0D080" stroke-width="0.16" stroke-opacity="0.6"/>
    <circle cx="23.02" cy="18.44" r="0.85" fill="url(#brassGrad)" stroke="#7A5518" stroke-width="0.3"/><circle cx="22.77" cy="18.14" r="0.255" fill="#F6E3AE"/>
  </g>
</svg>
