<svg viewBox="0 0 32 32" xmlns="http://www.w3.org/2000/svg">
<defs>
  <linearGradient id="brass" x1="0" y1="0" x2="0" y2="1">
    <stop offset="0%" stop-color="#F0D080"/>
    <stop offset="55%" stop-color="#C9932F"/>
    <stop offset="100%" stop-color="#7A5518"/>
  </linearGradient>
  <linearGradient id="brassDark" x1="0" y1="0" x2="0" y2="1">
    <stop offset="0%" stop-color="#C9932F"/>
    <stop offset="60%" stop-color="#8A6420"/>
    <stop offset="100%" stop-color="#5C3F14"/>
  </linearGradient>
  <linearGradient id="rivet" x1="0" y1="0" x2="0" y2="1">
    <stop offset="0%" stop-color="#6B4A18"/>
    <stop offset="100%" stop-color="#4A3410"/>
  </linearGradient>
  <radialGradient id="face" cx="42%" cy="38%" r="70%">
    <stop offset="0%" stop-color="#E9E9EA"/>
    <stop offset="100%" stop-color="#C6C8CA"/>
  </radialGradient>
  <linearGradient id="sheen" x1="0" y1="0" x2="1" y2="1">
    <stop offset="0%" stop-color="#FFFFFF" stop-opacity="0.35"/>
    <stop offset="40%" stop-color="#FFFFFF" stop-opacity="0.05"/>
    <stop offset="100%" stop-color="#FFFFFF" stop-opacity="0"/>
  </linearGradient>
  <linearGradient id="windArc" gradientUnits="userSpaceOnUse" x1="10" y1="0" x2="26" y2="0">
    <stop offset="0%" stop-color="#BFE6FF"/>
    <stop offset="55%" stop-color="#3E86D6"/>
    <stop offset="100%" stop-color="#164C82"/>
  </linearGradient>
  <radialGradient id="moonGlow" cx="50%" cy="50%" r="50%">
    <stop offset="0%" stop-color="#DDE7EF" stop-opacity="0.7"/>
    <stop offset="100%" stop-color="#DDE7EF" stop-opacity="0"/>
  </radialGradient>
  <filter id="dropshadow" x="-50%" y="-50%" width="200%" height="200%">
    <feDropShadow dx="0" dy="0.4" stdDeviation="0.5" flood-color="#000000" flood-opacity="0.35"/>
  </filter>
  <clipPath id="faceClip"><circle cx="16" cy="16" r="11"/></clipPath>
</defs>

<g filter="url(#dropshadow)">
  <circle cx="16" cy="16" r="13.2" fill="url(#brass)" stroke="#4A3410" stroke-width="0.7"/>
  <circle cx="24.91" cy="7.09" r="0.95" fill="url(#rivet)" stroke="#4A3410" stroke-width="0.25"/><circle cx="24.10" cy="7.01" r="0.24" fill="#F0D080"/>
<circle cx="24.91" cy="24.91" r="0.95" fill="url(#rivet)" stroke="#4A3410" stroke-width="0.25"/><circle cx="24.99" cy="24.10" r="0.24" fill="#F0D080"/>
<circle cx="7.09" cy="24.91" r="0.95" fill="url(#rivet)" stroke="#4A3410" stroke-width="0.25"/><circle cx="7.90" cy="24.99" r="0.24" fill="#F0D080"/>
<circle cx="7.09" cy="7.09" r="0.95" fill="url(#rivet)" stroke="#4A3410" stroke-width="0.25"/><circle cx="7.01" cy="7.90" r="0.24" fill="#F0D080"/>
  <circle cx="16" cy="16" r="11" fill="url(#face)" stroke="#8A6420" stroke-width="0.5"/>

  <g clip-path="url(#faceClip)">
    
    <circle cx="16" cy="16" r="1.7" fill="url(#brass)" stroke="#4A3410" stroke-width="0.3"/>
    <path d="M16.00,14.70 C18.60,12.40 17.40,9.60 14.90,11.70 C14.90,11.70 16.00,14.70 16.00,14.70 Z" fill="url(#brassDark)" stroke="#4A3410" stroke-width="0.3"/><path d="M17.13,16.65 C17.82,20.05 20.84,20.41 20.27,17.20 C20.27,17.20 17.13,16.65 17.13,16.65 Z" fill="url(#brassDark)" stroke="#4A3410" stroke-width="0.3"/><path d="M14.87,16.65 C11.58,15.55 9.76,17.99 12.83,19.10 C12.83,19.10 14.87,16.65 14.87,16.65 Z" fill="url(#brassDark)" stroke="#4A3410" stroke-width="0.3"/>
    <circle cx="16" cy="16" r="0.8" fill="url(#brassDark)" stroke="#4A3410" stroke-width="0.2"/>
    <circle cx="15.7" cy="15.7" r="0.22" fill="#F0D080"/>
    <ellipse cx="13" cy="12" rx="7.5" ry="5.5" fill="url(#sheen)"/>
  </g>

  
    <circle cx="22.6" cy="22.6" r="3.1" fill="url(#brass)" stroke="#4A3410" stroke-width="0.4"/>
    <path d="M20.900000000000002,22.3 A2,2 0 1 1 22.900000000000002,24.400000000000002" fill="none" stroke="#4A3410" stroke-width="0.55" stroke-linecap="round"/>
    <polygon points="22.900000000000002,24.400000000000002 21.85,24.150000000000002 22.450000000000003,23.150000000000002" fill="#4A3410"/>
    
</g>
</svg>