<svg viewBox="0 0 32 32" xmlns="http://www.w3.org/2000/svg">
<defs>
    <linearGradient id="brassGrad" x1="0" y1="0" x2="0" y2="1">
      <stop offset="0%" stop-color="#F0D080"/>
      <stop offset="55%" stop-color="#C9932F"/>
      <stop offset="100%" stop-color="#7A5518"/>
    </linearGradient>
    <radialGradient id="brassRing" cx="35%" cy="30%" r="75%">
      <stop offset="0%" stop-color="#F0D080"/>
      <stop offset="55%" stop-color="#C9932F"/>
      <stop offset="100%" stop-color="#7A5518"/>
    </radialGradient>
    <radialGradient id="cavityGrad" cx="40%" cy="35%" r="70%">
      <stop offset="0%" stop-color="#3a4048"/>
      <stop offset="100%" stop-color="#171b1f"/>
    </radialGradient>
    <radialGradient id="patina" cx="30%" cy="22%" r="70%">
      <stop offset="0%" stop-color="#3B5240" stop-opacity="0.26"/>
      <stop offset="100%" stop-color="#3B5240" stop-opacity="0"/>
    </radialGradient>
    <radialGradient id="groundShadow" cx="50%" cy="50%" r="50%">
      <stop offset="0%" stop-color="#000000" stop-opacity="0.35"/>
      <stop offset="100%" stop-color="#000000" stop-opacity="0"/>
    </radialGradient>
    <filter id="dropshadow" x="-50%" y="-50%" width="200%" height="200%">
      <feDropShadow dx="0" dy="0.5" stdDeviation="0.6" flood-color="#3a2408" flood-opacity="0.45"/>
    </filter>
    <clipPath id="grilleClip">
      <rect x="6.6" y="9.0" width="18.8" height="18.4" rx="2.2"/>
    </clipPath>
</defs>
<ellipse cx="16" cy="29.6" rx="9.5" ry="1.5" fill="url(#groundShadow)"/>
<g filter="url(#dropshadow)">
<rect x="5.2" y="5.6" width="21.6" height="23.2" rx="2.6" fill="url(#brassGrad)" stroke="#5C3F14" stroke-width="0.35"/>
<circle cx="7.30" cy="7.70" r="0.85" fill="#5C3F14" stroke="#4A3410" stroke-width="0.22"/><circle cx="7.04" cy="7.45" r="0.24" fill="#F0D080"/>
<circle cx="24.70" cy="7.70" r="0.85" fill="#5C3F14" stroke="#4A3410" stroke-width="0.22"/><circle cx="24.45" cy="7.45" r="0.24" fill="#F0D080"/>
<circle cx="7.30" cy="26.90" r="0.85" fill="#5C3F14" stroke="#4A3410" stroke-width="0.22"/><circle cx="7.04" cy="26.64" r="0.24" fill="#F0D080"/>
<circle cx="24.70" cy="26.90" r="0.85" fill="#5C3F14" stroke="#4A3410" stroke-width="0.22"/><circle cx="24.45" cy="26.64" r="0.24" fill="#F0D080"/>
<ellipse cx="9" cy="9.5" rx="4.5" ry="5.6" fill="url(#patina)"/>
<rect x="9.50" y="7.0" width="1.6" height="1.0" rx="0.4" fill="#5C3F14" fill-opacity="0.55"/>
<rect x="12.30" y="7.0" width="1.6" height="1.0" rx="0.4" fill="#5C3F14" fill-opacity="0.55"/>
<rect x="15.10" y="7.0" width="1.6" height="1.0" rx="0.4" fill="#5C3F14" fill-opacity="0.55"/>
<rect x="17.90" y="7.0" width="1.6" height="1.0" rx="0.4" fill="#5C3F14" fill-opacity="0.55"/>
<rect x="20.70" y="7.0" width="1.6" height="1.0" rx="0.4" fill="#5C3F14" fill-opacity="0.55"/>
<rect x="6.6" y="9.0" width="18.8" height="18.4" rx="2.2" fill="url(#cavityGrad)" stroke="#3A2A0D" stroke-width="0.3"/>
<g transform="translate(16.00 18.20) rotate(0) scale(1.32)"><path d="M -0.55,0 C -1.35,-1.9 -2.15,-3.1 -1.85,-4.7 C -1.55,-6.2 -0.55,-7.1 0.35,-7.35 C 1.25,-7.15 1.85,-6.0 1.55,-4.4 C 1.3,-2.9 1.05,-1.4 0.55,0 Z" fill="#F2F2F0" fill-opacity="0.90"/><path d="M -0.55,0 C -1.35,-1.9 -2.15,-3.1 -1.85,-4.7 C -1.55,-6.2 -0.55,-7.1 0.35,-7.35 C 1.25,-7.15 1.85,-6.0 1.55,-4.4 C 1.3,-2.9 1.05,-1.4 0.55,0 Z" fill="none" stroke="#c9c9c6" stroke-width="0.12" stroke-opacity="0.6"/></g>
<g transform="translate(16.00 18.20) rotate(-72) scale(1.32)"><path d="M -0.55,0 C -1.35,-1.9 -2.15,-3.1 -1.85,-4.7 C -1.55,-6.2 -0.55,-7.1 0.35,-7.35 C 1.25,-7.15 1.85,-6.0 1.55,-4.4 C 1.3,-2.9 1.05,-1.4 0.55,0 Z" fill="#F2F2F0" fill-opacity="0.90"/><path d="M -0.55,0 C -1.35,-1.9 -2.15,-3.1 -1.85,-4.7 C -1.55,-6.2 -0.55,-7.1 0.35,-7.35 C 1.25,-7.15 1.85,-6.0 1.55,-4.4 C 1.3,-2.9 1.05,-1.4 0.55,0 Z" fill="none" stroke="#c9c9c6" stroke-width="0.12" stroke-opacity="0.6"/></g>
<g transform="translate(16.00 18.20) rotate(-144) scale(1.32)"><path d="M -0.55,0 C -1.35,-1.9 -2.15,-3.1 -1.85,-4.7 C -1.55,-6.2 -0.55,-7.1 0.35,-7.35 C 1.25,-7.15 1.85,-6.0 1.55,-4.4 C 1.3,-2.9 1.05,-1.4 0.55,0 Z" fill="#F2F2F0" fill-opacity="0.90"/><path d="M -0.55,0 C -1.35,-1.9 -2.15,-3.1 -1.85,-4.7 C -1.55,-6.2 -0.55,-7.1 0.35,-7.35 C 1.25,-7.15 1.85,-6.0 1.55,-4.4 C 1.3,-2.9 1.05,-1.4 0.55,0 Z" fill="none" stroke="#c9c9c6" stroke-width="0.12" stroke-opacity="0.6"/></g>
<g transform="translate(16.00 18.20) rotate(-216) scale(1.32)"><path d="M -0.55,0 C -1.35,-1.9 -2.15,-3.1 -1.85,-4.7 C -1.55,-6.2 -0.55,-7.1 0.35,-7.35 C 1.25,-7.15 1.85,-6.0 1.55,-4.4 C 1.3,-2.9 1.05,-1.4 0.55,0 Z" fill="#F2F2F0" fill-opacity="0.90"/><path d="M -0.55,0 C -1.35,-1.9 -2.15,-3.1 -1.85,-4.7 C -1.55,-6.2 -0.55,-7.1 0.35,-7.35 C 1.25,-7.15 1.85,-6.0 1.55,-4.4 C 1.3,-2.9 1.05,-1.4 0.55,0 Z" fill="none" stroke="#c9c9c6" stroke-width="0.12" stroke-opacity="0.6"/></g>
<g transform="translate(16.00 18.20) rotate(-288) scale(1.32)"><path d="M -0.55,0 C -1.35,-1.9 -2.15,-3.1 -1.85,-4.7 C -1.55,-6.2 -0.55,-7.1 0.35,-7.35 C 1.25,-7.15 1.85,-6.0 1.55,-4.4 C 1.3,-2.9 1.05,-1.4 0.55,0 Z" fill="#F2F2F0" fill-opacity="0.90"/><path d="M -0.55,0 C -1.35,-1.9 -2.15,-3.1 -1.85,-4.7 C -1.55,-6.2 -0.55,-7.1 0.35,-7.35 C 1.25,-7.15 1.85,-6.0 1.55,-4.4 C 1.3,-2.9 1.05,-1.4 0.55,0 Z" fill="none" stroke="#c9c9c6" stroke-width="0.12" stroke-opacity="0.6"/></g>
<g clip-path="url(#grilleClip)">
<line x1="-33.30" y1="9.00" x2="-14.90" y2="27.40" stroke="url(#brassGrad)" stroke-width="0.2"/>
<line x1="65.30" y1="9.00" x2="46.90" y2="27.40" stroke="url(#brassGrad)" stroke-width="0.2"/>
<line x1="-31.40" y1="9.00" x2="-13.00" y2="27.40" stroke="url(#brassGrad)" stroke-width="0.2"/>
<line x1="63.40" y1="9.00" x2="45.00" y2="27.40" stroke="url(#brassGrad)" stroke-width="0.2"/>
<line x1="-29.50" y1="9.00" x2="-11.10" y2="27.40" stroke="url(#brassGrad)" stroke-width="0.2"/>
<line x1="61.50" y1="9.00" x2="43.10" y2="27.40" stroke="url(#brassGrad)" stroke-width="0.2"/>
<line x1="-27.60" y1="9.00" x2="-9.20" y2="27.40" stroke="url(#brassGrad)" stroke-width="0.2"/>
<line x1="59.60" y1="9.00" x2="41.20" y2="27.40" stroke="url(#brassGrad)" stroke-width="0.2"/>
<line x1="-25.70" y1="9.00" x2="-7.30" y2="27.40" stroke="url(#brassGrad)" stroke-width="0.2"/>
<line x1="57.70" y1="9.00" x2="39.30" y2="27.40" stroke="url(#brassGrad)" stroke-width="0.2"/>
<line x1="-23.80" y1="9.00" x2="-5.40" y2="27.40" stroke="url(#brassGrad)" stroke-width="0.2"/>
<line x1="55.80" y1="9.00" x2="37.40" y2="27.40" stroke="url(#brassGrad)" stroke-width="0.2"/>
<line x1="-21.90" y1="9.00" x2="-3.50" y2="27.40" stroke="url(#brassGrad)" stroke-width="0.2"/>
<line x1="53.90" y1="9.00" x2="35.50" y2="27.40" stroke="url(#brassGrad)" stroke-width="0.2"/>
<line x1="-20.00" y1="9.00" x2="-1.60" y2="27.40" stroke="url(#brassGrad)" stroke-width="0.2"/>
<line x1="52.00" y1="9.00" x2="33.60" y2="27.40" stroke="url(#brassGrad)" stroke-width="0.2"/>
<line x1="-18.10" y1="9.00" x2="0.30" y2="27.40" stroke="url(#brassGrad)" stroke-width="0.2"/>
<line x1="50.10" y1="9.00" x2="31.70" y2="27.40" stroke="url(#brassGrad)" stroke-width="0.2"/>
<line x1="-16.20" y1="9.00" x2="2.20" y2="27.40" stroke="url(#brassGrad)" stroke-width="0.2"/>
<line x1="48.20" y1="9.00" x2="29.80" y2="27.40" stroke="url(#brassGrad)" stroke-width="0.2"/>
<line x1="-14.30" y1="9.00" x2="4.10" y2="27.40" stroke="url(#brassGrad)" stroke-width="0.2"/>
<line x1="46.30" y1="9.00" x2="27.90" y2="27.40" stroke="url(#brassGrad)" stroke-width="0.2"/>
<line x1="-12.40" y1="9.00" x2="6.00" y2="27.40" stroke="url(#brassGrad)" stroke-width="0.2"/>
<line x1="44.40" y1="9.00" x2="26.00" y2="27.40" stroke="url(#brassGrad)" stroke-width="0.2"/>
<line x1="-10.50" y1="9.00" x2="7.90" y2="27.40" stroke="url(#brassGrad)" stroke-width="0.2"/>
<line x1="42.50" y1="9.00" x2="24.10" y2="27.40" stroke="url(#brassGrad)" stroke-width="0.2"/>
<line x1="-8.60" y1="9.00" x2="9.80" y2="27.40" stroke="url(#brassGrad)" stroke-width="0.2"/>
<line x1="40.60" y1="9.00" x2="22.20" y2="27.40" stroke="url(#brassGrad)" stroke-width="0.2"/>
<line x1="-6.70" y1="9.00" x2="11.70" y2="27.40" stroke="url(#brassGrad)" stroke-width="0.2"/>
<line x1="38.70" y1="9.00" x2="20.30" y2="27.40" stroke="url(#brassGrad)" stroke-width="0.2"/>
<line x1="-4.80" y1="9.00" x2="13.60" y2="27.40" stroke="url(#brassGrad)" stroke-width="0.2"/>
<line x1="36.80" y1="9.00" x2="18.40" y2="27.40" stroke="url(#brassGrad)" stroke-width="0.2"/>
<line x1="-2.90" y1="9.00" x2="15.50" y2="27.40" stroke="url(#brassGrad)" stroke-width="0.2"/>
<line x1="34.90" y1="9.00" x2="16.50" y2="27.40" stroke="url(#brassGrad)" stroke-width="0.2"/>
<line x1="-1.00" y1="9.00" x2="17.40" y2="27.40" stroke="url(#brassGrad)" stroke-width="0.2"/>
<line x1="33.00" y1="9.00" x2="14.60" y2="27.40" stroke="url(#brassGrad)" stroke-width="0.2"/>
<line x1="0.90" y1="9.00" x2="19.30" y2="27.40" stroke="url(#brassGrad)" stroke-width="0.2"/>
<line x1="31.10" y1="9.00" x2="12.70" y2="27.40" stroke="url(#brassGrad)" stroke-width="0.2"/>
<line x1="2.80" y1="9.00" x2="21.20" y2="27.40" stroke="url(#brassGrad)" stroke-width="0.2"/>
<line x1="29.20" y1="9.00" x2="10.80" y2="27.40" stroke="url(#brassGrad)" stroke-width="0.2"/>
<line x1="4.70" y1="9.00" x2="23.10" y2="27.40" stroke="url(#brassGrad)" stroke-width="0.2"/>
<line x1="27.30" y1="9.00" x2="8.90" y2="27.40" stroke="url(#brassGrad)" stroke-width="0.2"/>
<line x1="6.60" y1="9.00" x2="25.00" y2="27.40" stroke="url(#brassGrad)" stroke-width="0.2"/>
<line x1="25.40" y1="9.00" x2="7.00" y2="27.40" stroke="url(#brassGrad)" stroke-width="0.2"/>
<line x1="8.50" y1="9.00" x2="26.90" y2="27.40" stroke="url(#brassGrad)" stroke-width="0.2"/>
<line x1="23.50" y1="9.00" x2="5.10" y2="27.40" stroke="url(#brassGrad)" stroke-width="0.2"/>
<line x1="10.40" y1="9.00" x2="28.80" y2="27.40" stroke="url(#brassGrad)" stroke-width="0.2"/>
<line x1="21.60" y1="9.00" x2="3.20" y2="27.40" stroke="url(#brassGrad)" stroke-width="0.2"/>
<line x1="12.30" y1="9.00" x2="30.70" y2="27.40" stroke="url(#brassGrad)" stroke-width="0.2"/>
<line x1="19.70" y1="9.00" x2="1.30" y2="27.40" stroke="url(#brassGrad)" stroke-width="0.2"/>
<line x1="14.20" y1="9.00" x2="32.60" y2="27.40" stroke="url(#brassGrad)" stroke-width="0.2"/>
<line x1="17.80" y1="9.00" x2="-0.60" y2="27.40" stroke="url(#brassGrad)" stroke-width="0.2"/>
<line x1="16.10" y1="9.00" x2="34.50" y2="27.40" stroke="url(#brassGrad)" stroke-width="0.2"/>
<line x1="15.90" y1="9.00" x2="-2.50" y2="27.40" stroke="url(#brassGrad)" stroke-width="0.2"/>
<line x1="18.00" y1="9.00" x2="36.40" y2="27.40" stroke="url(#brassGrad)" stroke-width="0.2"/>
<line x1="14.00" y1="9.00" x2="-4.40" y2="27.40" stroke="url(#brassGrad)" stroke-width="0.2"/>
<line x1="19.90" y1="9.00" x2="38.30" y2="27.40" stroke="url(#brassGrad)" stroke-width="0.2"/>
<line x1="12.10" y1="9.00" x2="-6.30" y2="27.40" stroke="url(#brassGrad)" stroke-width="0.2"/>
<line x1="21.80" y1="9.00" x2="40.20" y2="27.40" stroke="url(#brassGrad)" stroke-width="0.2"/>
<line x1="10.20" y1="9.00" x2="-8.20" y2="27.40" stroke="url(#brassGrad)" stroke-width="0.2"/>
<line x1="23.70" y1="9.00" x2="42.10" y2="27.40" stroke="url(#brassGrad)" stroke-width="0.2"/>
<line x1="8.30" y1="9.00" x2="-10.10" y2="27.40" stroke="url(#brassGrad)" stroke-width="0.2"/>
<line x1="25.60" y1="9.00" x2="44.00" y2="27.40" stroke="url(#brassGrad)" stroke-width="0.2"/>
<line x1="6.40" y1="9.00" x2="-12.00" y2="27.40" stroke="url(#brassGrad)" stroke-width="0.2"/>
<line x1="27.50" y1="9.00" x2="45.90" y2="27.40" stroke="url(#brassGrad)" stroke-width="0.2"/>
<line x1="4.50" y1="9.00" x2="-13.90" y2="27.40" stroke="url(#brassGrad)" stroke-width="0.2"/>
<line x1="29.40" y1="9.00" x2="47.80" y2="27.40" stroke="url(#brassGrad)" stroke-width="0.2"/>
<line x1="2.60" y1="9.00" x2="-15.80" y2="27.40" stroke="url(#brassGrad)" stroke-width="0.2"/>
<line x1="31.30" y1="9.00" x2="49.70" y2="27.40" stroke="url(#brassGrad)" stroke-width="0.2"/>
<line x1="0.70" y1="9.00" x2="-17.70" y2="27.40" stroke="url(#brassGrad)" stroke-width="0.2"/>
<line x1="33.20" y1="9.00" x2="51.60" y2="27.40" stroke="url(#brassGrad)" stroke-width="0.2"/>
<line x1="-1.20" y1="9.00" x2="-19.60" y2="27.40" stroke="url(#brassGrad)" stroke-width="0.2"/>
<line x1="35.10" y1="9.00" x2="53.50" y2="27.40" stroke="url(#brassGrad)" stroke-width="0.2"/>
<line x1="-3.10" y1="9.00" x2="-21.50" y2="27.40" stroke="url(#brassGrad)" stroke-width="0.2"/>
<line x1="37.00" y1="9.00" x2="55.40" y2="27.40" stroke="url(#brassGrad)" stroke-width="0.2"/>
<line x1="-5.00" y1="9.00" x2="-23.40" y2="27.40" stroke="url(#brassGrad)" stroke-width="0.2"/>
<line x1="38.90" y1="9.00" x2="57.30" y2="27.40" stroke="url(#brassGrad)" stroke-width="0.2"/>
<line x1="-6.90" y1="9.00" x2="-25.30" y2="27.40" stroke="url(#brassGrad)" stroke-width="0.2"/>
<line x1="40.80" y1="9.00" x2="59.20" y2="27.40" stroke="url(#brassGrad)" stroke-width="0.2"/>
<line x1="-8.80" y1="9.00" x2="-27.20" y2="27.40" stroke="url(#brassGrad)" stroke-width="0.2"/>
<line x1="42.70" y1="9.00" x2="61.10" y2="27.40" stroke="url(#brassGrad)" stroke-width="0.2"/>
<line x1="-10.70" y1="9.00" x2="-29.10" y2="27.40" stroke="url(#brassGrad)" stroke-width="0.2"/>
<line x1="44.60" y1="9.00" x2="63.00" y2="27.40" stroke="url(#brassGrad)" stroke-width="0.2"/>
<line x1="-12.60" y1="9.00" x2="-31.00" y2="27.40" stroke="url(#brassGrad)" stroke-width="0.2"/>
</g>
<rect x="6.6" y="9.0" width="18.8" height="18.4" rx="2.2" fill="none" stroke="url(#brassGrad)" stroke-width="1.1"/>
<circle cx="6.60" cy="9.00" r="0.45" fill="#5C3F14" stroke="#4A3410" stroke-width="0.22"/><circle cx="6.46" cy="8.87" r="0.13" fill="#F0D080"/>
<circle cx="25.40" cy="9.00" r="0.45" fill="#5C3F14" stroke="#4A3410" stroke-width="0.22"/><circle cx="25.26" cy="8.87" r="0.13" fill="#F0D080"/>
<circle cx="6.60" cy="27.40" r="0.45" fill="#5C3F14" stroke="#4A3410" stroke-width="0.22"/><circle cx="6.46" cy="27.26" r="0.13" fill="#F0D080"/>
<circle cx="25.40" cy="27.40" r="0.45" fill="#5C3F14" stroke="#4A3410" stroke-width="0.22"/><circle cx="25.26" cy="27.26" r="0.13" fill="#F0D080"/>
<circle cx="16.00" cy="9.00" r="0.45" fill="#5C3F14" stroke="#4A3410" stroke-width="0.22"/><circle cx="15.87" cy="8.87" r="0.13" fill="#F0D080"/>
<circle cx="16.00" cy="27.40" r="0.45" fill="#5C3F14" stroke="#4A3410" stroke-width="0.22"/><circle cx="15.87" cy="27.26" r="0.13" fill="#F0D080"/>
<circle cx="6.60" cy="18.20" r="0.45" fill="#5C3F14" stroke="#4A3410" stroke-width="0.22"/><circle cx="6.46" cy="18.06" r="0.13" fill="#F0D080"/>
<circle cx="25.40" cy="18.20" r="0.45" fill="#5C3F14" stroke="#4A3410" stroke-width="0.22"/><circle cx="25.26" cy="18.06" r="0.13" fill="#F0D080"/>
<circle cx="16.0" cy="18.2" r="1.6" fill="url(#brassRing)" stroke="#5C3F14" stroke-width="0.3"/>
<circle cx="15.6" cy="17.8" r="0.4" fill="#F6E3AE"/>
</g>
</svg>