<svg viewBox="0 0 32 32" xmlns="http://www.w3.org/2000/svg">
<defs>
    <linearGradient id="brassGrad" x1="0" y1="0" x2="0" y2="1">
      <stop offset="0%" stop-color="#F0D080"/>
      <stop offset="55%" stop-color="#C9932F"/>
      <stop offset="100%" stop-color="#7A5518"/>
    </linearGradient>
    <linearGradient id="brassGradDark" x1="0" y1="0" x2="0" y2="1">
      <stop offset="0%" stop-color="#C9932F"/>
      <stop offset="55%" stop-color="#8A6420"/>
      <stop offset="100%" stop-color="#5C3F14"/>
    </linearGradient>
    <radialGradient id="brassRing" cx="35%" cy="30%" r="75%">
      <stop offset="0%" stop-color="#F0D080"/>
      <stop offset="55%" stop-color="#C9932F"/>
      <stop offset="100%" stop-color="#7A5518"/>
    </radialGradient>
    <radialGradient id="patina" cx="30%" cy="20%" r="70%">
      <stop offset="0%" stop-color="#3B5240" stop-opacity="0.26"/>
      <stop offset="100%" stop-color="#3B5240" stop-opacity="0"/>
    </radialGradient>
    <radialGradient id="groundShadow" cx="50%" cy="50%" r="50%">
      <stop offset="0%" stop-color="#000000" stop-opacity="0.35"/>
      <stop offset="100%" stop-color="#000000" stop-opacity="0"/>
    </radialGradient>
    <filter id="dropshadow" x="-50%" y="-50%" width="200%" height="200%">
      <feDropShadow dx="0" dy="0.5" stdDeviation="0.6" flood-color="#3a2408" flood-opacity="0.45"/>
    </filter>
    <radialGradient id="glowAmber" cx="50%" cy="50%" r="50%">
      <stop offset="0%" stop-color="#F0A623" stop-opacity="0.5"/>
      <stop offset="100%" stop-color="#F0A623" stop-opacity="0"/>
    </radialGradient>
    <radialGradient id="glowGreen" cx="50%" cy="50%" r="50%">
      <stop offset="0%" stop-color="#5FCB6E" stop-opacity="0.45"/>
      <stop offset="100%" stop-color="#5FCB6E" stop-opacity="0"/>
    </radialGradient>
</defs>
<ellipse cx="16" cy="29.2" rx="9.5" ry="1.5" fill="url(#groundShadow)"/>
<ellipse cx="16" cy="13" rx="8" ry="8" fill="url(#glowGreen)"/>
<g filter="url(#dropshadow)">
<path d="M10.5,20 L21.5,20 L20,26.5 L12,26.5 Z" fill="url(#brassGrad)" stroke="#5C3F14" stroke-width="0.35"/><rect x="9.8" y="18.6" width="12.4" height="2.0" rx="0.6" fill="url(#brassGradDark)" stroke="#5C3F14" stroke-width="0.25"/><circle cx="12.50" cy="23.20" r="0.4" fill="#5C3F14" stroke="#4A3410" stroke-width="0.2"/><circle cx="12.38" cy="23.08" r="0.11" fill="#F0D080"/><circle cx="16.00" cy="23.20" r="0.4" fill="#5C3F14" stroke="#4A3410" stroke-width="0.2"/><circle cx="15.88" cy="23.08" r="0.11" fill="#F0D080"/><circle cx="19.50" cy="23.20" r="0.4" fill="#5C3F14" stroke="#4A3410" stroke-width="0.2"/><circle cx="19.38" cy="23.08" r="0.11" fill="#F0D080"/><ellipse cx="12.5" cy="22" rx="1.6" ry="2.0" fill="url(#patina)"/><path d="M16,19 C16,14.5 16,11.5 16,8.5" fill="none" stroke="#3E6B32" stroke-width="0.7"/><path d="M16,15 C16,15 12.5,13.5 11.5,10.5" fill="none" stroke="#3E6B32" stroke-width="0.6"/><path d="M16,17 C16,17 19.5,15.5 20.5,12.5" fill="none" stroke="#3E6B32" stroke-width="0.6"/><ellipse cx="16" cy="8.2" rx="3.0" ry="1.6500000000000001" fill="#5FA34A" stroke="#2F5A24" stroke-width="0.25" transform="rotate(-10 16 8.2)"/><ellipse cx="11.3" cy="10.0" rx="2.4" ry="1.32" fill="#5FA34A" stroke="#2F5A24" stroke-width="0.25" transform="rotate(-35 11.3 10.0)"/><ellipse cx="20.7" cy="12.0" rx="2.4" ry="1.32" fill="#5FA34A" stroke="#2F5A24" stroke-width="0.25" transform="rotate(35 20.7 12.0)"/><ellipse cx="12.2" cy="15.3" rx="2.1" ry="1.1550000000000002" fill="#5FA34A" stroke="#2F5A24" stroke-width="0.25" transform="rotate(-55 12.2 15.3)"/><ellipse cx="19.9" cy="17.2" rx="2.1" ry="1.1550000000000002" fill="#5FA34A" stroke="#2F5A24" stroke-width="0.25" transform="rotate(55 19.9 17.2)"/><circle cx="16" cy="8.2" r="1.1" fill="#F0A623" stroke="#8A5A12" stroke-width="0.2"/></g>
</svg>
