<svg viewBox="0 0 32 32" xmlns="http://www.w3.org/2000/svg">
<defs>
    <linearGradient id="brassGrad" x1="0" y1="0" x2="0" y2="1">
      <stop offset="0%" stop-color="#F0D080"/>
      <stop offset="55%" stop-color="#C9932F"/>
      <stop offset="100%" stop-color="#7A5518"/>
    </linearGradient>
    <linearGradient id="dimGrad" x1="0" y1="0" x2="0" y2="1">
      <stop offset="0%" stop-color="#9A9088"/>
      <stop offset="55%" stop-color="#766D62"/>
      <stop offset="100%" stop-color="#4E453B"/>
    </linearGradient>
    <linearGradient id="litGrad" x1="0" y1="0" x2="0" y2="1">
      <stop offset="0%" stop-color="#FFEFC0"/>
      <stop offset="55%" stop-color="#F0C060"/>
      <stop offset="100%" stop-color="#C9932F"/>
    </linearGradient>
    <radialGradient id="glowLit" cx="50%" cy="50%" r="50%">
      <stop offset="0%" stop-color="#F0A623" stop-opacity="0.55"/>
      <stop offset="100%" stop-color="#F0A623" stop-opacity="0"/>
    </radialGradient>
    <radialGradient id="patina" cx="25%" cy="20%" r="70%">
      <stop offset="0%" stop-color="#3B5240" stop-opacity="0.22"/>
      <stop offset="100%" stop-color="#3B5240" stop-opacity="0"/>
    </radialGradient>
    <radialGradient id="groundShadow" cx="50%" cy="50%" r="50%">
      <stop offset="0%" stop-color="#000000" stop-opacity="0.35"/>
      <stop offset="100%" stop-color="#000000" stop-opacity="0"/>
    </radialGradient>
    <filter id="dropshadow" x="-50%" y="-50%" width="200%" height="200%">
      <feDropShadow dx="0" dy="0.5" stdDeviation="0.6" flood-color="#3a2408" flood-opacity="0.45"/>
    </filter>
</defs>
<ellipse cx="16" cy="27.6" rx="12.5" ry="1.5" fill="url(#groundShadow)"/>
<ellipse cx="13.5" cy="18.5" rx="9" ry="7" fill="url(#glowLit)"/>
<g filter="url(#dropshadow)">
<rect x="5.0" y="21.4" width="17.00" height="4.00" fill="url(#dimGrad)" stroke="#5C3F14" stroke-width="0.3"/>
<rect x="7.60" y="22.75" width="2.00" height="1.30" rx="0.3" fill="#3a4048" stroke="#5C3F14" stroke-width="0.25"/>
<rect x="13.40" y="22.75" width="2.00" height="1.30" rx="0.3" fill="#3a4048" stroke="#5C3F14" stroke-width="0.25"/>
<rect x="17.40" y="22.75" width="2.00" height="1.30" rx="0.3" fill="#3a4048" stroke="#5C3F14" stroke-width="0.25"/>
<rect x="22.0" y="14.6" width="7.50" height="6.80" fill="url(#dimGrad)" stroke="#5C3F14" stroke-width="0.3"/>
<rect x="21.6" y="13.5" width="8.30" height="1.3" rx="0.3" fill="url(#brassGrad)" stroke="#5C3F14" stroke-width="0.25"/>
<rect x="23.1" y="16.799999999999997" width="5.30" height="4.6" rx="0.3" fill="#2a2f36" stroke="#5C3F14" stroke-width="0.25"/>
<line x1="23.1" y1="17.20" x2="28.4" y2="17.20" stroke="#5C3F14" stroke-width="0.18" stroke-opacity="0.6"/>
<line x1="23.1" y1="18.55" x2="28.4" y2="18.55" stroke="#5C3F14" stroke-width="0.18" stroke-opacity="0.6"/>
<line x1="23.1" y1="19.90" x2="28.4" y2="19.90" stroke="#5C3F14" stroke-width="0.18" stroke-opacity="0.6"/>
<rect x="5.0" y="15.8" width="17.00" height="5.60" fill="url(#litGrad)" stroke="#5C3F14" stroke-width="0.3"/>
<rect x="12.7" y="17.20" width="2.8" height="4.2" rx="0.3" fill="#FFE9B0" stroke="#5C3F14" stroke-width="0.25"/>
<rect x="6.90" y="17.30" width="2.20" height="2.00" rx="0.3" fill="#FFE9B0" stroke="#5C3F14" stroke-width="0.25"/>
<rect x="17.90" y="17.30" width="2.20" height="2.00" rx="0.3" fill="#FFE9B0" stroke="#5C3F14" stroke-width="0.25"/>
<rect x="4.4" y="21.15" width="25.10" height="0.5" fill="#5C3F14" fill-opacity="0.6"/>
<rect x="5.0" y="10.2" width="17.00" height="5.60" fill="url(#dimGrad)" stroke="#5C3F14" stroke-width="0.3"/>
<rect x="7.50" y="11.80" width="2.20" height="2.40" rx="0.3" fill="#3a4048" stroke="#5C3F14" stroke-width="0.25"/>
<rect x="12.40" y="11.80" width="2.20" height="2.40" rx="0.3" fill="#3a4048" stroke="#5C3F14" stroke-width="0.25"/>
<rect x="17.30" y="11.80" width="2.20" height="2.40" rx="0.3" fill="#3a4048" stroke="#5C3F14" stroke-width="0.25"/>
<path d="M13.5,3.2 L22.8,10.2 L4.2,10.2 Z" fill="url(#dimGrad)" stroke="#5C3F14" stroke-width="0.3"/>
<circle cx="13.5" cy="8.6" r="1.15" fill="#3a4048" stroke="#5C3F14" stroke-width="0.25"/>
<circle cx="7.55" cy="10.20" r="0.42" fill="#5C3F14" stroke="#4A3410" stroke-width="0.16"/><circle cx="7.42" cy="10.07" r="0.12" fill="#F0D080"/>
<circle cx="13.50" cy="10.20" r="0.42" fill="#5C3F14" stroke="#4A3410" stroke-width="0.16"/><circle cx="13.37" cy="10.07" r="0.12" fill="#F0D080"/>
<circle cx="19.45" cy="10.20" r="0.42" fill="#5C3F14" stroke="#4A3410" stroke-width="0.16"/><circle cx="19.33" cy="10.07" r="0.12" fill="#F0D080"/>
<circle cx="5.90" cy="11.10" r="0.4" fill="#5C3F14" stroke="#4A3410" stroke-width="0.16"/><circle cx="5.78" cy="10.98" r="0.11" fill="#F0D080"/>
<circle cx="21.10" cy="11.10" r="0.4" fill="#5C3F14" stroke="#4A3410" stroke-width="0.16"/><circle cx="20.98" cy="10.98" r="0.11" fill="#F0D080"/>
<circle cx="5.90" cy="20.50" r="0.4" fill="#5C3F14" stroke="#4A3410" stroke-width="0.16"/><circle cx="5.78" cy="20.38" r="0.11" fill="#F0D080"/>
<circle cx="21.10" cy="20.50" r="0.4" fill="#5C3F14" stroke="#4A3410" stroke-width="0.16"/><circle cx="20.98" cy="20.38" r="0.11" fill="#F0D080"/>
<circle cx="5.90" cy="24.50" r="0.4" fill="#5C3F14" stroke="#4A3410" stroke-width="0.16"/><circle cx="5.78" cy="24.38" r="0.11" fill="#F0D080"/>
<circle cx="21.10" cy="24.50" r="0.4" fill="#5C3F14" stroke="#4A3410" stroke-width="0.16"/><circle cx="20.98" cy="24.38" r="0.11" fill="#F0D080"/>
<circle cx="22.90" cy="20.50" r="0.4" fill="#5C3F14" stroke="#4A3410" stroke-width="0.16"/><circle cx="22.78" cy="20.38" r="0.11" fill="#F0D080"/>
<circle cx="28.60" cy="20.50" r="0.4" fill="#5C3F14" stroke="#4A3410" stroke-width="0.16"/><circle cx="28.48" cy="20.38" r="0.11" fill="#F0D080"/>
<ellipse cx="7.5" cy="11.7" rx="2.6" ry="2.0" fill="url(#patina)"/>
</g>
</svg>