<svg viewBox="0 0 32 32" xmlns="http://www.w3.org/2000/svg">
<defs>
  <linearGradient id="brass" x1="0" y1="0" x2="0" y2="1">
    <stop offset="0%" stop-color="#F0D080"/>
    <stop offset="55%" stop-color="#C9932F"/>
    <stop offset="100%" stop-color="#7A5518"/>
  </linearGradient>
  <linearGradient id="brassDark" x1="0" y1="0" x2="0" y2="1">
    <stop offset="0%" stop-color="#C9932F"/>
    <stop offset="60%" stop-color="#8A6420"/>
    <stop offset="100%" stop-color="#5C3F14"/>
  </linearGradient>
  <linearGradient id="plateBrass" x1="0" y1="0" x2="1" y2="0">
    <stop offset="0%" stop-color="#D9A94A"/>
    <stop offset="45%" stop-color="#B5822A"/>
    <stop offset="100%" stop-color="#6B4A18"/>
  </linearGradient>
  <filter id="dropshadow" x="-50%" y="-50%" width="200%" height="200%">
    <feDropShadow dx="0" dy="0.4" stdDeviation="0.5" flood-color="#000000" flood-opacity="0.35"/>
  </filter>
  <filter id="blur1" x="-50%" y="-50%" width="200%" height="200%">
    <feGaussianBlur stdDeviation="1"/>
  </filter>
</defs>

<ellipse cx="16" cy="26.5" rx="14" ry="1.6" fill="#000000" opacity="0.28" filter="url(#blur1)"/>

<g filter="url(#dropshadow)">
  <!-- bar -->
  <rect x="10.40" y="14.80" width="11.20" height="2.40" rx="1.20" fill="url(#brass)" stroke="#4A3410" stroke-width="0.4"/>
  <rect x="10.40" y="15.00" width="11.20" height="0.5" fill="#FFFFFF" opacity="0.3"/>
  <line x1="13.54" y1="14.95" x2="14.24" y2="17.05" stroke="#4A3410" stroke-width="0.3" opacity="0.6"/>
<line x1="14.54" y1="14.95" x2="15.24" y2="17.05" stroke="#4A3410" stroke-width="0.3" opacity="0.6"/>
<line x1="15.54" y1="14.95" x2="16.24" y2="17.05" stroke="#4A3410" stroke-width="0.3" opacity="0.6"/>
<line x1="16.54" y1="14.95" x2="17.24" y2="17.05" stroke="#4A3410" stroke-width="0.3" opacity="0.6"/>
<line x1="17.54" y1="14.95" x2="18.24" y2="17.05" stroke="#4A3410" stroke-width="0.3" opacity="0.6"/>

  <!-- collars -->
  <rect x="9.25" y="13.90" width="1.1" height="4.2" rx="0.4" fill="url(#brass)" stroke="#4A3410" stroke-width="0.35"/>
  <rect x="21.65" y="13.90" width="1.1" height="4.2" rx="0.4" fill="url(#brass)" stroke="#4A3410" stroke-width="0.35"/>

  <!-- plate stacks -->
  
    <rect x="7.15" y="7.25" width="2.50" height="17.50" rx="1.05" fill="url(#plateBrass)" stroke="#4A3410" stroke-width="0.45"/>
    <rect x="7.30" y="9.00" width="0.40" height="14.00" rx="0.20" fill="#FFFFFF" opacity="0.28"/>
    <rect x="9.15" y="8.65" width="0.5" height="14.70" fill="#4A3410" opacity="0.5"/>
    <ellipse cx="8.40" cy="16.00" rx="0.55" ry="1.57" fill="none" stroke="#5C3F14" stroke-width="0.35" opacity="0.65"/>
    

    <rect x="5.05" y="9.25" width="2.10" height="13.50" rx="0.88" fill="url(#plateBrass)" stroke="#4A3410" stroke-width="0.45"/>
    <rect x="5.20" y="10.60" width="0.34" height="10.80" rx="0.17" fill="#FFFFFF" opacity="0.28"/>
    <rect x="6.65" y="10.33" width="0.5" height="11.34" fill="#4A3410" opacity="0.5"/>
    <ellipse cx="6.10" cy="16.00" rx="0.46" ry="1.21" fill="none" stroke="#5C3F14" stroke-width="0.35" opacity="0.65"/>
    

    <rect x="3.25" y="11.25" width="1.80" height="9.50" rx="0.76" fill="url(#plateBrass)" stroke="#4A3410" stroke-width="0.45"/>
    <rect x="3.40" y="12.20" width="0.29" height="7.60" rx="0.14" fill="#FFFFFF" opacity="0.28"/>
    <rect x="4.55" y="12.01" width="0.5" height="7.98" fill="#4A3410" opacity="0.5"/>
    <ellipse cx="4.15" cy="16.00" rx="0.40" ry="0.85" fill="none" stroke="#5C3F14" stroke-width="0.35" opacity="0.65"/>
    

    <rect x="22.35" y="7.25" width="2.50" height="17.50" rx="1.05" fill="url(#plateBrass)" stroke="#4A3410" stroke-width="0.45"/>
    <rect x="23.73" y="9.00" width="0.40" height="14.00" rx="0.20" fill="#FFFFFF" opacity="0.28"/>
    <rect x="22.35" y="8.65" width="0.5" height="14.70" fill="#4A3410" opacity="0.5"/>
    <ellipse cx="23.60" cy="16.00" rx="0.55" ry="1.57" fill="none" stroke="#5C3F14" stroke-width="0.35" opacity="0.65"/>
    

    <rect x="24.85" y="9.25" width="2.10" height="13.50" rx="0.88" fill="url(#plateBrass)" stroke="#4A3410" stroke-width="0.45"/>
    <rect x="26.00" y="10.60" width="0.34" height="10.80" rx="0.17" fill="#FFFFFF" opacity="0.28"/>
    <rect x="24.85" y="10.33" width="0.5" height="11.34" fill="#4A3410" opacity="0.5"/>
    <ellipse cx="25.90" cy="16.00" rx="0.46" ry="1.21" fill="none" stroke="#5C3F14" stroke-width="0.35" opacity="0.65"/>
    

    <rect x="26.95" y="11.25" width="1.80" height="9.50" rx="0.76" fill="url(#plateBrass)" stroke="#4A3410" stroke-width="0.45"/>
    <rect x="27.94" y="12.20" width="0.29" height="7.60" rx="0.14" fill="#FFFFFF" opacity="0.28"/>
    <rect x="26.95" y="12.01" width="0.5" height="7.98" fill="#4A3410" opacity="0.5"/>
    <ellipse cx="27.85" cy="16.00" rx="0.40" ry="0.85" fill="none" stroke="#5C3F14" stroke-width="0.35" opacity="0.65"/>
    

  <!-- sleeve end caps -->
  <ellipse cx="2.35" cy="16.00" rx="0.90" ry="1.7" fill="url(#brassDark)" stroke="#4A3410" stroke-width="0.4"/>
  <ellipse cx="29.65" cy="16.00" rx="0.90" ry="1.7" fill="url(#brassDark)" stroke="#4A3410" stroke-width="0.4"/>
</g>
</svg>