<svg viewBox="0 0 32 32" xmlns="http://www.w3.org/2000/svg">
<defs>
    <linearGradient id="brassGrad" x1="0" y1="0" x2="0" y2="1">
      <stop offset="0%" stop-color="#F0D080"/>
      <stop offset="55%" stop-color="#C9932F"/>
      <stop offset="100%" stop-color="#7A5518"/>
    </linearGradient>
    <radialGradient id="brassRing" cx="35%" cy="30%" r="75%">
      <stop offset="0%" stop-color="#F0D080"/>
      <stop offset="55%" stop-color="#C9932F"/>
      <stop offset="100%" stop-color="#7A5518"/>
    </radialGradient>
    <radialGradient id="faceGrad" cx="40%" cy="35%" r="70%">
      <stop offset="0%" stop-color="#E9E9EA"/>
      <stop offset="100%" stop-color="#C6C8CA"/>
    </radialGradient>
    <radialGradient id="glassSheen" cx="35%" cy="22%" r="55%">
      <stop offset="0%" stop-color="#FFFFFF" stop-opacity="0.30"/>
      <stop offset="100%" stop-color="#FFFFFF" stop-opacity="0"/>
    </radialGradient>
    <radialGradient id="patina" cx="70%" cy="75%" r="60%">
      <stop offset="0%" stop-color="#3B5240" stop-opacity="0.26"/>
      <stop offset="100%" stop-color="#3B5240" stop-opacity="0"/>
    </radialGradient>
    <radialGradient id="groundShadow" cx="50%" cy="50%" r="50%">
      <stop offset="0%" stop-color="#000000" stop-opacity="0.35"/>
      <stop offset="100%" stop-color="#000000" stop-opacity="0"/>
    </radialGradient>
    <filter id="dropshadow" x="-50%" y="-50%" width="200%" height="200%">
      <feDropShadow dx="0" dy="0.5" stdDeviation="0.6" flood-color="#3a2408" flood-opacity="0.45"/>
    </filter>
</defs>
<ellipse cx="16" cy="30.0" rx="9.5" ry="1.6" fill="url(#groundShadow)"/>
<g filter="url(#dropshadow)">
<g transform="translate(16 16.0) scale(1.22) translate(-16 -16.0)">
<circle cx="16" cy="16.0" r="10.6" fill="url(#brassRing)" stroke="#5C3F14" stroke-width="0.35"/>
<circle cx="21.68" cy="7.89" r="0.7" fill="#5C3F14" stroke="#4A3410" stroke-width="0.22"/><circle cx="21.47" cy="7.68" r="0.20" fill="#F0D080"/>
<circle cx="10.32" cy="7.89" r="0.7" fill="#5C3F14" stroke="#4A3410" stroke-width="0.22"/><circle cx="10.11" cy="7.68" r="0.20" fill="#F0D080"/>
<circle cx="10.32" cy="24.11" r="0.7" fill="#5C3F14" stroke="#4A3410" stroke-width="0.22"/><circle cx="10.11" cy="23.90" r="0.20" fill="#F0D080"/>
<circle cx="21.68" cy="24.11" r="0.7" fill="#5C3F14" stroke="#4A3410" stroke-width="0.22"/><circle cx="21.47" cy="23.90" r="0.20" fill="#F0D080"/>
<ellipse cx="21" cy="21.5" rx="4.5" ry="3.6" fill="url(#patina)"/>
<circle cx="16" cy="16.0" r="9.0" fill="url(#faceGrad)" stroke="#5C3F14" stroke-width="0.3"/>
<path d="M9.10,16.00 A6.9,6.9 0 0 0 10.42,11.94" fill="none" stroke="#3E86D6" stroke-width="1.9" stroke-linecap="butt"/>
<path d="M10.42,11.94 A6.9,6.9 0 0 0 13.87,9.44" fill="none" stroke="#5FCB6E" stroke-width="1.9" stroke-linecap="butt"/>
<path d="M13.87,9.44 A6.9,6.9 0 0 0 18.13,9.44" fill="none" stroke="#F5D34C" stroke-width="1.9" stroke-linecap="butt"/>
<path d="M18.13,9.44 A6.9,6.9 0 0 0 21.58,11.94" fill="none" stroke="#F0A623" stroke-width="1.9" stroke-linecap="butt"/>
<path d="M21.58,11.94 A6.9,6.9 0 0 0 22.90,16.00" fill="none" stroke="#E5695E" stroke-width="1.9" stroke-linecap="butt"/>
<line x1="10.25" y1="16.00" x2="7.95" y2="16.00" stroke="#5C3F14" stroke-width="0.35"/>
<line x1="11.35" y1="12.62" x2="9.49" y2="11.27" stroke="#5C3F14" stroke-width="0.35"/>
<line x1="14.22" y1="10.53" x2="13.51" y2="8.34" stroke="#5C3F14" stroke-width="0.35"/>
<line x1="17.78" y1="10.53" x2="18.49" y2="8.34" stroke="#5C3F14" stroke-width="0.35"/>
<line x1="20.65" y1="12.62" x2="22.51" y2="11.27" stroke="#5C3F14" stroke-width="0.35"/>
<line x1="21.75" y1="16.00" x2="24.05" y2="16.00" stroke="#5C3F14" stroke-width="0.35"/>
<circle cx="16" cy="16.0" r="9.0" fill="url(#glassSheen)"/>
<polygon points="19.39,10.57 15.53,15.71 14.83,17.87 16.47,16.29" fill="url(#brassGrad)" stroke="#5C3F14" stroke-width="0.25"/>
<circle cx="16" cy="16.0" r="1.5" fill="url(#brassRing)" stroke="#5C3F14" stroke-width="0.3"/>
<circle cx="15.6" cy="15.6" r="0.4" fill="#F6E3AE"/>
</g>
</g>
</svg>