<svg viewBox="0 0 32 32" xmlns="http://www.w3.org/2000/svg">
<defs>
  <linearGradient id="brass" x1="0" y1="0" x2="0" y2="1">
    <stop offset="0%" stop-color="#F0D080"/>
    <stop offset="55%" stop-color="#C9932F"/>
    <stop offset="100%" stop-color="#7A5518"/>
  </linearGradient>
  <linearGradient id="brassDark" x1="0" y1="0" x2="0" y2="1">
    <stop offset="0%" stop-color="#C9932F"/>
    <stop offset="60%" stop-color="#8A6420"/>
    <stop offset="100%" stop-color="#5C3F14"/>
  </linearGradient>
  <linearGradient id="rivet" x1="0" y1="0" x2="0" y2="1">
    <stop offset="0%" stop-color="#6B4A18"/>
    <stop offset="100%" stop-color="#4A3410"/>
  </linearGradient>
  <radialGradient id="face" cx="42%" cy="38%" r="70%">
    <stop offset="0%" stop-color="#E9E9EA"/>
    <stop offset="100%" stop-color="#C6C8CA"/>
  </radialGradient>
  <linearGradient id="sheen" x1="0" y1="0" x2="1" y2="1">
    <stop offset="0%" stop-color="#FFFFFF" stop-opacity="0.35"/>
    <stop offset="40%" stop-color="#FFFFFF" stop-opacity="0.05"/>
    <stop offset="100%" stop-color="#FFFFFF" stop-opacity="0"/>
  </linearGradient>

    <radialGradient id="glyph_heating" cx="35%" cy="28%" r="75%">
      <stop offset="0%" stop-color="#FFD9A0"/>
      <stop offset="55%" stop-color="#FF8C42"/>
      <stop offset="100%" stop-color="#B5450F"/>
    </radialGradient>
    <radialGradient id="glow_heating" cx="50%" cy="50%" r="50%">
      <stop offset="0%" stop-color="#FF8C42" stop-opacity="0.55"/>
      <stop offset="100%" stop-color="#FF8C42" stop-opacity="0"/>
    </radialGradient>
    
  <filter id="dropshadow" x="-50%" y="-50%" width="200%" height="200%">
    <feDropShadow dx="0" dy="0.4" stdDeviation="0.5" flood-color="#000000" flood-opacity="0.35"/>
  </filter>
  <clipPath id="faceClip"><circle cx="16" cy="16" r="11"/></clipPath>
</defs>

<g filter="url(#dropshadow)">
  <circle cx="16" cy="16" r="13.2" fill="url(#brass)" stroke="#4A3410" stroke-width="0.7"/>
  <circle cx="24.91" cy="7.09" r="0.95" fill="url(#rivet)" stroke="#4A3410" stroke-width="0.25"/><circle cx="24.10" cy="7.01" r="0.24" fill="#F0D080"/>
<circle cx="24.91" cy="24.91" r="0.95" fill="url(#rivet)" stroke="#4A3410" stroke-width="0.25"/><circle cx="24.99" cy="24.10" r="0.24" fill="#F0D080"/>
<circle cx="7.09" cy="24.91" r="0.95" fill="url(#rivet)" stroke="#4A3410" stroke-width="0.25"/><circle cx="7.90" cy="24.99" r="0.24" fill="#F0D080"/>
<circle cx="7.09" cy="7.09" r="0.95" fill="url(#rivet)" stroke="#4A3410" stroke-width="0.25"/><circle cx="7.01" cy="7.90" r="0.24" fill="#F0D080"/>
  <circle cx="16" cy="16" r="11" fill="url(#face)" stroke="#8A6420" stroke-width="0.5"/>
  <g clip-path="url(#faceClip)">
    
    <circle cx="16" cy="16" r="6.4" fill="url(#glow_heating)"/>
    <path d="M16,9.6 C12.6,13.4 12.4,17 14.6,19.4 C13.6,17.3 14.1,15.2 16,13.9
             C15.2,16 16.6,17.9 18.1,17.3 C19.5,16.7 19.8,14.9 18.7,13.2
             C21.2,15 22,18.2 19.6,20.7 C23,18.7 23.2,14.3 20,11.2
             C20.4,12.7 19.6,13.9 18.5,13.4 C19.1,11.6 17.9,10.1 16,9.6 Z"
          fill="url(#glyph_heating)" stroke="#8A3A0E" stroke-width="0.35"/>
    
    <ellipse cx="13" cy="12" rx="7.5" ry="5.5" fill="url(#sheen)"/>
  </g>
</g>
</svg>