<svg viewBox="0 0 32 32" xmlns="http://www.w3.org/2000/svg">
<defs>
  <linearGradient id="brass" x1="0" y1="0" x2="0" y2="1">
    <stop offset="0%" stop-color="#F0D080"/>
    <stop offset="55%" stop-color="#C9932F"/>
    <stop offset="100%" stop-color="#7A5518"/>
  </linearGradient>
  <linearGradient id="brassDark" x1="0" y1="0" x2="0" y2="1">
    <stop offset="0%" stop-color="#C9932F"/>
    <stop offset="60%" stop-color="#8A6420"/>
    <stop offset="100%" stop-color="#5C3F14"/>
  </linearGradient>
  <linearGradient id="rivet" x1="0" y1="0" x2="0" y2="1">
    <stop offset="0%" stop-color="#6B4A18"/>
    <stop offset="100%" stop-color="#4A3410"/>
  </linearGradient>
  <radialGradient id="face" cx="42%" cy="38%" r="70%">
    <stop offset="0%" stop-color="#E9E9EA"/>
    <stop offset="100%" stop-color="#C6C8CA"/>
  </radialGradient>
  <linearGradient id="sheen" x1="0" y1="0" x2="1" y2="1">
    <stop offset="0%" stop-color="#FFFFFF" stop-opacity="0.35"/>
    <stop offset="40%" stop-color="#FFFFFF" stop-opacity="0.05"/>
    <stop offset="100%" stop-color="#FFFFFF" stop-opacity="0"/>
  </linearGradient>

    <radialGradient id="glyph_cooling" cx="35%" cy="28%" r="75%">
      <stop offset="0%" stop-color="#BFE6FF"/>
      <stop offset="55%" stop-color="#3E86D6"/>
      <stop offset="100%" stop-color="#123A66"/>
    </radialGradient>
    <radialGradient id="glow_cooling" cx="50%" cy="50%" r="50%">
      <stop offset="0%" stop-color="#3E86D6" stop-opacity="0.55"/>
      <stop offset="100%" stop-color="#3E86D6" stop-opacity="0"/>
    </radialGradient>
    
  <filter id="dropshadow" x="-50%" y="-50%" width="200%" height="200%">
    <feDropShadow dx="0" dy="0.4" stdDeviation="0.5" flood-color="#000000" flood-opacity="0.35"/>
  </filter>
  <clipPath id="faceClip"><circle cx="16" cy="16" r="11"/></clipPath>
</defs>

<g filter="url(#dropshadow)">
  <circle cx="16" cy="16" r="13.2" fill="url(#brass)" stroke="#4A3410" stroke-width="0.7"/>
  <circle cx="24.91" cy="7.09" r="0.95" fill="url(#rivet)" stroke="#4A3410" stroke-width="0.25"/><circle cx="24.10" cy="7.01" r="0.24" fill="#F0D080"/>
<circle cx="24.91" cy="24.91" r="0.95" fill="url(#rivet)" stroke="#4A3410" stroke-width="0.25"/><circle cx="24.99" cy="24.10" r="0.24" fill="#F0D080"/>
<circle cx="7.09" cy="24.91" r="0.95" fill="url(#rivet)" stroke="#4A3410" stroke-width="0.25"/><circle cx="7.90" cy="24.99" r="0.24" fill="#F0D080"/>
<circle cx="7.09" cy="7.09" r="0.95" fill="url(#rivet)" stroke="#4A3410" stroke-width="0.25"/><circle cx="7.01" cy="7.90" r="0.24" fill="#F0D080"/>
  <circle cx="16" cy="16" r="11" fill="url(#face)" stroke="#8A6420" stroke-width="0.5"/>
  <g clip-path="url(#faceClip)">
    <circle cx="16" cy="16" r="6.8" fill="url(#glow_cooling)"/><line x1="16.00" y1="22.20" x2="16.00" y2="9.80" stroke="url(#glyph_cooling)" stroke-width="1.0" stroke-linecap="round"/>
<line x1="16.00" y1="19.60" x2="16.92" y2="18.29" stroke="url(#glyph_cooling)" stroke-width="0.7" stroke-linecap="round"/>
<line x1="16.00" y1="19.60" x2="15.08" y2="18.29" stroke="url(#glyph_cooling)" stroke-width="0.7" stroke-linecap="round"/>
<line x1="16.00" y1="12.40" x2="16.92" y2="11.09" stroke="url(#glyph_cooling)" stroke-width="0.7" stroke-linecap="round"/>
<line x1="16.00" y1="12.40" x2="15.08" y2="11.09" stroke="url(#glyph_cooling)" stroke-width="0.7" stroke-linecap="round"/>
<line x1="10.63" y1="19.10" x2="21.37" y2="12.90" stroke="url(#glyph_cooling)" stroke-width="1.0" stroke-linecap="round"/>
<line x1="12.88" y1="17.80" x2="14.48" y2="17.94" stroke="url(#glyph_cooling)" stroke-width="0.7" stroke-linecap="round"/>
<line x1="12.88" y1="17.80" x2="13.56" y2="16.35" stroke="url(#glyph_cooling)" stroke-width="0.7" stroke-linecap="round"/>
<line x1="19.12" y1="14.20" x2="20.71" y2="14.34" stroke="url(#glyph_cooling)" stroke-width="0.7" stroke-linecap="round"/>
<line x1="19.12" y1="14.20" x2="19.79" y2="12.75" stroke="url(#glyph_cooling)" stroke-width="0.7" stroke-linecap="round"/>
<line x1="10.63" y1="12.90" x2="21.37" y2="19.10" stroke="url(#glyph_cooling)" stroke-width="1.0" stroke-linecap="round"/>
<line x1="12.88" y1="14.20" x2="13.56" y2="15.65" stroke="url(#glyph_cooling)" stroke-width="0.7" stroke-linecap="round"/>
<line x1="12.88" y1="14.20" x2="14.48" y2="14.06" stroke="url(#glyph_cooling)" stroke-width="0.7" stroke-linecap="round"/>
<line x1="19.12" y1="17.80" x2="19.79" y2="19.25" stroke="url(#glyph_cooling)" stroke-width="0.7" stroke-linecap="round"/>
<line x1="19.12" y1="17.80" x2="20.71" y2="17.66" stroke="url(#glyph_cooling)" stroke-width="0.7" stroke-linecap="round"/><circle cx="16" cy="16" r="0.9" fill="url(#glyph_cooling)"/>
    <ellipse cx="13" cy="12" rx="7.5" ry="5.5" fill="url(#sheen)"/>
  </g>
</g>
</svg>