<svg viewBox="0 0 32 32" xmlns="http://www.w3.org/2000/svg">
  <defs>
    
    <linearGradient id="brass" x1="0" y1="0" x2="0" y2="1">
      <stop offset="0%" stop-color="#F0D080"/>
      <stop offset="55%" stop-color="#C9932F"/>
      <stop offset="100%" stop-color="#7A5518"/>
    </linearGradient>
    <radialGradient id="rivetGrad" cx="35%" cy="30%" r="75%">
      <stop offset="0%" stop-color="#F0D080"/>
      <stop offset="60%" stop-color="#5C3F14"/>
      <stop offset="100%" stop-color="#4A3410"/>
    </radialGradient>
    <radialGradient id="groundShadow" cx="50%" cy="50%" r="50%">
      <stop offset="0%" stop-color="#000000" stop-opacity="0.35"/>
      <stop offset="100%" stop-color="#000000" stop-opacity="0"/>
    </radialGradient>
    <radialGradient id="glowColorAll" cx="50%" cy="50%" r="50%">
      <stop offset="0%" stop-color="#B0B0B0" stop-opacity="0.35"/>
      <stop offset="100%" stop-color="#B0B0B0" stop-opacity="0"/>
    </radialGradient>
    <filter id="dropshadow" x="-50%" y="-50%" width="200%" height="200%">
      <feDropShadow dx="0" dy="0.5" stdDeviation="0.55" flood-color="#000000" flood-opacity="0.4"/>
    </filter>
    

        <linearGradient id="band_c" x1="0" y1="0" x2="0" y2="1">
          <stop offset="0%" stop-color="#D6F5FF"/>
          <stop offset="35%" stop-color="#D6F5FF"/>
          <stop offset="55%" stop-color="#29B6E8"/>
          <stop offset="100%" stop-color="#0C6E96"/>
        </linearGradient>
        

        <linearGradient id="band_m" x1="0" y1="0" x2="0" y2="1">
          <stop offset="0%" stop-color="#FFD9F0"/>
          <stop offset="35%" stop-color="#FFD9F0"/>
          <stop offset="55%" stop-color="#E8299B"/>
          <stop offset="100%" stop-color="#941A63"/>
        </linearGradient>
        

        <linearGradient id="band_y" x1="0" y1="0" x2="0" y2="1">
          <stop offset="0%" stop-color="#FFFBD0"/>
          <stop offset="35%" stop-color="#FFFBD0"/>
          <stop offset="55%" stop-color="#F5D913"/>
          <stop offset="100%" stop-color="#B89A0A"/>
        </linearGradient>
        

        <linearGradient id="band_k" x1="0" y1="0" x2="0" y2="1">
          <stop offset="0%" stop-color="#9A9A9E"/>
          <stop offset="35%" stop-color="#9A9A9E"/>
          <stop offset="55%" stop-color="#3A3A3D"/>
          <stop offset="100%" stop-color="#0A0A0C"/>
        </linearGradient>
        

    <clipPath id="dropClip">
      <path d="M 16.00,3.20 C 23.91,17.70 24.60,22.70 24.60,23.20 C 24.60,28.00 20.73,29.20 16.00,29.20 C 11.27,29.20 7.40,28.00 7.40,23.20 C 7.40,22.70 8.09,17.70 16.00,3.20 Z"/>
    </clipPath>
    
  </defs>
  <ellipse cx="16.0" cy="29.6" rx="8.6" ry="1.6" fill="url(#groundShadow)"/><circle cx="16.0" cy="16.2" r="13" fill="url(#glowColorAll)"/><g filter="url(#dropshadow)"><g clip-path="url(#dropClip)"><rect x="7.40" y="2.20" width="4.40" height="28.00" fill="url(#band_c)"/><rect x="11.70" y="2.20" width="4.40" height="28.00" fill="url(#band_m)"/><rect x="16.00" y="2.20" width="4.40" height="28.00" fill="url(#band_y)"/><rect x="20.30" y="2.20" width="4.40" height="28.00" fill="url(#band_k)"/></g><path d="M 16.00,3.20 C 23.91,17.70 24.60,22.70 24.60,23.20 C 24.60,28.00 20.73,29.20 16.00,29.20 C 11.27,29.20 7.40,28.00 7.40,23.20 C 7.40,22.70 8.09,17.70 16.00,3.20 Z" fill="none" stroke="#2A2A2A" stroke-width="0.4"/><ellipse cx="13.00" cy="14.20" rx="1.9" ry="6.2" fill="#FFFFFF" opacity="0.4" transform="rotate(-8 13.00 14.20)"/><circle cx="16.00" cy="3.20" r="0.65" fill="url(#rivetGrad)" stroke="#4A3410" stroke-width="0.15"/></g>
</svg>