<svg viewBox="0 0 32 32" xmlns="http://www.w3.org/2000/svg">
<defs>
    <linearGradient id="brassGrad" x1="0" y1="0" x2="0" y2="1">
      <stop offset="0%" stop-color="#F0D080"/>
      <stop offset="55%" stop-color="#C9932F"/>
      <stop offset="100%" stop-color="#7A5518"/>
    </linearGradient>
    <radialGradient id="lensGlow" cx="35%" cy="30%" r="75%">
      <stop offset="0%" stop-color="#FFE9B0"/>
      <stop offset="45%" stop-color="#F0A623"/>
      <stop offset="100%" stop-color="#8A5A12"/>
    </radialGradient>
    <radialGradient id="glowAmber" cx="50%" cy="50%" r="50%">
      <stop offset="0%" stop-color="#F0A623" stop-opacity="0.40"/>
      <stop offset="100%" stop-color="#F0A623" stop-opacity="0"/>
    </radialGradient>
    <filter id="dropshadow" x="-50%" y="-50%" width="200%" height="200%">
      <feDropShadow dx="0" dy="0.5" stdDeviation="0.6" flood-color="#3a2408" flood-opacity="0.45"/>
    </filter>
</defs>
<circle cx="16" cy="17.0" r="13" fill="url(#glowAmber)"/>
<g filter="url(#dropshadow)">
<path d="M 9.01,13.06 L 8.24,13.28 L 7.53,13.64 L 6.91,14.14 L 6.40,14.75 L 6.01,15.45 L 5.78,16.21 L 5.70,17.00 L 5.78,17.79 L 6.01,18.55 L 6.40,19.25 L 6.91,19.86 L 7.53,20.36 L 8.24,20.72 L 9.01,20.94" fill="none" stroke="#2A1D08" stroke-width="1.0" stroke-linecap="round"/>
<path d="M 8.69,11.29 L 7.58,11.60 L 6.55,12.13 L 5.65,12.85 L 4.91,13.73 L 4.36,14.75 L 4.01,15.85 L 3.90,17.00 L 4.01,18.15 L 4.36,19.25 L 4.91,20.27 L 5.65,21.15 L 6.55,21.87 L 7.58,22.40 L 8.69,22.71" fill="none" stroke="#2A1D08" stroke-width="0.85" stroke-linecap="round"/>
<path d="M 8.36,9.42 L 6.89,9.83 L 5.52,10.53 L 4.32,11.49 L 3.34,12.66 L 2.60,14.01 L 2.15,15.47 L 2.00,17.00 L 2.15,18.53 L 2.60,19.99 L 3.34,21.34 L 4.32,22.51 L 5.52,23.47 L 6.89,24.17 L 8.36,24.58" fill="none" stroke="#2A1D08" stroke-width="0.72" stroke-linecap="round"/>
<path d="M 22.99,13.06 L 23.76,13.28 L 24.47,13.64 L 25.09,14.14 L 25.60,14.75 L 25.99,15.45 L 26.22,16.21 L 26.30,17.00 L 26.22,17.79 L 25.99,18.55 L 25.60,19.25 L 25.09,19.86 L 24.47,20.36 L 23.76,20.72 L 22.99,20.94" fill="none" stroke="#2A1D08" stroke-width="1.0" stroke-linecap="round"/>
<path d="M 23.31,11.29 L 24.42,11.60 L 25.45,12.13 L 26.35,12.85 L 27.09,13.73 L 27.64,14.75 L 27.99,15.85 L 28.10,17.00 L 27.99,18.15 L 27.64,19.25 L 27.09,20.27 L 26.35,21.15 L 25.45,21.87 L 24.42,22.40 L 23.31,22.71" fill="none" stroke="#2A1D08" stroke-width="0.85" stroke-linecap="round"/>
<path d="M 23.64,9.42 L 25.11,9.83 L 26.48,10.53 L 27.68,11.49 L 28.66,12.66 L 29.40,14.01 L 29.85,15.47 L 30.00,17.00 L 29.85,18.53 L 29.40,19.99 L 28.66,21.34 L 27.68,22.51 L 26.48,23.47 L 25.11,24.17 L 23.64,24.58" fill="none" stroke="#2A1D08" stroke-width="0.72" stroke-linecap="round"/>

    <g transform="translate(16,17) scale(1.7) translate(-16,-17)">
    <circle cx="16" cy="11.6" r="1.7" fill="url(#lensGlow)" stroke="#5C3F14" stroke-width="0.3"/>
    <path d="M14.5,13.4 L17.9,13.7 L17.3,19.2 L14.0,19.0 Z" fill="url(#brassGrad)" stroke="#5C3F14" stroke-width="0.3"/>
    <path d="M14.7,14.2 L12.4,16.6 L13.0,17.6 L15.4,15.6 Z" fill="url(#brassGrad)" stroke="#5C3F14" stroke-width="0.25"/>
    <path d="M17.7,14.4 L19.4,13.0 L18.8,12.1 L17.0,13.6 Z" fill="url(#brassGrad)" stroke="#5C3F14" stroke-width="0.25"/>
    <path d="M14.3,18.8 L12.2,23.6 L13.6,24.2 L15.6,19.3 Z" fill="url(#brassGrad)" stroke="#5C3F14" stroke-width="0.3"/>
    <path d="M17.1,19.0 L18.2,24.4 L19.6,24.1 L17.9,18.7 Z" fill="url(#brassGrad)" stroke="#5C3F14" stroke-width="0.3"/>
    <ellipse cx="13.3" cy="24.3" rx="1.1" ry="0.5" fill="#5C3F14"/>
    <ellipse cx="19.3" cy="24.4" rx="1.1" ry="0.5" fill="#5C3F14"/>
    </g>
</g>
</svg>