<svg viewBox="0 0 32 32" xmlns="http://www.w3.org/2000/svg">
<defs>
    <linearGradient id="brassGrad" x1="0" y1="0" x2="0" y2="1">
      <stop offset="0%" stop-color="#F0D080"/>
      <stop offset="55%" stop-color="#C9932F"/>
      <stop offset="100%" stop-color="#7A5518"/>
    </linearGradient>
    <linearGradient id="brassGradDark" x1="0" y1="0" x2="0" y2="1">
      <stop offset="0%" stop-color="#C9932F"/>
      <stop offset="55%" stop-color="#8A6420"/>
      <stop offset="100%" stop-color="#5C3F14"/>
    </linearGradient>
    <radialGradient id="brassRing" cx="35%" cy="30%" r="75%">
      <stop offset="0%" stop-color="#F0D080"/>
      <stop offset="55%" stop-color="#C9932F"/>
      <stop offset="100%" stop-color="#7A5518"/>
    </radialGradient>
    <radialGradient id="patina" cx="30%" cy="20%" r="70%">
      <stop offset="0%" stop-color="#3B5240" stop-opacity="0.26"/>
      <stop offset="100%" stop-color="#3B5240" stop-opacity="0"/>
    </radialGradient>
    <radialGradient id="groundShadow" cx="50%" cy="50%" r="50%">
      <stop offset="0%" stop-color="#000000" stop-opacity="0.35"/>
      <stop offset="100%" stop-color="#000000" stop-opacity="0"/>
    </radialGradient>
    <filter id="dropshadow" x="-50%" y="-50%" width="200%" height="200%">
      <feDropShadow dx="0" dy="0.5" stdDeviation="0.6" flood-color="#3a2408" flood-opacity="0.45"/>
    </filter>
    <radialGradient id="glowAmber" cx="50%" cy="50%" r="50%">
      <stop offset="0%" stop-color="#F0A623" stop-opacity="0.5"/>
      <stop offset="100%" stop-color="#F0A623" stop-opacity="0"/>
    </radialGradient>
    <radialGradient id="glowGreen" cx="50%" cy="50%" r="50%">
      <stop offset="0%" stop-color="#5FCB6E" stop-opacity="0.45"/>
      <stop offset="100%" stop-color="#5FCB6E" stop-opacity="0"/>
    </radialGradient>
</defs>
<ellipse cx="16" cy="29.2" rx="9.5" ry="1.5" fill="url(#groundShadow)"/>
<ellipse cx="18" cy="13" rx="8" ry="7" fill="url(#glowGreen)"/>
<g filter="url(#dropshadow)">
<ellipse cx="13.5" cy="24.5" rx="6.5" ry="1.8" fill="url(#brassGrad)" stroke="#5C3F14" stroke-width="0.3"/><circle cx="9.50" cy="24.50" r="0.4" fill="#5C3F14" stroke="#4A3410" stroke-width="0.2"/><circle cx="9.38" cy="24.38" r="0.11" fill="#F0D080"/><circle cx="17.50" cy="24.50" r="0.4" fill="#5C3F14" stroke="#4A3410" stroke-width="0.2"/><circle cx="17.38" cy="24.38" r="0.11" fill="#F0D080"/><rect x="12.7" y="9.5" width="1.6" height="15" rx="0.6" fill="url(#brassGrad)" stroke="#5C3F14" stroke-width="0.25"/><path d="M14.2,11.5 C19,11 21.5,12.5 21.8,15.6" fill="none" stroke="url(#brassGradDark)" stroke-width="1.3" stroke-linecap="round"/><path d="M18.0,15.6 C18.0,13.4 19.7,12.0 21.8,12.0 C23.9,12.0 25.6,13.4 25.6,15.6 Z" fill="#3E8E5A" stroke="#204A32" stroke-width="0.3"/><ellipse cx="21.8" cy="15.6" rx="3.8" ry="1.0" fill="url(#brassGradDark)" stroke="#5C3F14" stroke-width="0.25"/><ellipse cx="20.6" cy="13.6" rx="1.3" ry="0.8" fill="#ffffff" fill-opacity="0.25" transform="rotate(-20 20.6 13.6)"/><ellipse cx="21.8" cy="16.6" rx="3.0" ry="1.2" fill="#FFE9B0" fill-opacity="0.85"/><ellipse cx="9.5" cy="22" rx="2.0" ry="1.6" fill="url(#patina)"/></g>
</svg>
