<svg viewBox="0 0 32 32" xmlns="http://www.w3.org/2000/svg">
<defs>
    <linearGradient id="brassGrad" x1="0" y1="0" x2="0" y2="1">
      <stop offset="0%" stop-color="#F0D080"/>
      <stop offset="55%" stop-color="#C9932F"/>
      <stop offset="100%" stop-color="#7A5518"/>
    </linearGradient>
    <radialGradient id="socketWell" cx="45%" cy="35%" r="75%">
      <stop offset="0%" stop-color="#E8C687"/>
      <stop offset="55%" stop-color="#C9932F"/>
      <stop offset="100%" stop-color="#8A6420"/>
    </radialGradient>
    <radialGradient id="holeGrad" cx="35%" cy="30%" r="75%">
      <stop offset="0%" stop-color="#3A2A12"/>
      <stop offset="100%" stop-color="#1A1108"/>
    </radialGradient>
    <radialGradient id="patina" cx="30%" cy="25%" r="70%">
      <stop offset="0%" stop-color="#3B5240" stop-opacity="0.28"/>
      <stop offset="100%" stop-color="#3B5240" stop-opacity="0"/>
    </radialGradient>
    <radialGradient id="groundShadow" cx="50%" cy="50%" r="50%">
      <stop offset="0%" stop-color="#000000" stop-opacity="0.35"/>
      <stop offset="100%" stop-color="#000000" stop-opacity="0"/>
    </radialGradient>
    <filter id="dropshadow" x="-50%" y="-50%" width="200%" height="200%">
      <feDropShadow dx="0" dy="0.5" stdDeviation="0.6" flood-color="#3a2408" flood-opacity="0.45"/>
    </filter>
</defs>
<ellipse cx="16" cy="29.4" rx="9" ry="1.6" fill="url(#groundShadow)"/>
<g filter="url(#dropshadow)">
<rect x="5.5" y="5.5" width="21" height="21" rx="3.2" fill="url(#brassGrad)" stroke="#5C3F14" stroke-width="0.35"/>
<circle cx="7.6" cy="7.6" r="1.0" fill="#5C3F14" stroke="#4A3410" stroke-width="0.25"/><circle cx="7.30" cy="7.30" r="0.28" fill="#F0D080"/>
<circle cx="24.4" cy="7.6" r="1.0" fill="#5C3F14" stroke="#4A3410" stroke-width="0.25"/><circle cx="24.10" cy="7.30" r="0.28" fill="#F0D080"/>
<circle cx="7.6" cy="24.4" r="1.0" fill="#5C3F14" stroke="#4A3410" stroke-width="0.25"/><circle cx="7.30" cy="24.10" r="0.28" fill="#F0D080"/>
<circle cx="24.4" cy="24.4" r="1.0" fill="#5C3F14" stroke="#4A3410" stroke-width="0.25"/><circle cx="24.10" cy="24.10" r="0.28" fill="#F0D080"/>
<ellipse cx="10" cy="10" rx="5.5" ry="7" fill="url(#patina)"/>
<circle cx="16" cy="16.3" r="7.4" fill="url(#socketWell)" stroke="#3A2A0D" stroke-width="0.3"/>
<circle cx="16" cy="16.3" r="6.9" fill="none" stroke="#FFF3D6" stroke-width="0.3" stroke-opacity="0.5"/>
<circle cx="13.1" cy="16.3" r="1.55" fill="url(#holeGrad)" stroke="#000000" stroke-width="0.2"/>
<circle cx="18.9" cy="16.3" r="1.55" fill="url(#holeGrad)" stroke="#000000" stroke-width="0.2"/>
<circle cx="12.65" cy="15.85" r="0.4" fill="#5C3F14" fill-opacity="0.6"/>
<circle cx="18.45" cy="15.85" r="0.4" fill="#5C3F14" fill-opacity="0.6"/>
<rect x="8.0" y="15.1" width="2.0" height="2.4" rx="0.6" fill="url(#brassGrad)" stroke="#5C3F14" stroke-width="0.25"/>
<rect x="22.0" y="15.1" width="2.0" height="2.4" rx="0.6" fill="url(#brassGrad)" stroke="#5C3F14" stroke-width="0.25"/>
<circle cx="16" cy="7.9" r="0.55" fill="#5C3F14" stroke="#4A3410" stroke-width="0.25"/><circle cx="15.84" cy="7.74" r="0.15" fill="#F0D080"/>
<circle cx="16" cy="24.1" r="0.55" fill="#5C3F14" stroke="#4A3410" stroke-width="0.25"/><circle cx="15.84" cy="23.94" r="0.15" fill="#F0D080"/>
</g>
</svg>