<svg viewBox="0 0 32 32" xmlns="http://www.w3.org/2000/svg">
<defs>
    <linearGradient id="brassGrad" x1="0" y1="0" x2="0" y2="1">
      <stop offset="0%" stop-color="#F0D080"/>
      <stop offset="55%" stop-color="#C9932F"/>
      <stop offset="100%" stop-color="#7A5518"/>
    </linearGradient>
    <linearGradient id="brassGradDark" x1="0" y1="0" x2="0" y2="1">
      <stop offset="0%" stop-color="#C9932F"/>
      <stop offset="55%" stop-color="#8A6420"/>
      <stop offset="100%" stop-color="#5C3F14"/>
    </linearGradient>
    <radialGradient id="socketWell" cx="45%" cy="35%" r="75%">
      <stop offset="0%" stop-color="#E8C687"/>
      <stop offset="55%" stop-color="#C9932F"/>
      <stop offset="100%" stop-color="#8A6420"/>
    </radialGradient>
    <linearGradient id="slotGrad" x1="0" y1="0" x2="1" y2="0">
      <stop offset="0%" stop-color="#1A1108"/>
      <stop offset="45%" stop-color="#3A2A12"/>
      <stop offset="100%" stop-color="#1A1108"/>
    </linearGradient>
    <radialGradient id="groundHole" cx="40%" cy="35%" r="70%">
      <stop offset="0%" stop-color="#3A2A12"/>
      <stop offset="100%" stop-color="#1A1108"/>
    </radialGradient>
    <radialGradient id="patina" cx="30%" cy="25%" r="70%">
      <stop offset="0%" stop-color="#3B5240" stop-opacity="0.28"/>
      <stop offset="100%" stop-color="#3B5240" stop-opacity="0"/>
    </radialGradient>
    <radialGradient id="groundShadow" cx="50%" cy="50%" r="50%">
      <stop offset="0%" stop-color="#000000" stop-opacity="0.35"/>
      <stop offset="100%" stop-color="#000000" stop-opacity="0"/>
    </radialGradient>
    <filter id="dropshadow" x="-50%" y="-50%" width="200%" height="200%">
      <feDropShadow dx="0" dy="0.5" stdDeviation="0.6" flood-color="#3a2408" flood-opacity="0.45"/>
    </filter>
</defs>
<ellipse cx="16" cy="29.4" rx="9" ry="1.6" fill="url(#groundShadow)"/>
<g filter="url(#dropshadow)">
<rect x="5.5" y="5.5" width="21" height="21" rx="3.2" fill="url(#brassGrad)" stroke="#5C3F14" stroke-width="0.35"/>
<circle cx="7.6" cy="7.6" r="1.0" fill="#5C3F14" stroke="#4A3410" stroke-width="0.25"/><circle cx="7.30" cy="7.30" r="0.28" fill="#F0D080"/>
<circle cx="24.4" cy="7.6" r="1.0" fill="#5C3F14" stroke="#4A3410" stroke-width="0.25"/><circle cx="24.10" cy="7.30" r="0.28" fill="#F0D080"/>
<circle cx="7.6" cy="24.4" r="1.0" fill="#5C3F14" stroke="#4A3410" stroke-width="0.25"/><circle cx="7.30" cy="24.10" r="0.28" fill="#F0D080"/>
<circle cx="24.4" cy="24.4" r="1.0" fill="#5C3F14" stroke="#4A3410" stroke-width="0.25"/><circle cx="24.10" cy="24.10" r="0.28" fill="#F0D080"/>
<ellipse cx="10" cy="10" rx="5.5" ry="7" fill="url(#patina)"/>
<rect x="9.2" y="9.2" width="13.6" height="13.6" rx="2.4" fill="url(#socketWell)" stroke="#3A2A0D" stroke-width="0.3"/>
<rect x="9.6" y="9.6" width="12.8" height="12.8" rx="2.1" fill="none" stroke="#FFF3D6" stroke-width="0.3" stroke-opacity="0.5"/>
<rect x="12.7" y="12.0" width="1.7" height="5.3" rx="0.6" fill="url(#slotGrad)" stroke="#000000" stroke-width="0.2"/>
<rect x="17.1" y="12.9" width="1.7" height="4.4" rx="0.6" fill="url(#slotGrad)" stroke="#000000" stroke-width="0.2"/>
<rect x="12.7" y="12.0" width="1.7" height="0.4" rx="0.2" fill="#FFF3D6" fill-opacity="0.6"/>
<rect x="17.1" y="12.9" width="1.7" height="0.4" rx="0.2" fill="#FFF3D6" fill-opacity="0.6"/>
<circle cx="16" cy="19.6" r="1.5" fill="url(#groundHole)" stroke="#000000" stroke-width="0.2"/>
<circle cx="15.55" cy="19.15" r="0.4" fill="#5C3F14" fill-opacity="0.6"/>
<circle cx="16" cy="7.9" r="0.55" fill="#5C3F14" stroke="#4A3410" stroke-width="0.25"/><circle cx="15.84" cy="7.74" r="0.15" fill="#F0D080"/>
<circle cx="16" cy="24.1" r="0.55" fill="#5C3F14" stroke="#4A3410" stroke-width="0.25"/><circle cx="15.84" cy="23.94" r="0.15" fill="#F0D080"/>
</g>
</svg>