<svg viewBox="0 0 32 32" xmlns="http://www.w3.org/2000/svg">
<defs>
    <linearGradient id="brassGrad" x1="0" y1="0" x2="0" y2="1">
      <stop offset="0%" stop-color="#F0D080"/>
      <stop offset="55%" stop-color="#C9932F"/>
      <stop offset="100%" stop-color="#7A5518"/>
    </linearGradient>
    <linearGradient id="brassGradDark" x1="0" y1="0" x2="0" y2="1">
      <stop offset="0%" stop-color="#C9932F"/>
      <stop offset="55%" stop-color="#8A6420"/>
      <stop offset="100%" stop-color="#5C3F14"/>
    </linearGradient>
    <radialGradient id="brassRing" cx="35%" cy="30%" r="75%">
      <stop offset="0%" stop-color="#F0D080"/>
      <stop offset="55%" stop-color="#C9932F"/>
      <stop offset="100%" stop-color="#7A5518"/>
    </radialGradient>
    <linearGradient id="screenGlass" x1="0" y1="0" x2="0" y2="1">
      <stop offset="0%" stop-color="#26292d"/><stop offset="100%" stop-color="#15171a"/>
    </linearGradient>
    <radialGradient id="lampGlass" cx="35%" cy="30%" r="75%">
      <stop offset="0%" stop-color="#FFE3E0"/><stop offset="45%" stop-color="#E5695E"/><stop offset="100%" stop-color="#8C2A22"/>
    </radialGradient>
    <radialGradient id="haloGlow" cx="50%" cy="50%" r="50%">
      <stop offset="0%" stop-color="#E5695E" stop-opacity="0"/>
      <stop offset="100%" stop-color="#E5695E" stop-opacity="0"/>
    </radialGradient>
    <radialGradient id="patina" cx="25%" cy="20%" r="70%">
      <stop offset="0%" stop-color="#3B5240" stop-opacity="0.24"/>
      <stop offset="100%" stop-color="#3B5240" stop-opacity="0"/>
    </radialGradient>
    <radialGradient id="groundShadow" cx="50%" cy="50%" r="50%">
      <stop offset="0%" stop-color="#000000" stop-opacity="0.35"/>
      <stop offset="100%" stop-color="#000000" stop-opacity="0"/>
    </radialGradient>
    <filter id="dropshadow" x="-50%" y="-50%" width="200%" height="200%">
      <feDropShadow dx="0" dy="0.5" stdDeviation="0.6" flood-color="#3a2408" flood-opacity="0.45"/>
    </filter>
</defs>
<ellipse cx="16" cy="27.4" rx="10.5" ry="1.4" fill="url(#groundShadow)"/>
<ellipse cx="16" cy="16" rx="12" ry="8" fill="url(#haloGlow)"/>
<g filter="url(#dropshadow)">
<rect x="5.0" y="24.6" width="2.4" height="1.4" rx="0.4" fill="url(#brassGradDark)"/>
<rect x="24.6" y="24.6" width="2.4" height="1.4" rx="0.4" fill="url(#brassGradDark)"/>
<rect x="3.2" y="9.4" width="25.6" height="15.6" rx="1.6" fill="url(#brassGrad)" stroke="#5C3F14" stroke-width="0.35"/>
<circle cx="5.10" cy="11.20" r="0.7" fill="#5C3F14" stroke="#4A3410" stroke-width="0.2"/><circle cx="4.89" cy="10.99" r="0.20" fill="#F0D080"/>
<circle cx="26.90" cy="11.20" r="0.7" fill="#5C3F14" stroke="#4A3410" stroke-width="0.2"/><circle cx="26.69" cy="10.99" r="0.20" fill="#F0D080"/>
<circle cx="5.10" cy="23.20" r="0.7" fill="#5C3F14" stroke="#4A3410" stroke-width="0.2"/><circle cx="4.89" cy="22.99" r="0.20" fill="#F0D080"/>
<circle cx="26.90" cy="23.20" r="0.7" fill="#5C3F14" stroke="#4A3410" stroke-width="0.2"/><circle cx="26.69" cy="22.99" r="0.20" fill="#F0D080"/>
<ellipse cx="7" cy="12" rx="3.6" ry="2.6" fill="url(#patina)"/>
<rect x="6.4" y="11.6" width="14.6" height="4.6" rx="0.6" fill="url(#screenGlass)" stroke="#12140f" stroke-width="0.3"/>
<rect x="7.30" y="13.6" width="3.2" height="1.0" rx="0.3" fill="#BFFFC8" fill-opacity="0.0"/>
<rect x="11.90" y="13.6" width="2.2" height="1.0" rx="0.3" fill="#BFFFC8" fill-opacity="0.0"/>
<rect x="16.50" y="13.6" width="4.0" height="1.0" rx="0.3" fill="#BFFFC8" fill-opacity="0.0"/>
<circle cx="6.0" cy="17.7" r="1.3" fill="url(#lampGlass)" stroke="#5C3F14" stroke-width="0.25"/>
<circle cx="6.0" cy="17.7" r="1.3" fill="none" stroke="#F0D080" stroke-width="0.15" stroke-opacity="0.5"/>
<circle cx="24.6" cy="14.0" r="3.1" fill="url(#brassRing)" stroke="#5C3F14" stroke-width="0.3"/>
<circle cx="24.6" cy="14.0" r="2.2" fill="none" stroke="#5C3F14" stroke-width="0.2" stroke-opacity="0.4"/>
<line x1="27.00" y1="14.00" x2="27.60" y2="14.00" stroke="#5C3F14" stroke-width="0.25"/>
<line x1="26.30" y1="15.70" x2="26.72" y2="16.12" stroke="#5C3F14" stroke-width="0.25"/>
<line x1="24.60" y1="16.40" x2="24.60" y2="17.00" stroke="#5C3F14" stroke-width="0.25"/>
<line x1="22.90" y1="15.70" x2="22.48" y2="16.12" stroke="#5C3F14" stroke-width="0.25"/>
<line x1="22.20" y1="14.00" x2="21.60" y2="14.00" stroke="#5C3F14" stroke-width="0.25"/>
<line x1="22.90" y1="12.30" x2="22.48" y2="11.88" stroke="#5C3F14" stroke-width="0.25"/>
<line x1="24.60" y1="11.60" x2="24.60" y2="11.00" stroke="#5C3F14" stroke-width="0.25"/>
<line x1="26.30" y1="12.30" x2="26.72" y2="11.88" stroke="#5C3F14" stroke-width="0.25"/>
<circle cx="24.1" cy="13.5" r="0.5" fill="#F6E3AE"/>
<rect x="5.5" y="19.0" width="21.0" height="0.6" fill="#5C3F14" fill-opacity="0.55"/>
<rect x="5.5" y="19.6" width="21.0" height="0.35" fill="#F0D080" fill-opacity="0.4"/>
<rect x="20.6" y="21.2" width="6.2" height="1.9" rx="0.4" fill="url(#brassGradDark)" stroke="#5C3F14" stroke-width="0.2"/>
<rect x="20.95" y="21.55" width="1.1" height="1.2" rx="0.25" fill="#3A2A0D" fill-opacity="0.6"/>
<rect x="23.15" y="21.55" width="1.1" height="1.2" rx="0.25" fill="#3A2A0D" fill-opacity="0.6"/>
<rect x="25.35" y="21.55" width="1.1" height="1.2" rx="0.25" fill="#3A2A0D" fill-opacity="0.6"/>
</g>
</svg>