<svg xmlns="http://www.w3.org/2000/svg" width="32" height="32" viewBox="0 0 32 32">
  <defs>
    <linearGradient id="metal-shutter" x1="0" y1="0" x2="0" y2="1">
      <stop offset="0%" stop-color="#F0D080"/>
      <stop offset="55%" stop-color="#C9932F"/>
      <stop offset="100%" stop-color="#7A5518"/>
    </linearGradient>
    <linearGradient id="metal-slat" x1="0" y1="0" x2="0" y2="1">
      <stop offset="0%" stop-color="#DDB667"/>
      <stop offset="55%" stop-color="#B37F2C"/>
      <stop offset="100%" stop-color="#623F13"/>
    </linearGradient>
    <linearGradient id="glass-shutter" x1="0" y1="0" x2="0" y2="1">
      <stop offset="0%" stop-color="#E7F3E4"/>
      <stop offset="100%" stop-color="#8FBE96"/>
    </linearGradient>
    <radialGradient id="patina" cx="50%" cy="50%" r="50%">
      <stop offset="0%" stop-color="#3B5240" stop-opacity="0.35"/>
      <stop offset="100%" stop-color="#3B5240" stop-opacity="0"/>
    </radialGradient>
    <filter id="soft-shutter" x="-40%" y="-40%" width="180%" height="180%">
      <feGaussianBlur stdDeviation="0.7"/>
    </filter>
    <filter id="drop-shutter" x="-40%" y="-40%" width="180%" height="180%">
      <feDropShadow dx="0" dy="0.5" stdDeviation="0.5" flood-color="#000" flood-opacity="0.35"/>
    </filter>
  </defs>

  <ellipse cx="16" cy="30.6" rx="10.6" ry="0.9" fill="#000" opacity="0.17" filter="url(#soft-shutter)"/>

  <g filter="url(#drop-shutter)">
    <rect x="4.5" y="3" width="23" height="3.2" rx="1.4" fill="url(#metal-shutter)" stroke="#4A3410" stroke-width="0.3"/>
    <rect x="4.5" y="4.5" width="23" height="0.4" fill="#000" opacity="0.35"/>
    <rect x="4.5" y="3.5" width="23" height="0.5" fill="#fff" opacity="0.25"/>

    <line x1="28.90" y1="4.60" x2="29.50" y2="4.60" stroke="url(#metal-shutter)" stroke-width="1.1" stroke-linecap="round"/>
    <line x1="28.46" y1="5.66" x2="28.88" y2="6.08" stroke="url(#metal-shutter)" stroke-width="1.1" stroke-linecap="round"/>
    <line x1="27.40" y1="6.10" x2="27.40" y2="6.70" stroke="url(#metal-shutter)" stroke-width="1.1" stroke-linecap="round"/>
    <line x1="26.34" y1="5.66" x2="25.92" y2="6.08" stroke="url(#metal-shutter)" stroke-width="1.1" stroke-linecap="round"/>
    <line x1="25.90" y1="4.60" x2="25.30" y2="4.60" stroke="url(#metal-shutter)" stroke-width="1.1" stroke-linecap="round"/>
    <line x1="26.34" y1="3.54" x2="25.92" y2="3.12" stroke="url(#metal-shutter)" stroke-width="1.1" stroke-linecap="round"/>
    <line x1="27.40" y1="3.10" x2="27.40" y2="2.50" stroke="url(#metal-shutter)" stroke-width="1.1" stroke-linecap="round"/>
    <line x1="28.46" y1="3.54" x2="28.88" y2="3.12" stroke="url(#metal-shutter)" stroke-width="1.1" stroke-linecap="round"/>
    <circle cx="27.4" cy="4.6" r="1.6" fill="url(#metal-shutter)" stroke="#4A3410" stroke-width="0.3"/>
    <circle cx="27.4" cy="4.6" r="0.7" fill="#4A3410"/>
    <circle cx="27.1" cy="4.3" r="0.22" fill="#fff" opacity="0.5"/>

    <rect x="5" y="6.8" width="22" height="22" rx="1.3" fill="url(#metal-shutter)" stroke="#4A3410" stroke-width="0.4"/>
    <rect x="5.8" y="7.6" width="1" height="20.4" fill="#fff" opacity="0.22"/>
    <rect x="25.2" y="7.6" width="1" height="20.4" fill="#000" opacity="0.22"/>

    <circle cx="6.9" cy="8.7" r="0.85" fill="#5C3F14"/>
    <circle cx="6.7" cy="8.5" r="0.28" fill="#F0D080" opacity="0.7"/>
    <circle cx="25.1" cy="8.7" r="0.85" fill="#5C3F14"/>
    <circle cx="24.9" cy="8.5" r="0.28" fill="#F0D080" opacity="0.7"/>
    <circle cx="6.9" cy="26.9" r="0.85" fill="#5C3F14"/>
    <circle cx="6.7" cy="26.7" r="0.28" fill="#F0D080" opacity="0.7"/>
    <circle cx="25.1" cy="26.9" r="0.85" fill="#5C3F14"/>
    <circle cx="24.9" cy="26.7" r="0.28" fill="#F0D080" opacity="0.7"/>

    <ellipse cx="10.5" cy="24" rx="3.2" ry="2.6" fill="url(#patina)"/>
    <ellipse cx="22" cy="11" rx="2.6" ry="2" fill="url(#patina)"/>

    <rect x="7.2" y="9" width="17.6" height="17.6" rx="0.6" fill="url(#glass-shutter)"/>
    <polygon points="8,26 8,22 20,10.4 22,10.4" fill="#fff" opacity="0.18"/>
    <rect x="7.2" y="9.00" width="17.6" height="1.33" fill="url(#metal-slat)"/>
    <rect x="7.2" y="9.00" width="17.6" height="0.28" fill="#fff" opacity="0.3"/>
    <rect x="7.2" y="10.06" width="17.6" height="0.28" fill="#000" opacity="0.4"/>
    <rect x="7.2" y="10.54" width="17.6" height="1.33" fill="url(#metal-slat)"/>
    <rect x="7.2" y="10.54" width="17.6" height="0.28" fill="#fff" opacity="0.3"/>
    <rect x="7.2" y="11.59" width="17.6" height="0.28" fill="#000" opacity="0.4"/>
    <rect x="7.2" y="12.07" width="17.6" height="1.33" fill="url(#metal-slat)"/>
    <rect x="7.2" y="12.07" width="17.6" height="0.28" fill="#fff" opacity="0.3"/>
    <rect x="7.2" y="13.13" width="17.6" height="0.28" fill="#000" opacity="0.4"/>
    <rect x="7.2" y="13.61" width="17.6" height="1.33" fill="url(#metal-slat)"/>
    <rect x="7.2" y="13.61" width="17.6" height="0.28" fill="#fff" opacity="0.3"/>
    <rect x="7.2" y="14.66" width="17.6" height="0.28" fill="#000" opacity="0.4"/>
    <rect x="7.2" y="15.14" width="17.6" height="1.33" fill="url(#metal-slat)"/>
    <rect x="7.2" y="15.14" width="17.6" height="0.28" fill="#fff" opacity="0.3"/>
    <rect x="7.2" y="16.20" width="17.6" height="0.28" fill="#000" opacity="0.4"/>
    <rect x="7.2" y="16.68" width="17.6" height="1.33" fill="url(#metal-slat)"/>
    <rect x="7.2" y="16.68" width="17.6" height="0.28" fill="#fff" opacity="0.3"/>
    <rect x="7.2" y="17.73" width="17.6" height="0.28" fill="#000" opacity="0.4"/>
    <rect x="7.2" y="18.21" width="17.6" height="1.33" fill="url(#metal-slat)"/>
    <rect x="7.2" y="18.21" width="17.6" height="0.28" fill="#fff" opacity="0.3"/>
    <rect x="7.2" y="19.27" width="17.6" height="0.28" fill="#000" opacity="0.4"/>
    <rect x="7.2" y="19.75" width="17.6" height="1.33" fill="url(#metal-slat)"/>
    <rect x="7.2" y="19.75" width="17.6" height="0.28" fill="#fff" opacity="0.3"/>
    <rect x="7.2" y="20.80" width="17.6" height="0.28" fill="#000" opacity="0.4"/>
    <rect x="7.2" y="21.08" width="17.6" height="2.00" fill="url(#metal-slat)" stroke="#4A3410" stroke-width="0.25"/>
    <rect x="7.2" y="21.08" width="17.6" height="0.4" fill="#fff" opacity="0.28"/>
    <rect x="14.6" y="21.73" width="2.8" height="0.7" rx="0.35" fill="#4A3410" opacity="0.7"/>
  </g>
</svg>
