<svg viewBox="0 0 32 32" xmlns="http://www.w3.org/2000/svg">
<defs>
    <linearGradient id="brassGrad" x1="0" y1="0" x2="0" y2="1">
      <stop offset="0%" stop-color="#F0D080"/>
      <stop offset="55%" stop-color="#C9932F"/>
      <stop offset="100%" stop-color="#7A5518"/>
    </linearGradient>
    <linearGradient id="brassGradDark" x1="0" y1="0" x2="0" y2="1">
      <stop offset="0%" stop-color="#C9932F"/>
      <stop offset="55%" stop-color="#8A6420"/>
      <stop offset="100%" stop-color="#5C3F14"/>
    </linearGradient>
    <linearGradient id="screenGlass" x1="0" y1="0" x2="1" y2="1">
      <stop offset="0%" stop-color="#6E7278"/><stop offset="100%" stop-color="#33363A"/>
    </linearGradient>
    <radialGradient id="screenGlow" cx="50%" cy="50%" r="50%">
      <stop offset="0%" stop-color="#6E7278" stop-opacity="0"/>
      <stop offset="100%" stop-color="#6E7278" stop-opacity="0"/>
    </radialGradient>
    <radialGradient id="patina" cx="30%" cy="20%" r="70%">
      <stop offset="0%" stop-color="#3B5240" stop-opacity="0.26"/>
      <stop offset="100%" stop-color="#3B5240" stop-opacity="0"/>
    </radialGradient>
    <radialGradient id="groundShadow" cx="50%" cy="50%" r="50%">
      <stop offset="0%" stop-color="#000000" stop-opacity="0.35"/>
      <stop offset="100%" stop-color="#000000" stop-opacity="0"/>
    </radialGradient>
    <filter id="dropshadow" x="-50%" y="-50%" width="200%" height="200%">
      <feDropShadow dx="0" dy="0.5" stdDeviation="0.6" flood-color="#3a2408" flood-opacity="0.45"/>
    </filter>
    <clipPath id="screenClip">
      <rect x="6.4" y="7.2" width="19.2" height="12.2" rx="0.8"/>
    </clipPath>
</defs>
<ellipse cx="16" cy="29.6" rx="8.5" ry="1.4" fill="url(#groundShadow)"/>
<circle cx="16" cy="13" r="10.5" fill="url(#screenGlow)"/>
<g filter="url(#dropshadow)">
<rect x="10.5" y="26.2" width="11" height="2.2" rx="1.0" fill="url(#brassGrad)" stroke="#5C3F14" stroke-width="0.3"/>
<path d="M14.2,21.4 L17.8,21.4 L17.0,26.2 L15.0,26.2 Z" fill="url(#brassGradDark)" stroke="#5C3F14" stroke-width="0.25"/>
<rect x="4.4" y="4.6" width="23.2" height="16.8" rx="2.0" fill="url(#brassGrad)" stroke="#5C3F14" stroke-width="0.35"/>
<circle cx="6.50" cy="6.70" r="0.8" fill="#5C3F14" stroke="#4A3410" stroke-width="0.2"/><circle cx="6.26" cy="6.46" r="0.22" fill="#F0D080"/>
<circle cx="25.50" cy="6.70" r="0.8" fill="#5C3F14" stroke="#4A3410" stroke-width="0.2"/><circle cx="25.26" cy="6.46" r="0.22" fill="#F0D080"/>
<circle cx="6.50" cy="19.10" r="0.8" fill="#5C3F14" stroke="#4A3410" stroke-width="0.2"/><circle cx="6.26" cy="18.86" r="0.22" fill="#F0D080"/>
<circle cx="25.50" cy="19.10" r="0.8" fill="#5C3F14" stroke="#4A3410" stroke-width="0.2"/><circle cx="25.26" cy="18.86" r="0.22" fill="#F0D080"/>
<ellipse cx="8" cy="8" rx="4" ry="3.2" fill="url(#patina)"/>
<rect x="6.4" y="7.2" width="19.2" height="12.2" rx="0.8" fill="url(#screenGlass)" stroke="#123A66" stroke-width="0.3"/>
<g clip-path="url(#screenClip)">
<path d="M6,7 L12,7 L8,20 L2,20 Z" fill="#ffffff" fill-opacity="0.20"/>
<path d="M15,7 L19,7 L14,20 L10,20 Z" fill="#ffffff" fill-opacity="0.12"/>
<rect x="6.4" y="8" width="19.2" height="0.4" fill="#000000" fill-opacity="0.1"/>
<rect x="6.4" y="10" width="19.2" height="0.4" fill="#000000" fill-opacity="0.1"/>
<rect x="6.4" y="12" width="19.2" height="0.4" fill="#000000" fill-opacity="0.1"/>
<rect x="6.4" y="14" width="19.2" height="0.4" fill="#000000" fill-opacity="0.1"/>
<rect x="6.4" y="16" width="19.2" height="0.4" fill="#000000" fill-opacity="0.1"/>
<rect x="6.4" y="18" width="19.2" height="0.4" fill="#000000" fill-opacity="0.1"/>
</g>
</g>
</svg>