<svg viewBox="0 0 32 32" xmlns="http://www.w3.org/2000/svg">
<defs>
  <linearGradient id="brass" x1="0" y1="0" x2="0" y2="1">
    <stop offset="0%" stop-color="#F0D080"/>
    <stop offset="55%" stop-color="#C9932F"/>
    <stop offset="100%" stop-color="#7A5518"/>
  </linearGradient>
  <linearGradient id="brassDark" x1="0" y1="0" x2="0" y2="1">
    <stop offset="0%" stop-color="#C9932F"/>
    <stop offset="60%" stop-color="#8A6420"/>
    <stop offset="100%" stop-color="#5C3F14"/>
  </linearGradient>
  <linearGradient id="rivet" x1="0" y1="0" x2="0" y2="1">
    <stop offset="0%" stop-color="#6B4A18"/>
    <stop offset="100%" stop-color="#4A3410"/>
  </linearGradient>
  <radialGradient id="patina" cx="50%" cy="50%" r="50%">
    <stop offset="0%" stop-color="#3B5240" stop-opacity="0.26"/>
    <stop offset="100%" stop-color="#3B5240" stop-opacity="0"/>
  </radialGradient>
  <linearGradient id="panelDark" x1="0" y1="0" x2="0" y2="1">
    <stop offset="0%" stop-color="#8A8A84"/>
    <stop offset="100%" stop-color="#5A5A54"/>
  </linearGradient>
  <filter id="dropshadow" x="-50%" y="-50%" width="200%" height="200%">
    <feDropShadow dx="0" dy="0.4" stdDeviation="0.5" flood-color="#000000" flood-opacity="0.35"/>
  </filter>
  <filter id="blur1" x="-50%" y="-50%" width="200%" height="200%">
    <feGaussianBlur stdDeviation="1"/>
  </filter>
  <clipPath id="cabClip"><rect x="6" y="3" width="20" height="26" rx="1.6"/></clipPath>
</defs>

<ellipse cx="16" cy="29.6" rx="10.5" ry="1.5" fill="#000000" opacity="0.28" filter="url(#blur1)"/>

<g filter="url(#dropshadow)">
  <!-- brass cabinet -->
  <rect x="6" y="3" width="20" height="26" rx="1.6" fill="url(#brass)" stroke="#4A3410" stroke-width="0.6"/>
  <rect x="6.6" y="3.4" width="18.8" height="1" rx="0.4" fill="#FFFFFF" opacity="0.28"/>
  <ellipse cx="10" cy="24" rx="4.6" ry="4" fill="url(#patina)" clip-path="url(#cabClip)"/>

  <!-- top vent slats -->
  <g stroke="#4A3410" stroke-width="0.4" opacity="0.75">
    <line x1="9" y1="4.3" x2="23" y2="4.3"/>
  </g>
  <g fill="#5C3F14" opacity="0.6">
    <rect x="9" y="4.5" width="14" height="0.5" rx="0.2"/>
  </g>

  <!-- rack unit bands -->
  
        <rect x="7.6" y="5.60" width="16.8" height="3.90" rx="0.4" fill="url(#panelDark)" stroke="#1A1108" stroke-width="0.3"/>
        <rect x="7.6" y="5.60" width="16.8" height="0.6" fill="#FFFFFF" opacity="0.06"/>
        
            <circle cx="9.40" cy="7.55" r="1.05" fill="#5FCB6E" opacity="0.25"/>
            <circle cx="9.40" cy="7.55" r="0.62" fill="#5FCB6E" stroke="#276B31" stroke-width="0.2"/>
            
            <circle cx="12.00" cy="7.55" r="1.05" fill="#F0A623" opacity="0.25"/>
            <circle cx="12.00" cy="7.55" r="0.62" fill="#F0A623" stroke="#8A5A12" stroke-width="0.2"/>
            
        <line x1="16.40" y1="6.30" x2="16.40" y2="8.80" stroke="#2E2E2A" stroke-width="0.45"/><line x1="17.55" y1="6.30" x2="17.55" y2="8.80" stroke="#2E2E2A" stroke-width="0.45"/><line x1="18.70" y1="6.30" x2="18.70" y2="8.80" stroke="#2E2E2A" stroke-width="0.45"/><line x1="19.85" y1="6.30" x2="19.85" y2="8.80" stroke="#2E2E2A" stroke-width="0.45"/><line x1="21.00" y1="6.30" x2="21.00" y2="8.80" stroke="#2E2E2A" stroke-width="0.45"/><line x1="22.15" y1="6.30" x2="22.15" y2="8.80" stroke="#2E2E2A" stroke-width="0.45"/>
        

        <rect x="7.6" y="10.25" width="16.8" height="3.90" rx="0.4" fill="url(#panelDark)" stroke="#1A1108" stroke-width="0.3"/>
        <rect x="7.6" y="10.25" width="16.8" height="0.6" fill="#FFFFFF" opacity="0.06"/>
        
            <circle cx="9.40" cy="12.20" r="1.05" fill="#5FCB6E" opacity="0.25"/>
            <circle cx="9.40" cy="12.20" r="0.62" fill="#5FCB6E" stroke="#276B31" stroke-width="0.2"/>
            
            <circle cx="12.00" cy="12.20" r="1.05" fill="#5FCB6E" opacity="0.25"/>
            <circle cx="12.00" cy="12.20" r="0.62" fill="#5FCB6E" stroke="#276B31" stroke-width="0.2"/>
            
        <line x1="16.40" y1="10.95" x2="16.40" y2="13.45" stroke="#2E2E2A" stroke-width="0.45"/><line x1="17.55" y1="10.95" x2="17.55" y2="13.45" stroke="#2E2E2A" stroke-width="0.45"/><line x1="18.70" y1="10.95" x2="18.70" y2="13.45" stroke="#2E2E2A" stroke-width="0.45"/><line x1="19.85" y1="10.95" x2="19.85" y2="13.45" stroke="#2E2E2A" stroke-width="0.45"/><line x1="21.00" y1="10.95" x2="21.00" y2="13.45" stroke="#2E2E2A" stroke-width="0.45"/><line x1="22.15" y1="10.95" x2="22.15" y2="13.45" stroke="#2E2E2A" stroke-width="0.45"/>
        

        <rect x="7.6" y="14.90" width="16.8" height="3.90" rx="0.4" fill="url(#panelDark)" stroke="#1A1108" stroke-width="0.3"/>
        <rect x="7.6" y="14.90" width="16.8" height="0.6" fill="#FFFFFF" opacity="0.06"/>
        
            <circle cx="9.40" cy="16.85" r="1.05" fill="#E5695E" opacity="0.25"/>
            <circle cx="9.40" cy="16.85" r="0.62" fill="#E5695E" stroke="#8C2A22" stroke-width="0.2"/>
            
            <circle cx="12.00" cy="16.85" r="1.05" fill="#5FCB6E" opacity="0.25"/>
            <circle cx="12.00" cy="16.85" r="0.62" fill="#5FCB6E" stroke="#276B31" stroke-width="0.2"/>
            
        <line x1="16.40" y1="15.60" x2="16.40" y2="18.10" stroke="#2E2E2A" stroke-width="0.45"/><line x1="17.55" y1="15.60" x2="17.55" y2="18.10" stroke="#2E2E2A" stroke-width="0.45"/><line x1="18.70" y1="15.60" x2="18.70" y2="18.10" stroke="#2E2E2A" stroke-width="0.45"/><line x1="19.85" y1="15.60" x2="19.85" y2="18.10" stroke="#2E2E2A" stroke-width="0.45"/><line x1="21.00" y1="15.60" x2="21.00" y2="18.10" stroke="#2E2E2A" stroke-width="0.45"/><line x1="22.15" y1="15.60" x2="22.15" y2="18.10" stroke="#2E2E2A" stroke-width="0.45"/>
        

        <rect x="7.6" y="19.55" width="16.8" height="3.90" rx="0.4" fill="url(#panelDark)" stroke="#1A1108" stroke-width="0.3"/>
        <rect x="7.6" y="19.55" width="16.8" height="0.6" fill="#FFFFFF" opacity="0.06"/>
        
            <circle cx="9.40" cy="21.50" r="1.05" fill="#5FCB6E" opacity="0.25"/>
            <circle cx="9.40" cy="21.50" r="0.62" fill="#5FCB6E" stroke="#276B31" stroke-width="0.2"/>
            
            <circle cx="12.00" cy="21.50" r="1.05" fill="#F0A623" opacity="0.25"/>
            <circle cx="12.00" cy="21.50" r="0.62" fill="#F0A623" stroke="#8A5A12" stroke-width="0.2"/>
            
        <line x1="16.40" y1="20.25" x2="16.40" y2="22.75" stroke="#2E2E2A" stroke-width="0.45"/><line x1="17.55" y1="20.25" x2="17.55" y2="22.75" stroke="#2E2E2A" stroke-width="0.45"/><line x1="18.70" y1="20.25" x2="18.70" y2="22.75" stroke="#2E2E2A" stroke-width="0.45"/><line x1="19.85" y1="20.25" x2="19.85" y2="22.75" stroke="#2E2E2A" stroke-width="0.45"/><line x1="21.00" y1="20.25" x2="21.00" y2="22.75" stroke="#2E2E2A" stroke-width="0.45"/><line x1="22.15" y1="20.25" x2="22.15" y2="22.75" stroke="#2E2E2A" stroke-width="0.45"/>
        

        <rect x="7.6" y="24.20" width="16.8" height="3.90" rx="0.4" fill="url(#panelDark)" stroke="#1A1108" stroke-width="0.3"/>
        <rect x="7.6" y="24.20" width="16.8" height="0.6" fill="#FFFFFF" opacity="0.06"/>
        
            <circle cx="9.40" cy="26.15" r="1.05" fill="#F0A623" opacity="0.25"/>
            <circle cx="9.40" cy="26.15" r="0.62" fill="#F0A623" stroke="#8A5A12" stroke-width="0.2"/>
            
            <circle cx="12.00" cy="26.15" r="1.05" fill="#5FCB6E" opacity="0.25"/>
            <circle cx="12.00" cy="26.15" r="0.62" fill="#5FCB6E" stroke="#276B31" stroke-width="0.2"/>
            
        <line x1="16.40" y1="24.90" x2="16.40" y2="27.40" stroke="#2E2E2A" stroke-width="0.45"/><line x1="17.55" y1="24.90" x2="17.55" y2="27.40" stroke="#2E2E2A" stroke-width="0.45"/><line x1="18.70" y1="24.90" x2="18.70" y2="27.40" stroke="#2E2E2A" stroke-width="0.45"/><line x1="19.85" y1="24.90" x2="19.85" y2="27.40" stroke="#2E2E2A" stroke-width="0.45"/><line x1="21.00" y1="24.90" x2="21.00" y2="27.40" stroke="#2E2E2A" stroke-width="0.45"/><line x1="22.15" y1="24.90" x2="22.15" y2="27.40" stroke="#2E2E2A" stroke-width="0.45"/>
        

  <!-- corner rivets -->
  <circle cx="7.4" cy="4.5" r="0.62" fill="url(#rivet)" stroke="#4A3410" stroke-width="0.18"/>
  <circle cx="7.24" cy="4.34" r="0.16" fill="#F0D080"/>
  <circle cx="24.6" cy="4.5" r="0.62" fill="url(#rivet)" stroke="#4A3410" stroke-width="0.18"/>
  <circle cx="24.44" cy="4.34" r="0.16" fill="#F0D080"/>
  <circle cx="7.4" cy="27.5" r="0.62" fill="url(#rivet)" stroke="#4A3410" stroke-width="0.18"/>
  <circle cx="7.24" cy="27.34" r="0.16" fill="#F0D080"/>
  <circle cx="24.6" cy="27.5" r="0.62" fill="url(#rivet)" stroke="#4A3410" stroke-width="0.18"/>
  <circle cx="24.44" cy="27.34" r="0.16" fill="#F0D080"/>

  <!-- door handle / lock -->
  <rect x="22.6" y="14.8" width="1.6" height="4" rx="0.6" fill="url(#brassDark)" stroke="#4A3410" stroke-width="0.3"/>

  <!-- base plinth -->
  <rect x="7" y="27.6" width="18" height="1.2" rx="0.4" fill="url(#brassDark)" stroke="#4A3410" stroke-width="0.3"/>
</g>
</svg>