<svg xmlns="http://www.w3.org/2000/svg" width="32" height="32" viewBox="0 0 32 32">
  <defs>
    <radialGradient id="glow-s80" cx="50%" cy="45%" r="57%">
      <stop offset="0%" stop-color="#F7D669" stop-opacity="0.413"/>
      <stop offset="100%" stop-color="#F7D669" stop-opacity="0"/>
    </radialGradient>
    <radialGradient id="glass-s80" cx="35%" cy="28%" r="80%">
      <stop offset="0%" stop-color="#FEF3CD"/>
      <stop offset="45%" stop-color="#F9CE69"/>
      <stop offset="100%" stop-color="#DA8D32"/>
    </radialGradient>
    <linearGradient id="metal-s80" x1="0" y1="0" x2="0" y2="1">
      <stop offset="0%" stop-color="#AEB3B8"/>
      <stop offset="100%" stop-color="#54585C"/>
    </linearGradient>
    <filter id="soft-s80" x="-40%" y="-40%" width="180%" height="180%">
      <feGaussianBlur stdDeviation="0.7"/>
    </filter>
    <filter id="drop-s80" x="-40%" y="-40%" width="180%" height="180%">
      <feDropShadow dx="0" dy="0.5" stdDeviation="0.5" flood-color="#000" flood-opacity="0.3"/>
    </filter>
  </defs>

  <ellipse cx="16" cy="31.2" rx="5.4" ry="0.8" fill="#000" opacity="0.17" filter="url(#soft-s80)"/>

  <circle cx="16" cy="13" r="12.7" fill="url(#glow-s80)"/>

  <g filter="url(#drop-s80)">
    <path d="M16 3.5 C11 3.5 7 7.3 7 12.3 C7 15.8 8.8 18.2 10.6 19.9
             C11.6 20.9 12.2 21.9 12.3 23 L19.7 23
             C19.8 21.9 20.4 20.9 21.4 19.9 C23.2 18.2 25 15.8 25 12.3
             C25 7.3 21 3.5 16 3.5 Z"
          fill="url(#glass-s80)" stroke="#B36D2B" stroke-width="0.5"/>

    <path d="M13.6 21 L13.6 13.2 M18.4 21 L18.4 13.2"
          fill="none" stroke="#BC612D" stroke-width="0.9"
          stroke-linecap="round" stroke-linejoin="round"/>
    <path d="M13.6 13.2 C13.6 11 18.4 11 18.4 13.2"
          fill="none" stroke="#FAE2A7" stroke-width="1"
          stroke-linecap="round" filter="url(#soft-s80)" opacity="0.87"/>
    <path d="M13.6 13.2 C13.6 11 18.4 11 18.4 13.2"
          fill="none" stroke="#BC612D" stroke-width="0.7"
          stroke-linecap="round"/>

    <rect x="12.3" y="23" width="7.4" height="1.4" fill="url(#metal-s80)"/>
    <rect x="12" y="24.4" width="8" height="4.6" rx="0.6" fill="url(#metal-s80)" stroke="#333638" stroke-width="0.3"/>
    <rect x="13.2" y="24.5" width="1.1" height="4.4" fill="#fff" opacity="0.25"/>
    <rect x="18.1" y="24.5" width="1.1" height="4.4" fill="#000" opacity="0.22"/>
    <rect x="12" y="26" width="8" height="0.7" fill="#2b2e30" opacity="0.75"/>
    <rect x="12" y="26.05" width="8" height="0.25" fill="#fff" opacity="0.2"/>
    <rect x="12" y="27.6" width="8" height="0.7" fill="#2b2e30" opacity="0.75"/>
    <rect x="12" y="27.65" width="8" height="0.25" fill="#fff" opacity="0.2"/>
    <rect x="13.4" y="29" width="5.2" height="1.6" rx="0.5" fill="url(#metal-s80)"/>
  </g>

  <ellipse cx="11.6" cy="8.4" rx="2.6" ry="4" fill="#ffffff" opacity="0.37" filter="url(#soft-s80)"/>
  <ellipse cx="11" cy="7.6" rx="0.9" ry="1.5" fill="#ffffff" opacity="0.52"/>
</svg>
