<svg viewBox="0 0 32 32" xmlns="http://www.w3.org/2000/svg">
<defs>
    <linearGradient id="brassGrad" x1="0" y1="0" x2="0" y2="1">
      <stop offset="0%" stop-color="#F0D080"/>
      <stop offset="55%" stop-color="#C9932F"/>
      <stop offset="100%" stop-color="#7A5518"/>
    </linearGradient>
    <linearGradient id="brassGradDark" x1="0" y1="0" x2="0" y2="1">
      <stop offset="0%" stop-color="#C9932F"/>
      <stop offset="55%" stop-color="#8A6420"/>
      <stop offset="100%" stop-color="#5C3F14"/>
    </linearGradient>
    <radialGradient id="patina" cx="30%" cy="20%" r="70%">
      <stop offset="0%" stop-color="#3B5240" stop-opacity="0.26"/>
      <stop offset="100%" stop-color="#3B5240" stop-opacity="0"/>
    </radialGradient>
    <linearGradient id="waveBlue" x1="0" y1="0" x2="1" y2="1">
      <stop offset="0%" stop-color="#BFE6FF"/>
      <stop offset="50%" stop-color="#3E86D6"/>
      <stop offset="100%" stop-color="#164C82"/>
    </linearGradient>
    <radialGradient id="glowBlue" cx="50%" cy="50%" r="50%">
      <stop offset="0%" stop-color="#3E86D6" stop-opacity="0.5"/>
      <stop offset="100%" stop-color="#3E86D6" stop-opacity="0"/>
    </radialGradient>
    <radialGradient id="groundShadow" cx="50%" cy="50%" r="50%">
      <stop offset="0%" stop-color="#000000" stop-opacity="0.35"/>
      <stop offset="100%" stop-color="#000000" stop-opacity="0"/>
    </radialGradient>
    <filter id="dropshadow" x="-50%" y="-50%" width="200%" height="200%">
      <feDropShadow dx="0" dy="0.5" stdDeviation="0.6" flood-color="#3a2408" flood-opacity="0.45"/>
    </filter>
</defs>
<ellipse cx="16" cy="27.6" rx="9.0" ry="1.4" fill="url(#groundShadow)"/>
<ellipse cx="17.5" cy="16.5" rx="10" ry="9" fill="url(#glowBlue)"/>
<g filter="url(#dropshadow)">
<rect x="4.0" y="13.4" width="4.0" height="6.2" rx="0.6" fill="url(#brassGrad)" stroke="#5C3F14" stroke-width="0.3"/>
<circle cx="6.00" cy="15.00" r="0.45" fill="#5C3F14" stroke="#4A3410" stroke-width="0.2"/><circle cx="5.87" cy="14.87" r="0.13" fill="#F0D080"/>
<circle cx="6.00" cy="18.20" r="0.45" fill="#5C3F14" stroke="#4A3410" stroke-width="0.2"/><circle cx="5.87" cy="18.06" r="0.13" fill="#F0D080"/>
<path d="M7.6,13.6 L14.0,9.4 L14.0,23.6 L7.6,19.4 Z" fill="url(#brassGradDark)" stroke="#5C3F14" stroke-width="0.3"/>
<line x1="14.0" y1="9.4" x2="14.0" y2="23.6" stroke="#F0D080" stroke-width="0.35" stroke-opacity="0.6"/>
<ellipse cx="5.5" cy="14.5" rx="1.6" ry="1.6" fill="url(#patina)"/>
<path d="M14.28,19.38 L14.59,19.04 L14.86,18.67 L15.09,18.27 L15.27,17.85 L15.40,17.41 L15.47,16.96 L15.50,16.50 L15.47,16.04 L15.40,15.59 L15.27,15.15 L15.09,14.73 L14.86,14.33 L14.59,13.96 L14.28,13.62" fill="none" stroke="url(#waveBlue)" stroke-width="0.85" stroke-linecap="round"/>
<path d="M16.08,21.25 L16.60,20.69 L17.04,20.08 L17.42,19.42 L17.71,18.73 L17.93,18.00 L18.06,17.26 L18.10,16.50 L18.06,15.74 L17.93,15.00 L17.71,14.27 L17.42,13.58 L17.04,12.92 L16.60,12.31 L16.08,11.75" fill="none" stroke="url(#waveBlue)" stroke-width="0.7" stroke-linecap="round"/>
<path d="M17.89,23.12 L18.61,22.34 L19.23,21.49 L19.75,20.57 L20.16,19.60 L20.46,18.59 L20.64,17.55 L20.70,16.50 L20.64,15.45 L20.46,14.41 L20.16,13.40 L19.75,12.43 L19.23,11.51 L18.61,10.66 L17.89,9.88" fill="none" stroke="url(#waveBlue)" stroke-width="0.55" stroke-linecap="round"/>
</g>
</svg>