<svg viewBox="0 0 32 32" xmlns="http://www.w3.org/2000/svg">
  <defs>
    
    <linearGradient id="brass" x1="0" y1="0" x2="0" y2="1">
      <stop offset="0%" stop-color="#F0D080"/>
      <stop offset="55%" stop-color="#C9932F"/>
      <stop offset="100%" stop-color="#7A5518"/>
    </linearGradient>
    <radialGradient id="rivetGrad" cx="35%" cy="30%" r="75%">
      <stop offset="0%" stop-color="#F0D080"/>
      <stop offset="60%" stop-color="#5C3F14"/>
      <stop offset="100%" stop-color="#4A3410"/>
    </radialGradient>
    <radialGradient id="sunGrad" cx="35%" cy="30%" r="75%">
      <stop offset="0%" stop-color="#FFF6D8"/>
      <stop offset="45%" stop-color="#FFD84F"/>
      <stop offset="100%" stop-color="#D68A12"/>
    </radialGradient>
    <radialGradient id="sunsetGrad" cx="35%" cy="30%" r="75%">
      <stop offset="0%" stop-color="#FFE3B0"/>
      <stop offset="45%" stop-color="#FF9A3D"/>
      <stop offset="100%" stop-color="#B8500F"/>
    </radialGradient>
    <radialGradient id="glowAmber" cx="50%" cy="50%" r="50%">
      <stop offset="0%" stop-color="#FFD84F" stop-opacity="0.45"/>
      <stop offset="100%" stop-color="#FFD84F" stop-opacity="0"/>
    </radialGradient>
    <radialGradient id="glowOrange" cx="50%" cy="50%" r="50%">
      <stop offset="0%" stop-color="#FF9A3D" stop-opacity="0.45"/>
      <stop offset="100%" stop-color="#FF9A3D" stop-opacity="0"/>
    </radialGradient>
    <linearGradient id="cloudGrad" x1="0" y1="0" x2="0" y2="1">
      <stop offset="0%" stop-color="#FFFFFF"/>
      <stop offset="100%" stop-color="#CBD8E2"/>
    </linearGradient>
    <linearGradient id="horizonFade" x1="0" y1="0" x2="1" y2="0">
      <stop offset="0%" stop-color="#7A5518" stop-opacity="0"/>
      <stop offset="12%" stop-color="#C9932F" stop-opacity="1"/>
      <stop offset="88%" stop-color="#C9932F" stop-opacity="1"/>
      <stop offset="100%" stop-color="#7A5518" stop-opacity="0"/>
    </linearGradient>
    <radialGradient id="groundShadow" cx="50%" cy="50%" r="50%">
      <stop offset="0%" stop-color="#000000" stop-opacity="0.35"/>
      <stop offset="100%" stop-color="#000000" stop-opacity="0"/>
    </radialGradient>
    <filter id="dropshadow" x="-50%" y="-50%" width="200%" height="200%">
      <feDropShadow dx="0" dy="0.5" stdDeviation="0.55" flood-color="#000000" flood-opacity="0.4"/>
    </filter>
    
  </defs>
  <ellipse cx="16" cy="26.6" rx="10.5" ry="1.6" fill="url(#groundShadow)"/><circle cx="12.5" cy="11.5" r="11" fill="url(#glowAmber)"/><g filter="url(#dropshadow)"><line x1="16.30" y1="4.92" x2="17.25" y2="3.27" stroke="url(#brass)" stroke-width="1.1" stroke-linecap="round"/><line x1="19.08" y1="7.70" x2="20.73" y2="6.75" stroke="url(#brass)" stroke-width="1.1" stroke-linecap="round"/><line x1="20.10" y1="11.50" x2="22.00" y2="11.50" stroke="url(#brass)" stroke-width="1.1" stroke-linecap="round"/><line x1="12.50" y1="3.90" x2="12.50" y2="2.00" stroke="url(#brass)" stroke-width="1.1" stroke-linecap="round"/><circle cx="12.5" cy="11.5" r="6.3" fill="url(#sunGrad)" stroke="#8A5A12" stroke-width="0.35"/>
<ellipse cx="10.48" cy="9.29" rx="2.02" ry="1.26" fill="#FFFFFF" opacity="0.4"/><rect x="17.50" y="21.50" width="6.00" height="1.60" fill="url(#cloudGrad)"/>
<circle cx="18.60" cy="21.60" r="1.50" fill="url(#cloudGrad)"/>
<circle cx="19.90" cy="20.90" r="1.90" fill="url(#cloudGrad)"/>
<circle cx="21.50" cy="21.20" r="1.70" fill="url(#cloudGrad)"/>
<circle cx="22.60" cy="21.80" r="1.30" fill="url(#cloudGrad)"/>
<rect x="17.50" y="21.50" width="6.00" height="1.60" fill="none" stroke="#8FA6B8" stroke-width="0.25"/>
<circle cx="18.60" cy="21.60" r="1.50" fill="none" stroke="#8FA6B8" stroke-width="0.25"/>
<circle cx="19.90" cy="20.90" r="1.90" fill="none" stroke="#8FA6B8" stroke-width="0.25"/>
<circle cx="21.50" cy="21.20" r="1.70" fill="none" stroke="#8FA6B8" stroke-width="0.25"/>
<circle cx="22.60" cy="21.80" r="1.30" fill="none" stroke="#8FA6B8" stroke-width="0.25"/><rect x="9.84" y="23.60" width="4.32" height="1.15" fill="url(#cloudGrad)"/>
<circle cx="10.63" cy="23.67" r="1.08" fill="url(#cloudGrad)"/>
<circle cx="11.57" cy="23.17" r="1.37" fill="url(#cloudGrad)"/>
<circle cx="12.72" cy="23.38" r="1.22" fill="url(#cloudGrad)"/>
<circle cx="13.51" cy="23.82" r="0.94" fill="url(#cloudGrad)"/>
<rect x="9.84" y="23.60" width="4.32" height="1.15" fill="none" stroke="#8FA6B8" stroke-width="0.25"/>
<circle cx="10.63" cy="23.67" r="1.08" fill="none" stroke="#8FA6B8" stroke-width="0.25"/>
<circle cx="11.57" cy="23.17" r="1.37" fill="none" stroke="#8FA6B8" stroke-width="0.25"/>
<circle cx="12.72" cy="23.38" r="1.22" fill="none" stroke="#8FA6B8" stroke-width="0.25"/>
<circle cx="13.51" cy="23.82" r="0.94" fill="none" stroke="#8FA6B8" stroke-width="0.25"/></g>
</svg>