<svg viewBox="0 0 32 32" xmlns="http://www.w3.org/2000/svg">
<defs>
    <linearGradient id="brassGrad" x1="0" y1="0" x2="0" y2="1">
      <stop offset="0%" stop-color="#F0D080"/>
      <stop offset="55%" stop-color="#C9932F"/>
      <stop offset="100%" stop-color="#7A5518"/>
    </linearGradient>
    <linearGradient id="brassGradDark" x1="0" y1="0" x2="0" y2="1">
      <stop offset="0%" stop-color="#C9932F"/>
      <stop offset="55%" stop-color="#8A6420"/>
      <stop offset="100%" stop-color="#5C3F14"/>
    </linearGradient>
    <radialGradient id="brassRing" cx="35%" cy="30%" r="75%">
      <stop offset="0%" stop-color="#F0D080"/>
      <stop offset="55%" stop-color="#C9932F"/>
      <stop offset="100%" stop-color="#7A5518"/>
    </radialGradient>
    <radialGradient id="patina" cx="30%" cy="20%" r="70%">
      <stop offset="0%" stop-color="#3B5240" stop-opacity="0.26"/>
      <stop offset="100%" stop-color="#3B5240" stop-opacity="0"/>
    </radialGradient>
    <radialGradient id="groundShadow" cx="50%" cy="50%" r="50%">
      <stop offset="0%" stop-color="#000000" stop-opacity="0.35"/>
      <stop offset="100%" stop-color="#000000" stop-opacity="0"/>
    </radialGradient>
    <filter id="dropshadow" x="-50%" y="-50%" width="200%" height="200%">
      <feDropShadow dx="0" dy="0.5" stdDeviation="0.6" flood-color="#3a2408" flood-opacity="0.45"/>
    </filter>
    <radialGradient id="glowAmber" cx="50%" cy="50%" r="50%">
      <stop offset="0%" stop-color="#F0A623" stop-opacity="0.5"/>
      <stop offset="100%" stop-color="#F0A623" stop-opacity="0"/>
    </radialGradient>
    <radialGradient id="glowGreen" cx="50%" cy="50%" r="50%">
      <stop offset="0%" stop-color="#5FCB6E" stop-opacity="0.45"/>
      <stop offset="100%" stop-color="#5FCB6E" stop-opacity="0"/>
    </radialGradient>
</defs>
<ellipse cx="16" cy="29.2" rx="9.5" ry="1.5" fill="url(#groundShadow)"/>

<g filter="url(#dropshadow)">
<rect x="15.3" y="14.5" width="1.4" height="11.5" fill="url(#brassGrad)" stroke="#5C3F14" stroke-width="0.25"/><ellipse cx="16" cy="26.2" rx="2.6" ry="0.9" fill="url(#brassGradDark)" stroke="#5C3F14" stroke-width="0.2"/><path d="M16,13.5 L5.50,13.50 A10.5,5.775 0 0 1 6.30,11.29 Z" fill="#F3E8CC" stroke="#5C3F14" stroke-width="0.25"/><path d="M16,13.5 L6.30,11.29 A10.5,5.775 0 0 1 8.58,9.42 Z" fill="#B24338" stroke="#5C3F14" stroke-width="0.25"/><path d="M16,13.5 L8.58,9.42 A10.5,5.775 0 0 1 11.98,8.16 Z" fill="#F3E8CC" stroke="#5C3F14" stroke-width="0.25"/><path d="M16,13.5 L11.98,8.16 A10.5,5.775 0 0 1 16.00,7.72 Z" fill="#B24338" stroke="#5C3F14" stroke-width="0.25"/><path d="M16,13.5 L16.00,7.72 A10.5,5.775 0 0 1 20.02,8.16 Z" fill="#F3E8CC" stroke="#5C3F14" stroke-width="0.25"/><path d="M16,13.5 L20.02,8.16 A10.5,5.775 0 0 1 23.42,9.42 Z" fill="#B24338" stroke="#5C3F14" stroke-width="0.25"/><path d="M16,13.5 L23.42,9.42 A10.5,5.775 0 0 1 25.70,11.29 Z" fill="#F3E8CC" stroke="#5C3F14" stroke-width="0.25"/><path d="M16,13.5 L25.70,11.29 A10.5,5.775 0 0 1 26.50,13.50 Z" fill="#B24338" stroke="#5C3F14" stroke-width="0.25"/><path d="M5.50,13.50 A1.31,1.31 0 0 0 8.12,13.50 Z" fill="#B24338" stroke="#5C3F14" stroke-width="0.2"/><path d="M8.12,13.50 A1.31,1.31 0 0 0 10.75,13.50 Z" fill="#F3E8CC" stroke="#5C3F14" stroke-width="0.2"/><path d="M10.75,13.50 A1.31,1.31 0 0 0 13.38,13.50 Z" fill="#B24338" stroke="#5C3F14" stroke-width="0.2"/><path d="M13.38,13.50 A1.31,1.31 0 0 0 16.00,13.50 Z" fill="#F3E8CC" stroke="#5C3F14" stroke-width="0.2"/><path d="M16.00,13.50 A1.31,1.31 0 0 0 18.62,13.50 Z" fill="#B24338" stroke="#5C3F14" stroke-width="0.2"/><path d="M18.62,13.50 A1.31,1.31 0 0 0 21.25,13.50 Z" fill="#F3E8CC" stroke="#5C3F14" stroke-width="0.2"/><path d="M21.25,13.50 A1.31,1.31 0 0 0 23.88,13.50 Z" fill="#B24338" stroke="#5C3F14" stroke-width="0.2"/><path d="M23.88,13.50 A1.31,1.31 0 0 0 26.50,13.50 Z" fill="#F3E8CC" stroke="#5C3F14" stroke-width="0.2"/><circle cx="16" cy="13.5" r="0.9" fill="url(#brassRing)" stroke="#5C3F14" stroke-width="0.22"/><circle cx="16" cy="3.6" r="0.7" fill="url(#brassRing)" stroke="#5C3F14" stroke-width="0.2"/></g>
</svg>
