<svg viewBox="0 0 32 32" xmlns="http://www.w3.org/2000/svg">
<defs>
    <linearGradient id="brassGrad" x1="0" y1="0" x2="0" y2="1">
      <stop offset="0%" stop-color="#F0D080"/>
      <stop offset="55%" stop-color="#C9932F"/>
      <stop offset="100%" stop-color="#7A5518"/>
    </linearGradient>
    <linearGradient id="brassGradH" x1="0" y1="0" x2="1" y2="0">
      <stop offset="0%" stop-color="#7A5518"/>
      <stop offset="45%" stop-color="#F0D080"/>
      <stop offset="55%" stop-color="#F0D080"/>
      <stop offset="100%" stop-color="#7A5518"/>
    </linearGradient>
    <radialGradient id="brassRing" cx="35%" cy="30%" r="75%">
      <stop offset="0%" stop-color="#F0D080"/>
      <stop offset="55%" stop-color="#C9932F"/>
      <stop offset="100%" stop-color="#7A5518"/>
    </radialGradient>
    <linearGradient id="glassTube" x1="0" y1="0" x2="1" y2="0">
      <stop offset="0%" stop-color="#B9C7D2" stop-opacity="0.55"/>
      <stop offset="45%" stop-color="#EAF2F7" stop-opacity="0.75"/>
      <stop offset="100%" stop-color="#8B9BA8" stop-opacity="0.55"/>
    </linearGradient>
    <linearGradient id="liquidGrad" x1="0" y1="1" x2="0" y2="0">
      <stop offset="0%" stop-color="#7A1B10"/>
      <stop offset="40%" stop-color="#E5342A"/>
      <stop offset="100%" stop-color="#FFC24D"/>
    </linearGradient>
    <radialGradient id="liquidGlow" cx="50%" cy="50%" r="50%">
      <stop offset="0%" stop-color="#FF5A2E" stop-opacity="0.65"/>
      <stop offset="100%" stop-color="#FF5A2E" stop-opacity="0"/>
    </radialGradient>
    <radialGradient id="bulbGlass" cx="35%" cy="30%" r="75%">
      <stop offset="0%" stop-color="#FFD9A0"/>
      <stop offset="40%" stop-color="#E5342A"/>
      <stop offset="100%" stop-color="#6E1109"/>
    </radialGradient>
    <radialGradient id="patina" cx="30%" cy="25%" r="70%">
      <stop offset="0%" stop-color="#3B5240" stop-opacity="0.28"/>
      <stop offset="100%" stop-color="#3B5240" stop-opacity="0"/>
    </radialGradient>
    <radialGradient id="groundShadow" cx="50%" cy="50%" r="50%">
      <stop offset="0%" stop-color="#000000" stop-opacity="0.35"/>
      <stop offset="100%" stop-color="#000000" stop-opacity="0"/>
    </radialGradient>
    <filter id="dropshadow" x="-50%" y="-50%" width="200%" height="200%">
      <feDropShadow dx="0" dy="0.5" stdDeviation="0.6" flood-color="#3a2408" flood-opacity="0.45"/>
    </filter>
</defs>
<ellipse cx="16" cy="29.6" rx="8" ry="1.5" fill="url(#groundShadow)"/>
<circle cx="16" cy="21" r="9" fill="url(#liquidGlow)"/>
<g filter="url(#dropshadow)">
<rect x="13.0" y="2.2" width="6.0" height="2.6" rx="1.2" fill="url(#brassGrad)" stroke="#5C3F14" stroke-width="0.3"/>
<circle cx="16" cy="2.6" r="1.15" fill="url(#brassRing)" stroke="#5C3F14" stroke-width="0.25"/>
<rect x="13.4" y="5.0" width="5.200000000000001" height="16.5" rx="2.6000000000000005" fill="url(#glassTube)" stroke="#7A8792" stroke-width="0.35"/>
<rect x="14.85" y="5.99" width="2.3" height="18.51" rx="1.15" fill="url(#liquidGrad)"/>
<rect x="14.00" y="5.60" width="0.7" height="15.30" rx="0.35" fill="#FFFFFF" fill-opacity="0.45"/>
<rect x="12.80" y="9.20" width="6.40" height="1.15" rx="0.55" fill="url(#brassGradH)" stroke="#5C3F14" stroke-width="0.22"/>
<circle cx="12.8" cy="9.774999999999999" r="0.42" fill="#5C3F14" stroke="#4A3410" stroke-width="0.22"/><circle cx="12.67" cy="9.65" r="0.12" fill="#F0D080"/>
<circle cx="19.200000000000003" cy="9.774999999999999" r="0.42" fill="#5C3F14" stroke="#4A3410" stroke-width="0.22"/><circle cx="19.07" cy="9.65" r="0.12" fill="#F0D080"/>
<rect x="12.80" y="14.20" width="6.40" height="1.15" rx="0.55" fill="url(#brassGradH)" stroke="#5C3F14" stroke-width="0.22"/>
<circle cx="12.8" cy="14.774999999999999" r="0.42" fill="#5C3F14" stroke="#4A3410" stroke-width="0.22"/><circle cx="12.67" cy="14.65" r="0.12" fill="#F0D080"/>
<circle cx="19.200000000000003" cy="14.774999999999999" r="0.42" fill="#5C3F14" stroke="#4A3410" stroke-width="0.22"/><circle cx="19.07" cy="14.65" r="0.12" fill="#F0D080"/>
<rect x="12.80" y="18.60" width="6.40" height="1.15" rx="0.55" fill="url(#brassGradH)" stroke="#5C3F14" stroke-width="0.22"/>
<circle cx="12.8" cy="19.175" r="0.42" fill="#5C3F14" stroke="#4A3410" stroke-width="0.22"/><circle cx="12.67" cy="19.05" r="0.12" fill="#F0D080"/>
<circle cx="19.200000000000003" cy="19.175" r="0.42" fill="#5C3F14" stroke="#4A3410" stroke-width="0.22"/><circle cx="19.07" cy="19.05" r="0.12" fill="#F0D080"/>
<rect x="18.75" y="6.60" width="1.0" height="0.35" fill="#5C3F14" fill-opacity="0.55"/>
<rect x="18.75" y="9.20" width="1.0" height="0.35" fill="#5C3F14" fill-opacity="0.55"/>
<rect x="18.75" y="11.80" width="1.0" height="0.35" fill="#5C3F14" fill-opacity="0.55"/>
<rect x="18.75" y="14.40" width="1.0" height="0.35" fill="#5C3F14" fill-opacity="0.55"/>
<rect x="18.75" y="17.00" width="1.0" height="0.35" fill="#5C3F14" fill-opacity="0.55"/>
<rect x="18.75" y="19.60" width="1.0" height="0.35" fill="#5C3F14" fill-opacity="0.55"/>
<ellipse cx="13.9" cy="9" rx="2.6" ry="4.2" fill="url(#patina)"/>
<circle cx="16" cy="25.0" r="5.7" fill="url(#brassRing)" stroke="#5C3F14" stroke-width="0.35"/>
<circle cx="16" cy="25.0" r="4.0" fill="url(#bulbGlass)" stroke="#5C3F14" stroke-width="0.3"/>
<circle cx="14.6" cy="23.6" r="1.3" fill="#FFE3D0" fill-opacity="0.55"/>
<circle cx="19.791919993438942" cy="28.18179866794837" r="0.55" fill="#5C3F14" stroke="#4A3410" stroke-width="0.22"/><circle cx="19.63" cy="28.02" r="0.15" fill="#F0D080"/>
<circle cx="12.818201332051629" cy="28.791919993438942" r="0.55" fill="#5C3F14" stroke="#4A3410" stroke-width="0.22"/><circle cx="12.65" cy="28.63" r="0.15" fill="#F0D080"/>
<circle cx="12.208080006561058" cy="21.81820133205163" r="0.55" fill="#5C3F14" stroke="#4A3410" stroke-width="0.22"/><circle cx="12.04" cy="21.65" r="0.15" fill="#F0D080"/>
<circle cx="19.18179866794837" cy="21.208080006561058" r="0.55" fill="#5C3F14" stroke="#4A3410" stroke-width="0.22"/><circle cx="19.02" cy="21.04" r="0.15" fill="#F0D080"/>
</g>
</svg>