<svg viewBox="0 0 32 32" xmlns="http://www.w3.org/2000/svg">
  <defs>
    
    <linearGradient id="brass" x1="0" y1="0" x2="0" y2="1">
      <stop offset="0%" stop-color="#F0D080"/>
      <stop offset="55%" stop-color="#C9932F"/>
      <stop offset="100%" stop-color="#7A5518"/>
    </linearGradient>
    <radialGradient id="rivetGrad" cx="35%" cy="30%" r="75%">
      <stop offset="0%" stop-color="#F0D080"/>
      <stop offset="60%" stop-color="#5C3F14"/>
      <stop offset="100%" stop-color="#4A3410"/>
    </radialGradient>
    <linearGradient id="panelGrad" x1="0" y1="0" x2="0" y2="1">
      <stop offset="0%" stop-color="#3a2f1c"/>
      <stop offset="100%" stop-color="#241c10"/>
    </linearGradient>
    <radialGradient id="lensGlow" cx="35%" cy="30%" r="75%">
      <stop offset="0%" stop-color="#FFE9B0"/>
      <stop offset="45%" stop-color="#F0A623"/>
      <stop offset="100%" stop-color="#8A5A12"/>
    </radialGradient>
    <radialGradient id="glassBlue" cx="35%" cy="30%" r="75%">
      <stop offset="0%" stop-color="#EAF7FF"/>
      <stop offset="45%" stop-color="#7FC0F0"/>
      <stop offset="100%" stop-color="#164C82"/>
    </radialGradient>
    <radialGradient id="glassAmber" cx="35%" cy="30%" r="75%">
      <stop offset="0%" stop-color="#FFEFD2"/>
      <stop offset="45%" stop-color="#F0B25A"/>
      <stop offset="100%" stop-color="#8A5A12"/>
    </radialGradient>
    <radialGradient id="doorHub" cx="35%" cy="30%" r="75%">
      <stop offset="0%" stop-color="#8f8f92"/>
      <stop offset="100%" stop-color="#4a4a4d"/>
    </radialGradient>
    <linearGradient id="sheen" x1="0" y1="0" x2="1" y2="1">
      <stop offset="0%" stop-color="#FFFFFF" stop-opacity="0.5"/>
      <stop offset="40%" stop-color="#FFFFFF" stop-opacity="0.08"/>
      <stop offset="100%" stop-color="#FFFFFF" stop-opacity="0"/>
    </linearGradient>
    <radialGradient id="patinaGrad" cx="30%" cy="70%" r="60%">
      <stop offset="0%" stop-color="#3B5240" stop-opacity="0.22"/>
      <stop offset="100%" stop-color="#3B5240" stop-opacity="0"/>
    </radialGradient>
    <radialGradient id="groundShadow" cx="50%" cy="50%" r="50%">
      <stop offset="0%" stop-color="#000000" stop-opacity="0.35"/>
      <stop offset="100%" stop-color="#000000" stop-opacity="0"/>
    </radialGradient>
    <filter id="dropshadow" x="-50%" y="-50%" width="200%" height="200%">
      <feDropShadow dx="0" dy="0.5" stdDeviation="0.5" flood-color="#000000" flood-opacity="0.4"/>
    </filter>
    
  </defs>
  <ellipse cx="16" cy="30.2" rx="12" ry="1.5" fill="url(#groundShadow)"/><g filter="url(#dropshadow)"><rect x="4.2" y="3.6" width="23.60" height="23.80" rx="1.6" fill="url(#brass)" stroke="#4A3410" stroke-width="0.3"/>
<ellipse cx="10" cy="12" rx="6" ry="8" fill="url(#patinaGrad)"/>
<circle cx="5.60" cy="5.00" r="0.55" fill="url(#rivetGrad)" stroke="#4A3410" stroke-width="0.12"/>
<circle cx="26.40" cy="5.00" r="0.55" fill="url(#rivetGrad)" stroke="#4A3410" stroke-width="0.12"/>
<circle cx="5.60" cy="26.00" r="0.55" fill="url(#rivetGrad)" stroke="#4A3410" stroke-width="0.12"/>
<circle cx="26.40" cy="26.00" r="0.55" fill="url(#rivetGrad)" stroke="#4A3410" stroke-width="0.12"/>
<rect x="5.00" y="5.2" width="22.00" height="3.60" rx="0.5" fill="url(#panelGrad)" stroke="#4A3410" stroke-width="0.15"/>
<rect x="4.50" y="27.10" width="1.8" height="1.1" rx="0.3" fill="url(#rivetGrad)" stroke="#4A3410" stroke-width="0.15"/>
<rect x="25.70" y="27.10" width="1.8" height="1.1" rx="0.3" fill="url(#rivetGrad)" stroke="#4A3410" stroke-width="0.15"/><circle cx="9.4" cy="7.00" r="0.85" fill="url(#lensGlow)" stroke="#4A3410" stroke-width="0.15"/><rect x="12.60" y="6.65" width="1.1" height="0.7" fill="#F0A623" opacity="0.55"/><rect x="14.40" y="6.65" width="1.1" height="0.7" fill="#F0A623" opacity="0.55"/><rect x="16.20" y="6.65" width="1.1" height="0.7" fill="#F0A623" opacity="0.55"/><circle cx="24.2" cy="7.00" r="1.3" fill="url(#brass)" stroke="#4A3410" stroke-width="0.2"/><circle cx="23.85" cy="6.65" r="0.3" fill="#F0D080"/><line x1="24.2" y1="7.00" x2="24.2" y2="6.00" stroke="#4A3410" stroke-width="0.28" stroke-linecap="round"/><circle cx="16.0" cy="18.4" r="8.6" fill="url(#brass)" stroke="#4A3410" stroke-width="0.3"/><circle cx="22.67" cy="22.25" r="0.5" fill="url(#rivetGrad)" stroke="#4A3410" stroke-width="0.1"/><circle cx="9.33" cy="22.25" r="0.5" fill="url(#rivetGrad)" stroke="#4A3410" stroke-width="0.1"/><circle cx="9.33" cy="14.55" r="0.5" fill="url(#rivetGrad)" stroke="#4A3410" stroke-width="0.1"/><circle cx="22.67" cy="14.55" r="0.5" fill="url(#rivetGrad)" stroke="#4A3410" stroke-width="0.1"/><circle cx="16.0" cy="18.4" r="7.00" fill="url(#doorHub)"/><circle cx="16.0" cy="18.4" r="6.00" fill="url(#glassBlue)"/><ellipse cx="13.40" cy="15.40" rx="2.6" ry="1.6" fill="url(#sheen)" transform="rotate(-25 13.40 15.40)"/><rect x="5.40" y="26.00" width="1.6" height="1.0" rx="0.3" fill="url(#rivetGrad)" stroke="#4A3410" stroke-width="0.12"/></g>
</svg>