<svg viewBox="0 0 32 32" xmlns="http://www.w3.org/2000/svg">
<defs>
    <linearGradient id="brassGrad" x1="0" y1="0" x2="0" y2="1">
      <stop offset="0%" stop-color="#F0D080"/>
      <stop offset="55%" stop-color="#C9932F"/>
      <stop offset="100%" stop-color="#7A5518"/>
    </linearGradient>
    <linearGradient id="brassGradDark" x1="0" y1="0" x2="0" y2="1">
      <stop offset="0%" stop-color="#C9932F"/>
      <stop offset="55%" stop-color="#8A6420"/>
      <stop offset="100%" stop-color="#5C3F14"/>
    </linearGradient>
    <linearGradient id="doorwayGrad" x1="0" y1="0" x2="0" y2="1">
      <stop offset="0%" stop-color="#33404A"/>
      <stop offset="100%" stop-color="#12181D"/>
    </linearGradient>
    <linearGradient id="glassPane" x1="0" y1="0" x2="1" y2="1">
      <stop offset="0%" stop-color="#CFE8DE"/><stop offset="55%" stop-color="#7FB5A6"/><stop offset="100%" stop-color="#3E6B5E"/>
    </linearGradient>
    <radialGradient id="patina" cx="30%" cy="20%" r="70%">
      <stop offset="0%" stop-color="#3B5240" stop-opacity="0.26"/>
      <stop offset="100%" stop-color="#3B5240" stop-opacity="0"/>
    </radialGradient>
    <radialGradient id="groundShadow" cx="50%" cy="50%" r="50%">
      <stop offset="0%" stop-color="#000000" stop-opacity="0.35"/>
      <stop offset="100%" stop-color="#000000" stop-opacity="0"/>
    </radialGradient>
    <filter id="dropshadow" x="-50%" y="-50%" width="200%" height="200%">
      <feDropShadow dx="0" dy="0.5" stdDeviation="0.6" flood-color="#3a2408" flood-opacity="0.45"/>
    </filter>
</defs>
<ellipse cx="16" cy="29.4" rx="9.5" ry="1.5" fill="url(#groundShadow)"/>
<g filter="url(#dropshadow)">
<path d="M6.0,4.0 H26.0 V29.0 H6.0 Z M8.3,6.3 V26.7 H23.7 V6.3 Z" fill="url(#brassGrad)" stroke="#5C3F14" stroke-width="0.3" fill-rule="evenodd"/>
<circle cx="7.10" cy="5.10" r="1.0" fill="#5C3F14" stroke="#4A3410" stroke-width="0.25"/><circle cx="6.80" cy="4.80" r="0.28" fill="#F0D080"/>
<circle cx="24.90" cy="5.10" r="1.0" fill="#5C3F14" stroke="#4A3410" stroke-width="0.25"/><circle cx="24.60" cy="4.80" r="0.28" fill="#F0D080"/>
<circle cx="7.10" cy="27.90" r="1.0" fill="#5C3F14" stroke="#4A3410" stroke-width="0.25"/><circle cx="6.80" cy="27.60" r="0.28" fill="#F0D080"/>
<circle cx="24.90" cy="27.90" r="1.0" fill="#5C3F14" stroke="#4A3410" stroke-width="0.25"/><circle cx="24.60" cy="27.60" r="0.28" fill="#F0D080"/>
<ellipse cx="9.5" cy="8.0" rx="4.0" ry="5.6" fill="url(#patina)"/>
<rect x="8.3" y="6.3" width="15.40" height="20.40" fill="url(#doorwayGrad)"/>
<rect x="18.77" y="6.3" width="4.93" height="20.40" fill="url(#glassPane)" stroke="#3E6B5E" stroke-width="0.3"/>
<line x1="20.41" y1="6.3" x2="20.41" y2="26.7" stroke="url(#brassGradDark)" stroke-width="0.5"/>
<line x1="22.06" y1="6.3" x2="22.06" y2="26.7" stroke="url(#brassGradDark)" stroke-width="0.5"/>
<line x1="18.77" y1="16.50" x2="23.70" y2="16.50" stroke="url(#brassGradDark)" stroke-width="0.5"/>
<path d="M19.07,6.60 L20.99,6.60 L19.76,26.40 L19.07,26.40 Z" fill="#ffffff" fill-opacity="0.18"/>
<g transform="rotate(-55 20.37 16.50)"><rect x="19.77" y="16.00" width="2.6" height="1.0" rx="0.4" fill="url(#brassGrad)" stroke="#5C3F14" stroke-width="0.2"/></g>
<circle cx="20.37" cy="16.50" r="0.4" fill="#5C3F14" stroke="#4A3410" stroke-width="0.25"/><circle cx="20.25" cy="16.38" r="0.11" fill="#F0D080"/>
<rect x="23.55" y="8.20" width="1.3" height="1.6" rx="0.3" fill="url(#brassGradDark)" stroke="#4A3410" stroke-width="0.2"/>
<rect x="23.55" y="15.70" width="1.3" height="1.6" rx="0.3" fill="url(#brassGradDark)" stroke="#4A3410" stroke-width="0.2"/>
<rect x="23.55" y="23.20" width="1.3" height="1.6" rx="0.3" fill="url(#brassGradDark)" stroke="#4A3410" stroke-width="0.2"/>
</g>
</svg>