<svg viewBox="0 0 32 32" xmlns="http://www.w3.org/2000/svg">
<defs>
  <linearGradient id="brass" x1="0" y1="0" x2="0" y2="1">
    <stop offset="0%" stop-color="#F0D080"/>
    <stop offset="55%" stop-color="#C9932F"/>
    <stop offset="100%" stop-color="#7A5518"/>
  </linearGradient>
  <linearGradient id="rivet" x1="0" y1="0" x2="0" y2="1">
    <stop offset="0%" stop-color="#6B4A18"/>
    <stop offset="100%" stop-color="#4A3410"/>
  </linearGradient>
  <radialGradient id="face" cx="50%" cy="42%" r="70%">
    <stop offset="0%" stop-color="#232A52"/>
    <stop offset="65%" stop-color="#141833"/>
    <stop offset="100%" stop-color="#05060F"/>
  </radialGradient>
  <linearGradient id="sheen" x1="0" y1="0" x2="1" y2="1">
    <stop offset="0%" stop-color="#FFFFFF" stop-opacity="0.20"/>
    <stop offset="35%" stop-color="#FFFFFF" stop-opacity="0.03"/>
    <stop offset="100%" stop-color="#FFFFFF" stop-opacity="0"/>
  </linearGradient>
  <linearGradient id="glyphGold" x1="16" y1="5" x2="16" y2="27" gradientUnits="userSpaceOnUse">
    <stop offset="0%" stop-color="#FFEFA8"/>
    <stop offset="100%" stop-color="#D9A431"/>
  </linearGradient>
  <radialGradient id="glyphGlow" cx="50%" cy="50%" r="50%">
    <stop offset="0%" stop-color="#FFE9A0" stop-opacity="0.55"/>
    <stop offset="100%" stop-color="#FFE9A0" stop-opacity="0"/>
  </radialGradient>
  <filter id="dropshadow" x="-50%" y="-50%" width="200%" height="200%">
    <feDropShadow dx="0" dy="0.4" stdDeviation="0.5" flood-color="#000000" flood-opacity="0.35"/>
  </filter>
  <filter id="blur1" x="-50%" y="-50%" width="200%" height="200%">
    <feGaussianBlur stdDeviation="1"/>
  </filter>
  <clipPath id="faceClip"><circle cx="16" cy="16" r="11"/></clipPath>
</defs>

<ellipse cx="16" cy="29.6" rx="10.6" ry="1.5" fill="#000000" opacity="0.28" filter="url(#blur1)"/>

<g filter="url(#dropshadow)">
  <circle cx="16" cy="16" r="13.2" fill="url(#brass)" stroke="#4A3410" stroke-width="0.7"/>
  <circle cx="24.91" cy="7.09" r="0.95" fill="url(#rivet)" stroke="#4A3410" stroke-width="0.25"/><circle cx="24.10" cy="7.01" r="0.24" fill="#F0D080"/>
<circle cx="24.91" cy="24.91" r="0.95" fill="url(#rivet)" stroke="#4A3410" stroke-width="0.25"/><circle cx="24.99" cy="24.10" r="0.24" fill="#F0D080"/>
<circle cx="7.09" cy="24.91" r="0.95" fill="url(#rivet)" stroke="#4A3410" stroke-width="0.25"/><circle cx="7.90" cy="24.99" r="0.24" fill="#F0D080"/>
<circle cx="7.09" cy="7.09" r="0.95" fill="url(#rivet)" stroke="#4A3410" stroke-width="0.25"/><circle cx="7.01" cy="7.90" r="0.24" fill="#F0D080"/>
  <circle cx="16" cy="16" r="11" fill="url(#face)" stroke="#8A6420" stroke-width="0.5"/>
  <g clip-path="url(#faceClip)"><circle cx="10.5" cy="9" r="0.35" fill="#FFFFFF" opacity="0.8"/>
<circle cx="21" cy="8.5" r="0.3" fill="#FFFFFF" opacity="0.6"/>
<circle cx="8.7" cy="15" r="0.28" fill="#FFFFFF" opacity="0.7"/>
<circle cx="23.2" cy="13" r="0.32" fill="#FFFFFF" opacity="0.5"/>
<circle cx="9.5" cy="21.5" r="0.3" fill="#FFFFFF" opacity="0.6"/>
<circle cx="22.5" cy="22" r="0.35" fill="#FFFFFF" opacity="0.7"/>
<circle cx="13" cy="24.5" r="0.25" fill="#FFFFFF" opacity="0.5"/>
<circle cx="19" cy="24.7" r="0.28" fill="#FFFFFF" opacity="0.6"/>
<circle cx="16" cy="7.2" r="0.3" fill="#FFFFFF" opacity="0.5"/></g>
  <ellipse cx="16" cy="16" r="6" fill="url(#glyphGlow)"/>
  <line x1="16.00" y1="5.00" x2="16.00" y2="6.30" stroke="url(#glyphGold)" stroke-width="0.6" stroke-linecap="round"/>
<line x1="21.50" y1="6.47" x2="20.85" y2="7.60" stroke="url(#glyphGold)" stroke-width="0.6" stroke-linecap="round"/>
<line x1="25.53" y1="10.50" x2="24.40" y2="11.15" stroke="url(#glyphGold)" stroke-width="0.6" stroke-linecap="round"/>
<line x1="27.00" y1="16.00" x2="25.70" y2="16.00" stroke="url(#glyphGold)" stroke-width="0.6" stroke-linecap="round"/>
<line x1="25.53" y1="21.50" x2="24.40" y2="20.85" stroke="url(#glyphGold)" stroke-width="0.6" stroke-linecap="round"/>
<line x1="21.50" y1="25.53" x2="20.85" y2="24.40" stroke="url(#glyphGold)" stroke-width="0.6" stroke-linecap="round"/>
<line x1="16.00" y1="27.00" x2="16.00" y2="25.70" stroke="url(#glyphGold)" stroke-width="0.6" stroke-linecap="round"/>
<line x1="10.50" y1="25.53" x2="11.15" y2="24.40" stroke="url(#glyphGold)" stroke-width="0.6" stroke-linecap="round"/>
<line x1="6.47" y1="21.50" x2="7.60" y2="20.85" stroke="url(#glyphGold)" stroke-width="0.6" stroke-linecap="round"/>
<line x1="5.00" y1="16.00" x2="6.30" y2="16.00" stroke="url(#glyphGold)" stroke-width="0.6" stroke-linecap="round"/>
<line x1="6.47" y1="10.50" x2="7.60" y2="11.15" stroke="url(#glyphGold)" stroke-width="0.6" stroke-linecap="round"/>
<line x1="10.50" y1="6.47" x2="11.15" y2="7.60" stroke="url(#glyphGold)" stroke-width="0.6" stroke-linecap="round"/>
<polygon points="16.00,10.80 17.63,14.37 21.20,16.00 17.63,17.63 16.00,21.20 14.37,17.63 10.80,16.00 14.37,14.37" fill="url(#glyphGold)" stroke="#8A6420" stroke-width="0.3"/>
  <ellipse cx="13" cy="12" rx="7.5" ry="5.5" fill="url(#sheen)" clip-path="url(#faceClip)"/>
</g>
</svg>